<svg width="360" height="1600" viewBox="0 0 360 1600" fill="none" xmlns="http://www.w3.org/2000/svg">
<mask id="path-1-inside-1_35_7367" fill="white">
<path d="M0 0H360V1600H0V0Z"/>
</mask>
<path d="M0 0H360V1600H0V0Z" fill="white"/>
<path d="M359 0V1600H361V0H359Z" fill="#F3F5F7" mask="url(#path-1-inside-1_35_7367)"/>
<path d="M34.508 47V39.32H32.132V38.06H38.252V39.32H35.912V47H34.508ZM43.1964 47V42.968L40.1364 38.06H41.7324L44.1804 42.032H43.6164L46.0524 38.06H47.6484L44.6004 42.968V47H43.1964ZM50.3273 47V38.06H53.5793C54.1793 38.06 54.7073 38.172 55.1633 38.396C55.6273 38.612 55.9873 38.932 56.2433 39.356C56.4993 39.772 56.6273 40.272 56.6273 40.856C56.6273 41.432 56.4953 41.928 56.2313 42.344C55.9753 42.76 55.6193 43.08 55.1633 43.304C54.7073 43.528 54.1793 43.64 53.5793 43.64H51.7433V47H50.3273ZM51.7433 42.38H53.6153C53.9353 42.38 54.2153 42.316 54.4553 42.188C54.6953 42.06 54.8833 41.884 55.0193 41.66C55.1553 41.428 55.2233 41.156 55.2233 40.844C55.2233 40.532 55.1553 40.264 55.0193 40.04C54.8833 39.808 54.6953 39.632 54.4553 39.512C54.2153 39.384 53.9353 39.32 53.6153 39.32H51.7433V42.38ZM59.7027 47V38.06H65.5947V39.32H61.1187V41.888H65.3547V43.148H61.1187V45.74H65.5947V47H59.7027Z" fill="#90A3BF"/>
<path d="M48.19 82H39.81C36.17 82 34 84.17 34 87.81V96.18C34 99.83 36.17 102 39.81 102H48.18C51.82 102 53.99 99.83 53.99 96.19V87.81C54 84.17 51.83 82 48.19 82ZM48.78 89.7L43.11 95.37C42.97 95.51 42.78 95.59 42.58 95.59C42.38 95.59 42.19 95.51 42.05 95.37L39.22 92.54C38.93 92.25 38.93 91.77 39.22 91.48C39.51 91.19 39.99 91.19 40.28 91.48L42.58 93.78L47.72 88.64C48.01 88.35 48.49 88.35 48.78 88.64C49.07 88.93 49.07 89.4 48.78 89.7Z" fill="#3563E9"/>
<path d="M70.76 100.24C69.8267 100.24 68.96 100.067 68.16 99.72C67.36 99.36 66.68 98.8733 66.12 98.26C65.56 97.6467 65.1467 96.94 64.88 96.14L66.88 95.3C67.24 96.22 67.7667 96.9267 68.46 97.42C69.1533 97.9133 69.9533 98.16 70.86 98.16C71.3933 98.16 71.86 98.08 72.26 97.92C72.66 97.7467 72.9667 97.5067 73.18 97.2C73.4067 96.8933 73.52 96.54 73.52 96.14C73.52 95.5933 73.3667 95.16 73.06 94.84C72.7533 94.52 72.3 94.2667 71.7 94.08L68.9 93.2C67.78 92.8533 66.9267 92.3267 66.34 91.62C65.7533 90.9 65.46 90.06 65.46 89.1C65.46 88.26 65.6667 87.5267 66.08 86.9C66.4933 86.26 67.06 85.76 67.78 85.4C68.5133 85.04 69.3467 84.86 70.28 84.86C71.1733 84.86 71.9867 85.02 72.72 85.34C73.4533 85.6467 74.08 86.0733 74.6 86.62C75.1333 87.1667 75.52 87.8 75.76 88.52L73.8 89.38C73.5067 88.5933 73.0467 87.9867 72.42 87.56C71.8067 87.1333 71.0933 86.92 70.28 86.92C69.7867 86.92 69.3533 87.0067 68.98 87.18C68.6067 87.34 68.3133 87.58 68.1 87.9C67.9 88.2067 67.8 88.5667 67.8 88.98C67.8 89.46 67.9533 89.8867 68.26 90.26C68.5667 90.6333 69.0333 90.9133 69.66 91.1L72.26 91.92C73.4467 92.28 74.34 92.8 74.94 93.48C75.54 94.1467 75.84 94.98 75.84 95.98C75.84 96.8067 75.62 97.54 75.18 98.18C74.7533 98.82 74.16 99.3267 73.4 99.7C72.64 100.06 71.76 100.24 70.76 100.24ZM77.8692 104V89.18H80.0292V91.42L79.7692 90.9C80.1692 90.2867 80.7026 89.8067 81.3692 89.46C82.0359 89.1133 82.7959 88.94 83.6492 88.94C84.6759 88.94 85.5959 89.1867 86.4092 89.68C87.2359 90.1733 87.8826 90.8467 88.3492 91.7C88.8292 92.5533 89.0692 93.5133 89.0692 94.58C89.0692 95.6467 88.8292 96.6067 88.3492 97.46C87.8826 98.3133 87.2426 98.9933 86.4292 99.5C85.6159 99.9933 84.6892 100.24 83.6492 100.24C82.8092 100.24 82.0426 100.067 81.3492 99.72C80.6692 99.3733 80.1426 98.8733 79.7692 98.22L80.1292 97.8V104H77.8692ZM83.4292 98.14C84.0692 98.14 84.6359 97.9867 85.1292 97.68C85.6226 97.3733 86.0092 96.9533 86.2892 96.42C86.5826 95.8733 86.7292 95.26 86.7292 94.58C86.7292 93.9 86.5826 93.2933 86.2892 92.76C86.0092 92.2267 85.6226 91.8067 85.1292 91.5C84.6359 91.1933 84.0692 91.04 83.4292 91.04C82.8026 91.04 82.2359 91.1933 81.7292 91.5C81.2359 91.8067 80.8426 92.2267 80.5492 92.76C80.2692 93.2933 80.1292 93.9 80.1292 94.58C80.1292 95.26 80.2692 95.8733 80.5492 96.42C80.8426 96.9533 81.2359 97.3733 81.7292 97.68C82.2359 97.9867 82.8026 98.14 83.4292 98.14ZM96.0877 100.24C95.0477 100.24 94.0943 99.9933 93.2277 99.5C92.3743 99.0067 91.6943 98.3333 91.1877 97.48C90.681 96.6267 90.4277 95.66 90.4277 94.58C90.4277 93.4867 90.681 92.52 91.1877 91.68C91.6943 90.8267 92.3743 90.16 93.2277 89.68C94.081 89.1867 95.0343 88.94 96.0877 88.94C97.1543 88.94 98.1077 89.1867 98.9477 89.68C99.801 90.16 100.474 90.8267 100.968 91.68C101.474 92.52 101.728 93.4867 101.728 94.58C101.728 95.6733 101.474 96.6467 100.968 97.5C100.461 98.3533 99.781 99.0267 98.9277 99.52C98.0743 100 97.1277 100.24 96.0877 100.24ZM96.0877 98.14C96.7277 98.14 97.2943 97.9867 97.7877 97.68C98.281 97.3733 98.6677 96.9533 98.9477 96.42C99.241 95.8733 99.3877 95.26 99.3877 94.58C99.3877 93.9 99.241 93.2933 98.9477 92.76C98.6677 92.2267 98.281 91.8067 97.7877 91.5C97.2943 91.1933 96.7277 91.04 96.0877 91.04C95.461 91.04 94.8943 91.1933 94.3877 91.5C93.8943 91.8067 93.501 92.2267 93.2077 92.76C92.9277 93.2933 92.7877 93.9 92.7877 94.58C92.7877 95.26 92.9277 95.8733 93.2077 96.42C93.501 96.9533 93.8943 97.3733 94.3877 97.68C94.8943 97.9867 95.461 98.14 96.0877 98.14ZM103.534 100V89.18H105.694V91.36L105.494 91.04C105.734 90.3333 106.121 89.8267 106.654 89.52C107.187 89.2 107.827 89.04 108.574 89.04H109.234V91.1H108.294C107.547 91.1 106.941 91.3333 106.474 91.8C106.021 92.2533 105.794 92.9067 105.794 93.76V100H103.534ZM115.255 100.12C114.122 100.12 113.242 99.8 112.615 99.16C111.989 98.52 111.675 97.62 111.675 96.46V91.22H109.775V89.18H110.075C110.582 89.18 110.975 89.0333 111.255 88.74C111.535 88.4467 111.675 88.0467 111.675 87.54V86.7H113.935V89.18H116.395V91.22H113.935V96.36C113.935 96.7333 113.995 97.0533 114.115 97.32C114.235 97.5733 114.429 97.7733 114.695 97.92C114.962 98.0533 115.309 98.12 115.735 98.12C115.842 98.12 115.962 98.1133 116.095 98.1C116.229 98.0867 116.355 98.0733 116.475 98.06V100C116.289 100.027 116.082 100.053 115.855 100.08C115.629 100.107 115.429 100.12 115.255 100.12Z" fill="#596780"/>
<path d="M127.653 103.2C126.56 101.92 125.733 100.52 125.173 99C124.613 97.48 124.333 95.86 124.333 94.14C124.333 92.4067 124.613 90.78 125.173 89.26C125.733 87.74 126.56 86.3533 127.653 85.1H129.553C128.606 86.5 127.886 87.96 127.393 89.48C126.913 90.9867 126.673 92.54 126.673 94.14C126.673 95.7267 126.913 97.2867 127.393 98.82C127.886 100.34 128.606 101.8 129.553 103.2H127.653ZM133.285 100V87.1H130.425V85.1H135.625V100H133.285ZM144.377 100.24C143.19 100.24 142.15 99.92 141.257 99.28C140.364 98.6267 139.664 97.7267 139.157 96.58C138.664 95.42 138.417 94.0733 138.417 92.54C138.417 90.9933 138.664 89.6467 139.157 88.5C139.664 87.3533 140.357 86.46 141.237 85.82C142.13 85.18 143.17 84.86 144.357 84.86C145.544 84.86 146.577 85.18 147.457 85.82C148.35 86.46 149.044 87.36 149.537 88.52C150.044 89.6667 150.297 91.0067 150.297 92.54C150.297 94.0733 150.05 95.42 149.557 96.58C149.064 97.7267 148.37 98.6267 147.477 99.28C146.597 99.92 145.564 100.24 144.377 100.24ZM144.377 98.08C145.11 98.08 145.744 97.8533 146.277 97.4C146.81 96.9467 147.224 96.3067 147.517 95.48C147.81 94.6533 147.957 93.6733 147.957 92.54C147.957 91.4067 147.81 90.4267 147.517 89.6C147.224 88.7733 146.81 88.1333 146.277 87.68C145.744 87.2267 145.104 87 144.357 87C143.624 87 142.99 87.2267 142.457 87.68C141.924 88.1333 141.51 88.7733 141.217 89.6C140.924 90.4267 140.777 91.4067 140.777 92.54C140.777 93.66 140.924 94.64 141.217 95.48C141.51 96.3067 141.924 96.9467 142.457 97.4C143.004 97.8533 143.644 98.08 144.377 98.08ZM151.733 103.2C152.693 101.8 153.413 100.34 153.893 98.82C154.373 97.2867 154.613 95.7267 154.613 94.14C154.613 92.54 154.373 90.9867 153.893 89.48C153.413 87.96 152.693 86.5 151.733 85.1H153.633C154.74 86.3533 155.573 87.74 156.133 89.26C156.693 90.78 156.973 92.4067 156.973 94.14C156.973 95.86 156.693 97.48 156.133 99C155.573 100.52 154.74 101.92 153.633 103.2H151.733Z" fill="#90A3BF"/>
<path d="M48.19 138H39.81C36.17 138 34 140.17 34 143.81V152.18C34 155.83 36.17 158 39.81 158H48.18C51.82 158 53.99 155.83 53.99 152.19V143.81C54 140.17 51.83 138 48.19 138ZM48.78 145.7L43.11 151.37C42.97 151.51 42.78 151.59 42.58 151.59C42.38 151.59 42.19 151.51 42.05 151.37L39.22 148.54C38.93 148.25 38.93 147.77 39.22 147.48C39.51 147.19 39.99 147.19 40.28 147.48L42.58 149.78L47.72 144.64C48.01 144.35 48.49 144.35 48.78 144.64C49.07 144.93 49.07 145.4 48.78 145.7Z" fill="#3563E9"/>
<path d="M70.76 156.24C69.8267 156.24 68.96 156.067 68.16 155.72C67.36 155.36 66.68 154.873 66.12 154.26C65.56 153.647 65.1467 152.94 64.88 152.14L66.88 151.3C67.24 152.22 67.7667 152.927 68.46 153.42C69.1533 153.913 69.9533 154.16 70.86 154.16C71.3933 154.16 71.86 154.08 72.26 153.92C72.66 153.747 72.9667 153.507 73.18 153.2C73.4067 152.893 73.52 152.54 73.52 152.14C73.52 151.593 73.3667 151.16 73.06 150.84C72.7533 150.52 72.3 150.267 71.7 150.08L68.9 149.2C67.78 148.853 66.9267 148.327 66.34 147.62C65.7533 146.9 65.46 146.06 65.46 145.1C65.46 144.26 65.6667 143.527 66.08 142.9C66.4933 142.26 67.06 141.76 67.78 141.4C68.5133 141.04 69.3467 140.86 70.28 140.86C71.1733 140.86 71.9867 141.02 72.72 141.34C73.4533 141.647 74.08 142.073 74.6 142.62C75.1333 143.167 75.52 143.8 75.76 144.52L73.8 145.38C73.5067 144.593 73.0467 143.987 72.42 143.56C71.8067 143.133 71.0933 142.92 70.28 142.92C69.7867 142.92 69.3533 143.007 68.98 143.18C68.6067 143.34 68.3133 143.58 68.1 143.9C67.9 144.207 67.8 144.567 67.8 144.98C67.8 145.46 67.9533 145.887 68.26 146.26C68.5667 146.633 69.0333 146.913 69.66 147.1L72.26 147.92C73.4467 148.28 74.34 148.8 74.94 149.48C75.54 150.147 75.84 150.98 75.84 151.98C75.84 152.807 75.62 153.54 75.18 154.18C74.7533 154.82 74.16 155.327 73.4 155.7C72.64 156.06 71.76 156.24 70.76 156.24ZM83.6692 156.24C82.5626 156.24 81.5759 156.007 80.7092 155.54C79.8559 155.073 79.1826 154.433 78.6892 153.62C78.2092 152.807 77.9692 151.88 77.9692 150.84V141.1H80.3292V150.74C80.3292 151.393 80.4692 151.973 80.7492 152.48C81.0426 152.987 81.4359 153.38 81.9292 153.66C82.4359 153.94 83.0159 154.08 83.6692 154.08C84.3359 154.08 84.9159 153.94 85.4092 153.66C85.9159 153.38 86.3092 152.987 86.5892 152.48C86.8826 151.973 87.0292 151.393 87.0292 150.74V141.1H89.3692V150.84C89.3692 151.88 89.1292 152.807 88.6492 153.62C88.1692 154.433 87.4959 155.073 86.6292 155.54C85.7759 156.007 84.7892 156.24 83.6692 156.24ZM95.8875 156L90.6075 141.1H93.1475L97.4675 153.82H96.9675L101.268 141.1H103.808L98.5275 156H95.8875Z" fill="#596780"/>
<path d="M114.313 159.2C113.219 157.92 112.393 156.52 111.833 155C111.273 153.48 110.993 151.86 110.993 150.14C110.993 148.407 111.273 146.78 111.833 145.26C112.393 143.74 113.219 142.353 114.313 141.1H116.213C115.266 142.5 114.546 143.96 114.053 145.48C113.573 146.987 113.333 148.54 113.333 150.14C113.333 151.727 113.573 153.287 114.053 154.82C114.546 156.34 115.266 157.8 116.213 159.2H114.313ZM119.944 156V143.1H117.084V141.1H122.284V156H119.944ZM124.856 156V154.3L128.936 149.94C129.736 149.087 130.363 148.4 130.816 147.88C131.283 147.347 131.616 146.88 131.816 146.48C132.03 146.08 132.136 145.66 132.136 145.22C132.136 144.5 131.916 143.947 131.476 143.56C131.036 143.16 130.47 142.96 129.776 142.96C129.056 142.96 128.436 143.167 127.916 143.58C127.396 143.98 127.036 144.567 126.836 145.34L124.756 144.74C124.916 143.953 125.236 143.273 125.716 142.7C126.196 142.113 126.783 141.66 127.476 141.34C128.183 141.02 128.943 140.86 129.756 140.86C130.703 140.86 131.53 141.04 132.236 141.4C132.943 141.747 133.49 142.233 133.876 142.86C134.276 143.487 134.476 144.213 134.476 145.04C134.476 145.587 134.37 146.12 134.156 146.64C133.956 147.147 133.643 147.687 133.216 148.26C132.79 148.82 132.243 149.453 131.576 150.16L127.976 154H134.756V156H124.856ZM136.029 159.2C136.989 157.8 137.709 156.34 138.189 154.82C138.669 153.287 138.909 151.727 138.909 150.14C138.909 148.54 138.669 146.987 138.189 145.48C137.709 143.96 136.989 142.5 136.029 141.1H137.929C139.036 142.353 139.869 143.74 140.429 145.26C140.989 146.78 141.269 148.407 141.269 150.14C141.269 151.86 140.989 153.48 140.429 155C139.869 156.52 139.036 157.92 137.929 159.2H136.029Z" fill="#90A3BF"/>
<path d="M53.5 199.809V199.81V208.19C53.5 209.91 52.9888 211.224 52.1057 212.106C51.2226 212.989 49.9086 213.5 48.1871 213.5H39.8129C38.0914 213.5 36.7775 212.989 35.8945 212.105C35.0114 211.222 34.5 209.906 34.5 208.18V199.81C34.5 198.09 35.0112 196.776 35.8942 195.894C36.7773 195.011 38.0914 194.5 39.8129 194.5H48.1971C49.9187 194.5 51.2325 195.011 52.1143 195.893C52.9959 196.776 53.5047 198.088 53.5 199.809Z" stroke="#90A3BF"/>
<path d="M65.54 212V197.1H67.74L73.34 204.86H72.24L77.74 197.1H79.94V212H77.6V199.88L78.48 200.12L72.86 207.8H72.62L67.12 200.12L67.9 199.88V212H65.54ZM82.6205 212V197.1H88.0405C89.0405 197.1 89.9205 197.287 90.6805 197.66C91.4538 198.02 92.0538 198.553 92.4805 199.26C92.9071 199.953 93.1205 200.787 93.1205 201.76C93.1205 202.72 92.9005 203.547 92.4605 204.24C92.0338 204.933 91.4405 205.467 90.6805 205.84C89.9205 206.213 89.0405 206.4 88.0405 206.4H84.9805V212H82.6205ZM84.9805 204.3H88.1005C88.6338 204.3 89.1005 204.193 89.5005 203.98C89.9005 203.767 90.2138 203.473 90.4405 203.1C90.6671 202.713 90.7805 202.26 90.7805 201.74C90.7805 201.22 90.6671 200.773 90.4405 200.4C90.2138 200.013 89.9005 199.72 89.5005 199.52C89.1005 199.307 88.6338 199.2 88.1005 199.2H84.9805V204.3ZM99.1102 212L93.8302 197.1H96.3702L100.69 209.82H100.19L104.49 197.1H107.03L101.75 212H99.1102Z" fill="#596780"/>
<path d="M117.535 215.2C116.442 213.92 115.615 212.52 115.055 211C114.495 209.48 114.215 207.86 114.215 206.14C114.215 204.407 114.495 202.78 115.055 201.26C115.615 199.74 116.442 198.353 117.535 197.1H119.435C118.488 198.5 117.768 199.96 117.275 201.48C116.795 202.987 116.555 204.54 116.555 206.14C116.555 207.727 116.795 209.287 117.275 210.82C117.768 212.34 118.488 213.8 119.435 215.2H117.535ZM123.167 212V199.1H120.307V197.1H125.507V212H123.167ZM132.904 212.24C131.93 212.24 131.064 212.027 130.304 211.6C129.544 211.173 128.944 210.587 128.504 209.84C128.077 209.093 127.864 208.247 127.864 207.3C127.864 206.807 127.917 206.313 128.024 205.82C128.13 205.327 128.317 204.813 128.584 204.28C128.864 203.747 129.237 203.173 129.704 202.56L133.864 197.1H136.684L131.584 203.7L131.184 203.44C131.37 203.227 131.57 203.06 131.784 202.94C132.01 202.82 132.244 202.733 132.484 202.68C132.737 202.627 133.004 202.6 133.284 202.6C134.177 202.6 134.977 202.807 135.684 203.22C136.39 203.633 136.944 204.193 137.344 204.9C137.757 205.607 137.964 206.42 137.964 207.34C137.964 208.273 137.744 209.113 137.304 209.86C136.864 210.593 136.264 211.173 135.504 211.6C134.757 212.027 133.89 212.24 132.904 212.24ZM132.904 210.14C133.424 210.14 133.884 210.02 134.284 209.78C134.684 209.54 135.004 209.213 135.244 208.8C135.484 208.373 135.604 207.893 135.604 207.36C135.604 206.813 135.484 206.333 135.244 205.92C135.017 205.507 134.697 205.187 134.284 204.96C133.884 204.72 133.424 204.6 132.904 204.6C132.397 204.6 131.937 204.72 131.524 204.96C131.124 205.187 130.804 205.507 130.564 205.92C130.324 206.333 130.204 206.813 130.204 207.36C130.204 207.893 130.324 208.373 130.564 208.8C130.804 209.213 131.124 209.54 131.524 209.78C131.937 210.02 132.397 210.14 132.904 210.14ZM139.115 215.2C140.075 213.8 140.795 212.34 141.275 210.82C141.755 209.287 141.995 207.727 141.995 206.14C141.995 204.54 141.755 202.987 141.275 201.48C140.795 199.96 140.075 198.5 139.115 197.1H141.015C142.122 198.353 142.955 199.74 143.515 201.26C144.075 202.78 144.355 204.407 144.355 206.14C144.355 207.86 144.075 209.48 143.515 211C142.955 212.52 142.122 213.92 141.015 215.2H139.115Z" fill="#90A3BF"/>
<path d="M53.5 255.809V255.81V264.19C53.5 265.91 52.9888 267.224 52.1057 268.106C51.2226 268.989 49.9086 269.5 48.1871 269.5H39.8129C38.0914 269.5 36.7775 268.989 35.8945 268.105C35.0114 267.222 34.5 265.906 34.5 264.18V255.81C34.5 254.09 35.0112 252.776 35.8942 251.894C36.7773 251.011 38.0914 250.5 39.8129 250.5H48.1971C49.9187 250.5 51.2325 251.011 52.1143 251.893C52.9959 252.776 53.5047 254.088 53.5 255.809Z" stroke="#90A3BF"/>
<path d="M70.76 268.24C69.8267 268.24 68.96 268.067 68.16 267.72C67.36 267.36 66.68 266.873 66.12 266.26C65.56 265.647 65.1467 264.94 64.88 264.14L66.88 263.3C67.24 264.22 67.7667 264.927 68.46 265.42C69.1533 265.913 69.9533 266.16 70.86 266.16C71.3933 266.16 71.86 266.08 72.26 265.92C72.66 265.747 72.9667 265.507 73.18 265.2C73.4067 264.893 73.52 264.54 73.52 264.14C73.52 263.593 73.3667 263.16 73.06 262.84C72.7533 262.52 72.3 262.267 71.7 262.08L68.9 261.2C67.78 260.853 66.9267 260.327 66.34 259.62C65.7533 258.9 65.46 258.06 65.46 257.1C65.46 256.26 65.6667 255.527 66.08 254.9C66.4933 254.26 67.06 253.76 67.78 253.4C68.5133 253.04 69.3467 252.86 70.28 252.86C71.1733 252.86 71.9867 253.02 72.72 253.34C73.4533 253.647 74.08 254.073 74.6 254.62C75.1333 255.167 75.52 255.8 75.76 256.52L73.8 257.38C73.5067 256.593 73.0467 255.987 72.42 255.56C71.8067 255.133 71.0933 254.92 70.28 254.92C69.7867 254.92 69.3533 255.007 68.98 255.18C68.6067 255.34 68.3133 255.58 68.1 255.9C67.9 256.207 67.8 256.567 67.8 256.98C67.8 257.46 67.9533 257.887 68.26 258.26C68.5667 258.633 69.0333 258.913 69.66 259.1L72.26 259.92C73.4467 260.28 74.34 260.8 74.94 261.48C75.54 262.147 75.84 262.98 75.84 263.98C75.84 264.807 75.62 265.54 75.18 266.18C74.7533 266.82 74.16 267.327 73.4 267.7C72.64 268.06 71.76 268.24 70.76 268.24ZM82.9492 268.24C81.8692 268.24 80.9092 267.993 80.0692 267.5C79.2426 266.993 78.5959 266.313 78.1292 265.46C77.6626 264.593 77.4292 263.627 77.4292 262.56C77.4292 261.467 77.6626 260.5 78.1292 259.66C78.6092 258.82 79.2492 258.16 80.0492 257.68C80.8492 257.187 81.7559 256.94 82.7692 256.94C83.5826 256.94 84.3092 257.08 84.9492 257.36C85.5892 257.64 86.1292 258.027 86.5692 258.52C87.0092 259 87.3426 259.553 87.5692 260.18C87.8092 260.807 87.9292 261.473 87.9292 262.18C87.9292 262.353 87.9226 262.533 87.9092 262.72C87.8959 262.907 87.8692 263.08 87.8292 263.24H79.2092V261.44H86.5492L85.4692 262.26C85.6026 261.607 85.5559 261.027 85.3292 260.52C85.1159 260 84.7826 259.593 84.3292 259.3C83.8892 258.993 83.3692 258.84 82.7692 258.84C82.1692 258.84 81.6359 258.993 81.1692 259.3C80.7026 259.593 80.3426 260.02 80.0892 260.58C79.8359 261.127 79.7359 261.793 79.7892 262.58C79.7226 263.313 79.8226 263.953 80.0892 264.5C80.3692 265.047 80.7559 265.473 81.2492 265.78C81.7559 266.087 82.3292 266.24 82.9692 266.24C83.6226 266.24 84.1759 266.093 84.6292 265.8C85.0959 265.507 85.4626 265.127 85.7292 264.66L87.5692 265.56C87.3559 266.067 87.0226 266.527 86.5692 266.94C86.1292 267.34 85.5959 267.66 84.9692 267.9C84.3559 268.127 83.6826 268.24 82.9492 268.24ZM94.7348 268.24C93.6948 268.24 92.7615 267.993 91.9348 267.5C91.1215 266.993 90.4748 266.313 89.9948 265.46C89.5282 264.607 89.2948 263.647 89.2948 262.58C89.2948 261.513 89.5348 260.553 90.0148 259.7C90.4948 258.847 91.1415 258.173 91.9548 257.68C92.7682 257.187 93.6882 256.94 94.7148 256.94C95.5815 256.94 96.3482 257.113 97.0148 257.46C97.6815 257.807 98.2082 258.287 98.5948 258.9L98.2548 259.42V252.86H100.495V268H98.3548V265.8L98.6148 266.22C98.2415 266.873 97.7082 267.373 97.0148 267.72C96.3215 268.067 95.5615 268.24 94.7348 268.24ZM94.9548 266.14C95.5815 266.14 96.1415 265.987 96.6348 265.68C97.1415 265.373 97.5348 264.953 97.8148 264.42C98.1082 263.873 98.2548 263.26 98.2548 262.58C98.2548 261.9 98.1082 261.293 97.8148 260.76C97.5348 260.227 97.1415 259.807 96.6348 259.5C96.1415 259.193 95.5815 259.04 94.9548 259.04C94.3282 259.04 93.7615 259.193 93.2548 259.5C92.7482 259.807 92.3548 260.227 92.0748 260.76C91.7948 261.293 91.6548 261.9 91.6548 262.58C91.6548 263.26 91.7948 263.873 92.0748 264.42C92.3548 264.953 92.7415 265.373 93.2348 265.68C93.7415 265.987 94.3148 266.14 94.9548 266.14ZM105.973 268.24C105.24 268.24 104.593 268.113 104.033 267.86C103.487 267.593 103.06 267.233 102.753 266.78C102.447 266.313 102.293 265.767 102.293 265.14C102.293 264.553 102.42 264.027 102.673 263.56C102.94 263.093 103.347 262.7 103.893 262.38C104.44 262.06 105.127 261.833 105.953 261.7L109.713 261.08V262.86L106.393 263.44C105.793 263.547 105.353 263.74 105.073 264.02C104.793 264.287 104.653 264.633 104.653 265.06C104.653 265.473 104.807 265.813 105.113 266.08C105.433 266.333 105.84 266.46 106.333 266.46C106.947 266.46 107.48 266.327 107.933 266.06C108.4 265.793 108.76 265.44 109.013 265C109.267 264.547 109.393 264.047 109.393 263.5V260.72C109.393 260.187 109.193 259.753 108.793 259.42C108.407 259.073 107.887 258.9 107.233 258.9C106.633 258.9 106.107 259.06 105.653 259.38C105.213 259.687 104.887 260.087 104.673 260.58L102.793 259.64C102.993 259.107 103.32 258.64 103.773 258.24C104.227 257.827 104.753 257.507 105.353 257.28C105.967 257.053 106.613 256.94 107.293 256.94C108.147 256.94 108.9 257.1 109.553 257.42C110.22 257.74 110.733 258.187 111.093 258.76C111.467 259.32 111.653 259.973 111.653 260.72V268H109.493V266.04L109.953 266.1C109.7 266.54 109.373 266.92 108.973 267.24C108.587 267.56 108.14 267.807 107.633 267.98C107.14 268.153 106.587 268.24 105.973 268.24ZM113.896 268V257.18H116.056V259.3L115.796 259.02C116.062 258.34 116.489 257.827 117.076 257.48C117.662 257.12 118.342 256.94 119.116 256.94C119.916 256.94 120.622 257.113 121.236 257.46C121.849 257.807 122.329 258.287 122.676 258.9C123.022 259.513 123.196 260.22 123.196 261.02V268H120.956V261.62C120.956 261.073 120.856 260.613 120.656 260.24C120.456 259.853 120.169 259.56 119.796 259.36C119.436 259.147 119.022 259.04 118.556 259.04C118.089 259.04 117.669 259.147 117.296 259.36C116.936 259.56 116.656 259.853 116.456 260.24C116.256 260.627 116.156 261.087 116.156 261.62V268H113.896Z" fill="#596780"/>
<path d="M134.587 271.2C133.493 269.92 132.667 268.52 132.107 267C131.547 265.48 131.267 263.86 131.267 262.14C131.267 260.407 131.547 258.78 132.107 257.26C132.667 255.74 133.493 254.353 134.587 253.1H136.487C135.54 254.5 134.82 255.96 134.327 257.48C133.847 258.987 133.607 260.54 133.607 262.14C133.607 263.727 133.847 265.287 134.327 266.82C134.82 268.34 135.54 269.8 136.487 271.2H134.587ZM137.698 268V266.3L141.778 261.94C142.578 261.087 143.205 260.4 143.658 259.88C144.125 259.347 144.458 258.88 144.658 258.48C144.872 258.08 144.978 257.66 144.978 257.22C144.978 256.5 144.758 255.947 144.318 255.56C143.878 255.16 143.312 254.96 142.618 254.96C141.898 254.96 141.278 255.167 140.758 255.58C140.238 255.98 139.878 256.567 139.678 257.34L137.598 256.74C137.758 255.953 138.078 255.273 138.558 254.7C139.038 254.113 139.625 253.66 140.318 253.34C141.025 253.02 141.785 252.86 142.598 252.86C143.545 252.86 144.372 253.04 145.078 253.4C145.785 253.747 146.332 254.233 146.718 254.86C147.118 255.487 147.318 256.213 147.318 257.04C147.318 257.587 147.212 258.12 146.998 258.64C146.798 259.147 146.485 259.687 146.058 260.26C145.632 260.82 145.085 261.453 144.418 262.16L140.818 266H147.598V268H137.698ZM155.432 268.24C154.245 268.24 153.205 267.92 152.312 267.28C151.418 266.627 150.718 265.727 150.212 264.58C149.718 263.42 149.472 262.073 149.472 260.54C149.472 258.993 149.718 257.647 150.212 256.5C150.718 255.353 151.412 254.46 152.292 253.82C153.185 253.18 154.225 252.86 155.412 252.86C156.598 252.86 157.632 253.18 158.512 253.82C159.405 254.46 160.098 255.36 160.592 256.52C161.098 257.667 161.352 259.007 161.352 260.54C161.352 262.073 161.105 263.42 160.612 264.58C160.118 265.727 159.425 266.627 158.532 267.28C157.652 267.92 156.618 268.24 155.432 268.24ZM155.432 266.08C156.165 266.08 156.798 265.853 157.332 265.4C157.865 264.947 158.278 264.307 158.572 263.48C158.865 262.653 159.012 261.673 159.012 260.54C159.012 259.407 158.865 258.427 158.572 257.6C158.278 256.773 157.865 256.133 157.332 255.68C156.798 255.227 156.158 255 155.412 255C154.678 255 154.045 255.227 153.512 255.68C152.978 256.133 152.565 256.773 152.272 257.6C151.978 258.427 151.832 259.407 151.832 260.54C151.832 261.66 151.978 262.64 152.272 263.48C152.565 264.307 152.978 264.947 153.512 265.4C154.058 265.853 154.698 266.08 155.432 266.08ZM162.788 271.2C163.748 269.8 164.468 268.34 164.948 266.82C165.428 265.287 165.668 263.727 165.668 262.14C165.668 260.54 165.428 258.987 164.948 257.48C164.468 255.96 163.748 254.5 162.788 253.1H164.688C165.795 254.353 166.628 255.74 167.188 257.26C167.748 258.78 168.028 260.407 168.028 262.14C168.028 263.86 167.748 265.48 167.188 267C166.628 268.52 165.795 269.92 164.688 271.2H162.788Z" fill="#90A3BF"/>
<path d="M53.5 311.809V311.81V320.19C53.5 321.91 52.9888 323.224 52.1057 324.106C51.2226 324.989 49.9086 325.5 48.1871 325.5H39.8129C38.0914 325.5 36.7775 324.989 35.8945 324.105C35.0114 323.222 34.5 321.906 34.5 320.18V311.81C34.5 310.09 35.0112 308.776 35.8942 307.894C36.7773 307.011 38.0914 306.5 39.8129 306.5H48.1971C49.9187 306.5 51.2325 307.011 52.1143 307.893C52.9959 308.776 53.5047 310.088 53.5 311.809Z" stroke="#90A3BF"/>
<path d="M72.48 324.24C71.4267 324.24 70.4467 324.047 69.54 323.66C68.6467 323.273 67.8667 322.74 67.2 322.06C66.5467 321.367 66.0333 320.553 65.66 319.62C65.2867 318.687 65.1 317.66 65.1 316.54C65.1 315.433 65.28 314.413 65.64 313.48C66.0133 312.533 66.5333 311.72 67.2 311.04C67.8667 310.347 68.6467 309.813 69.54 309.44C70.4333 309.053 71.4133 308.86 72.48 308.86C73.5333 308.86 74.4733 309.04 75.3 309.4C76.14 309.76 76.8467 310.233 77.42 310.82C77.9933 311.393 78.4067 312.02 78.66 312.7L76.54 313.7C76.22 312.9 75.7067 312.253 75 311.76C74.3067 311.253 73.4667 311 72.48 311C71.4933 311 70.62 311.233 69.86 311.7C69.1 312.167 68.5067 312.813 68.08 313.64C67.6667 314.467 67.46 315.433 67.46 316.54C67.46 317.647 67.6667 318.62 68.08 319.46C68.5067 320.287 69.1 320.933 69.86 321.4C70.62 321.853 71.4933 322.08 72.48 322.08C73.4667 322.08 74.3067 321.833 75 321.34C75.7067 320.847 76.22 320.2 76.54 319.4L78.66 320.4C78.4067 321.067 77.9933 321.693 77.42 322.28C76.8467 322.867 76.14 323.34 75.3 323.7C74.4733 324.06 73.5333 324.24 72.48 324.24ZM85.4916 324.24C84.4516 324.24 83.4982 323.993 82.6316 323.5C81.7782 323.007 81.0982 322.333 80.5916 321.48C80.0849 320.627 79.8316 319.66 79.8316 318.58C79.8316 317.487 80.0849 316.52 80.5916 315.68C81.0982 314.827 81.7782 314.16 82.6316 313.68C83.4849 313.187 84.4382 312.94 85.4916 312.94C86.5582 312.94 87.5116 313.187 88.3516 313.68C89.2049 314.16 89.8782 314.827 90.3716 315.68C90.8782 316.52 91.1316 317.487 91.1316 318.58C91.1316 319.673 90.8782 320.647 90.3716 321.5C89.8649 322.353 89.1849 323.027 88.3316 323.52C87.4782 324 86.5316 324.24 85.4916 324.24ZM85.4916 322.14C86.1316 322.14 86.6982 321.987 87.1916 321.68C87.6849 321.373 88.0716 320.953 88.3516 320.42C88.6449 319.873 88.7916 319.26 88.7916 318.58C88.7916 317.9 88.6449 317.293 88.3516 316.76C88.0716 316.227 87.6849 315.807 87.1916 315.5C86.6982 315.193 86.1316 315.04 85.4916 315.04C84.8649 315.04 84.2982 315.193 83.7916 315.5C83.2982 315.807 82.9049 316.227 82.6116 316.76C82.3316 317.293 82.1916 317.9 82.1916 318.58C82.1916 319.26 82.3316 319.873 82.6116 320.42C82.9049 320.953 83.2982 321.373 83.7916 321.68C84.2982 321.987 84.8649 322.14 85.4916 322.14ZM96.798 324.24C95.9846 324.24 95.2713 324.06 94.658 323.7C94.0446 323.327 93.5646 322.813 93.218 322.16C92.8846 321.493 92.718 320.727 92.718 319.86V313.18H94.978V319.66C94.978 320.153 95.078 320.587 95.278 320.96C95.478 321.333 95.758 321.627 96.118 321.84C96.478 322.04 96.8913 322.14 97.358 322.14C97.838 322.14 98.258 322.033 98.618 321.82C98.978 321.607 99.258 321.307 99.458 320.92C99.6713 320.533 99.778 320.08 99.778 319.56V313.18H102.018V324H99.878V321.88L100.118 322.16C99.8646 322.827 99.4446 323.34 98.858 323.7C98.2713 324.06 97.5846 324.24 96.798 324.24ZM104.257 328V313.18H106.417V315.42L106.157 314.9C106.557 314.287 107.09 313.807 107.757 313.46C108.423 313.113 109.183 312.94 110.037 312.94C111.063 312.94 111.983 313.187 112.797 313.68C113.623 314.173 114.27 314.847 114.737 315.7C115.217 316.553 115.457 317.513 115.457 318.58C115.457 319.647 115.217 320.607 114.737 321.46C114.27 322.313 113.63 322.993 112.817 323.5C112.003 323.993 111.077 324.24 110.037 324.24C109.197 324.24 108.43 324.067 107.737 323.72C107.057 323.373 106.53 322.873 106.157 322.22L106.517 321.8V328H104.257ZM109.817 322.14C110.457 322.14 111.023 321.987 111.517 321.68C112.01 321.373 112.397 320.953 112.677 320.42C112.97 319.873 113.117 319.26 113.117 318.58C113.117 317.9 112.97 317.293 112.677 316.76C112.397 316.227 112.01 315.807 111.517 315.5C111.023 315.193 110.457 315.04 109.817 315.04C109.19 315.04 108.623 315.193 108.117 315.5C107.623 315.807 107.23 316.227 106.937 316.76C106.657 317.293 106.517 317.9 106.517 318.58C106.517 319.26 106.657 319.873 106.937 320.42C107.23 320.953 107.623 321.373 108.117 321.68C108.623 321.987 109.19 322.14 109.817 322.14ZM122.335 324.24C121.255 324.24 120.295 323.993 119.455 323.5C118.628 322.993 117.982 322.313 117.515 321.46C117.048 320.593 116.815 319.627 116.815 318.56C116.815 317.467 117.048 316.5 117.515 315.66C117.995 314.82 118.635 314.16 119.435 313.68C120.235 313.187 121.142 312.94 122.155 312.94C122.968 312.94 123.695 313.08 124.335 313.36C124.975 313.64 125.515 314.027 125.955 314.52C126.395 315 126.728 315.553 126.955 316.18C127.195 316.807 127.315 317.473 127.315 318.18C127.315 318.353 127.308 318.533 127.295 318.72C127.282 318.907 127.255 319.08 127.215 319.24H118.595V317.44H125.935L124.855 318.26C124.988 317.607 124.942 317.027 124.715 316.52C124.502 316 124.168 315.593 123.715 315.3C123.275 314.993 122.755 314.84 122.155 314.84C121.555 314.84 121.022 314.993 120.555 315.3C120.088 315.593 119.728 316.02 119.475 316.58C119.222 317.127 119.122 317.793 119.175 318.58C119.108 319.313 119.208 319.953 119.475 320.5C119.755 321.047 120.142 321.473 120.635 321.78C121.142 322.087 121.715 322.24 122.355 322.24C123.008 322.24 123.562 322.093 124.015 321.8C124.482 321.507 124.848 321.127 125.115 320.66L126.955 321.56C126.742 322.067 126.408 322.527 125.955 322.94C125.515 323.34 124.982 323.66 124.355 323.9C123.742 324.127 123.068 324.24 122.335 324.24Z" fill="#596780"/>
<path d="M138.493 327.2C137.4 325.92 136.573 324.52 136.013 323C135.453 321.48 135.173 319.86 135.173 318.14C135.173 316.407 135.453 314.78 136.013 313.26C136.573 311.74 137.4 310.353 138.493 309.1H140.393C139.446 310.5 138.726 311.96 138.233 313.48C137.753 314.987 137.513 316.54 137.513 318.14C137.513 319.727 137.753 321.287 138.233 322.82C138.726 324.34 139.446 325.8 140.393 327.2H138.493ZM144.125 324V311.1H141.265V309.1H146.465V324H144.125ZM155.917 324V320.64H148.817V318.68L155.817 309.1H158.157V318.68H160.217V320.64H158.157V324H155.917ZM150.557 319.54L150.177 318.68H155.917V310.98L156.557 311.18L150.557 319.54ZM161.186 327.2C162.146 325.8 162.866 324.34 163.346 322.82C163.826 321.287 164.066 319.727 164.066 318.14C164.066 316.54 163.826 314.987 163.346 313.48C162.866 311.96 162.146 310.5 161.186 309.1H163.086C164.193 310.353 165.026 311.74 165.586 313.26C166.146 314.78 166.426 316.407 166.426 318.14C166.426 319.86 166.146 321.48 165.586 323C165.026 324.52 164.193 325.92 163.086 327.2H161.186Z" fill="#90A3BF"/>
<path d="M53.5 367.809V367.81V376.19C53.5 377.91 52.9888 379.224 52.1057 380.106C51.2226 380.989 49.9086 381.5 48.1871 381.5H39.8129C38.0914 381.5 36.7775 380.989 35.8945 380.105C35.0114 379.222 34.5 377.906 34.5 376.18V367.81C34.5 366.09 35.0112 364.776 35.8942 363.894C36.7773 363.011 38.0914 362.5 39.8129 362.5H48.1971C49.9187 362.5 51.2325 363.011 52.1143 363.893C52.9959 364.776 53.5047 366.088 53.5 367.809Z" stroke="#90A3BF"/>
<path d="M65.54 380V365.1H67.9V371.66H74.8V365.1H77.14V380H74.8V373.76H67.9V380H65.54ZM82.8475 380.24C82.1142 380.24 81.4675 380.113 80.9075 379.86C80.3608 379.593 79.9342 379.233 79.6275 378.78C79.3208 378.313 79.1675 377.767 79.1675 377.14C79.1675 376.553 79.2942 376.027 79.5475 375.56C79.8142 375.093 80.2208 374.7 80.7675 374.38C81.3142 374.06 82.0008 373.833 82.8275 373.7L86.5875 373.08V374.86L83.2675 375.44C82.6675 375.547 82.2275 375.74 81.9475 376.02C81.6675 376.287 81.5275 376.633 81.5275 377.06C81.5275 377.473 81.6808 377.813 81.9875 378.08C82.3075 378.333 82.7142 378.46 83.2075 378.46C83.8208 378.46 84.3542 378.327 84.8075 378.06C85.2742 377.793 85.6342 377.44 85.8875 377C86.1408 376.547 86.2675 376.047 86.2675 375.5V372.72C86.2675 372.187 86.0675 371.753 85.6675 371.42C85.2808 371.073 84.7608 370.9 84.1075 370.9C83.5075 370.9 82.9808 371.06 82.5275 371.38C82.0875 371.687 81.7608 372.087 81.5475 372.58L79.6675 371.64C79.8675 371.107 80.1942 370.64 80.6475 370.24C81.1008 369.827 81.6275 369.507 82.2275 369.28C82.8408 369.053 83.4875 368.94 84.1675 368.94C85.0208 368.94 85.7742 369.1 86.4275 369.42C87.0942 369.74 87.6075 370.187 87.9675 370.76C88.3408 371.32 88.5275 371.973 88.5275 372.72V380H86.3675V378.04L86.8275 378.1C86.5742 378.54 86.2475 378.92 85.8475 379.24C85.4608 379.56 85.0142 379.807 84.5075 379.98C84.0142 380.153 83.4608 380.24 82.8475 380.24ZM95.2547 380.12C94.1214 380.12 93.2414 379.8 92.6147 379.16C91.988 378.52 91.6747 377.62 91.6747 376.46V371.22H89.7747V369.18H90.0747C90.5814 369.18 90.9747 369.033 91.2547 368.74C91.5347 368.447 91.6747 368.047 91.6747 367.54V366.7H93.9347V369.18H96.3947V371.22H93.9347V376.36C93.9347 376.733 93.9947 377.053 94.1147 377.32C94.2347 377.573 94.428 377.773 94.6947 377.92C94.9614 378.053 95.308 378.12 95.7347 378.12C95.8414 378.12 95.9614 378.113 96.0947 378.1C96.228 378.087 96.3547 378.073 96.4747 378.06V380C96.288 380.027 96.0814 380.053 95.8547 380.08C95.628 380.107 95.428 380.12 95.2547 380.12ZM103.225 380.24C102.145 380.24 101.185 379.993 100.345 379.5C99.5182 378.993 98.8582 378.313 98.3648 377.46C97.8848 376.607 97.6448 375.64 97.6448 374.56C97.6448 373.493 97.8848 372.533 98.3648 371.68C98.8448 370.827 99.5048 370.16 100.345 369.68C101.185 369.187 102.145 368.94 103.225 368.94C103.958 368.94 104.645 369.073 105.285 369.34C105.925 369.593 106.478 369.947 106.945 370.4C107.425 370.853 107.778 371.38 108.005 371.98L106.025 372.9C105.798 372.34 105.432 371.893 104.925 371.56C104.432 371.213 103.865 371.04 103.225 371.04C102.612 371.04 102.058 371.193 101.565 371.5C101.085 371.793 100.705 372.213 100.425 372.76C100.145 373.293 100.005 373.9 100.005 374.58C100.005 375.26 100.145 375.873 100.425 376.42C100.705 376.953 101.085 377.373 101.565 377.68C102.058 377.987 102.612 378.14 103.225 378.14C103.878 378.14 104.445 377.973 104.925 377.64C105.418 377.293 105.785 376.833 106.025 376.26L108.005 377.2C107.792 377.773 107.445 378.293 106.965 378.76C106.498 379.213 105.945 379.573 105.305 379.84C104.665 380.107 103.972 380.24 103.225 380.24ZM109.814 380V364.86H112.074V371.3L111.714 371.02C111.98 370.34 112.407 369.827 112.994 369.48C113.58 369.12 114.26 368.94 115.034 368.94C115.834 368.94 116.54 369.113 117.154 369.46C117.767 369.807 118.247 370.287 118.594 370.9C118.94 371.513 119.114 372.213 119.114 373V380H116.874V373.62C116.874 373.073 116.767 372.613 116.554 372.24C116.354 371.853 116.074 371.56 115.714 371.36C115.354 371.147 114.94 371.04 114.474 371.04C114.02 371.04 113.607 371.147 113.234 371.36C112.874 371.56 112.587 371.853 112.374 372.24C112.174 372.627 112.074 373.087 112.074 373.62V380H109.814ZM126.913 380.24C126.073 380.24 125.306 380.067 124.613 379.72C123.933 379.373 123.406 378.873 123.033 378.22L123.293 377.8V380H121.132V364.86H123.393V371.42L123.033 370.9C123.433 370.287 123.966 369.807 124.633 369.46C125.299 369.113 126.059 368.94 126.913 368.94C127.939 368.94 128.859 369.187 129.673 369.68C130.499 370.173 131.146 370.847 131.613 371.7C132.093 372.553 132.333 373.513 132.333 374.58C132.333 375.647 132.093 376.607 131.613 377.46C131.146 378.313 130.506 378.993 129.693 379.5C128.879 379.993 127.953 380.24 126.913 380.24ZM126.693 378.14C127.333 378.14 127.899 377.987 128.393 377.68C128.886 377.373 129.273 376.953 129.553 376.42C129.846 375.873 129.993 375.26 129.993 374.58C129.993 373.9 129.846 373.293 129.553 372.76C129.273 372.227 128.886 371.807 128.393 371.5C127.899 371.193 127.333 371.04 126.693 371.04C126.066 371.04 125.499 371.193 124.993 371.5C124.499 371.807 124.106 372.227 123.813 372.76C123.533 373.293 123.393 373.9 123.393 374.58C123.393 375.26 123.533 375.873 123.813 376.42C124.106 376.953 124.499 377.373 124.993 377.68C125.499 377.987 126.066 378.14 126.693 378.14ZM137.371 380.24C136.638 380.24 135.991 380.113 135.431 379.86C134.884 379.593 134.458 379.233 134.151 378.78C133.844 378.313 133.691 377.767 133.691 377.14C133.691 376.553 133.818 376.027 134.071 375.56C134.338 375.093 134.744 374.7 135.291 374.38C135.838 374.06 136.524 373.833 137.351 373.7L141.111 373.08V374.86L137.791 375.44C137.191 375.547 136.751 375.74 136.471 376.02C136.191 376.287 136.051 376.633 136.051 377.06C136.051 377.473 136.204 377.813 136.511 378.08C136.831 378.333 137.238 378.46 137.731 378.46C138.344 378.46 138.878 378.327 139.331 378.06C139.798 377.793 140.158 377.44 140.411 377C140.664 376.547 140.791 376.047 140.791 375.5V372.72C140.791 372.187 140.591 371.753 140.191 371.42C139.804 371.073 139.284 370.9 138.631 370.9C138.031 370.9 137.504 371.06 137.051 371.38C136.611 371.687 136.284 372.087 136.071 372.58L134.191 371.64C134.391 371.107 134.718 370.64 135.171 370.24C135.624 369.827 136.151 369.507 136.751 369.28C137.364 369.053 138.011 368.94 138.691 368.94C139.544 368.94 140.298 369.1 140.951 369.42C141.618 369.74 142.131 370.187 142.491 370.76C142.864 371.32 143.051 371.973 143.051 372.72V380H140.891V378.04L141.351 378.1C141.098 378.54 140.771 378.92 140.371 379.24C139.984 379.56 139.538 379.807 139.031 379.98C138.538 380.153 137.984 380.24 137.371 380.24ZM150.433 380.24C149.353 380.24 148.393 379.993 147.553 379.5C146.727 378.993 146.067 378.313 145.573 377.46C145.093 376.607 144.853 375.64 144.853 374.56C144.853 373.493 145.093 372.533 145.573 371.68C146.053 370.827 146.713 370.16 147.553 369.68C148.393 369.187 149.353 368.94 150.433 368.94C151.167 368.94 151.853 369.073 152.493 369.34C153.133 369.593 153.687 369.947 154.153 370.4C154.633 370.853 154.987 371.38 155.213 371.98L153.233 372.9C153.007 372.34 152.64 371.893 152.133 371.56C151.64 371.213 151.073 371.04 150.433 371.04C149.82 371.04 149.267 371.193 148.773 371.5C148.293 371.793 147.913 372.213 147.633 372.76C147.353 373.293 147.213 373.9 147.213 374.58C147.213 375.26 147.353 375.873 147.633 376.42C147.913 376.953 148.293 377.373 148.773 377.68C149.267 377.987 149.82 378.14 150.433 378.14C151.087 378.14 151.653 377.973 152.133 377.64C152.627 377.293 152.993 376.833 153.233 376.26L155.213 377.2C155 377.773 154.653 378.293 154.173 378.76C153.707 379.213 153.153 379.573 152.513 379.84C151.873 380.107 151.18 380.24 150.433 380.24ZM157.022 380V364.86H159.282V375L158.402 374.78L163.822 369.18H166.642L162.562 373.52L166.822 380H164.222L160.422 374.26L161.762 374.08L158.562 377.48L159.282 375.98V380H157.022Z" fill="#596780"/>
<path d="M177.342 383.2C176.249 381.92 175.422 380.52 174.862 379C174.302 377.48 174.022 375.86 174.022 374.14C174.022 372.407 174.302 370.78 174.862 369.26C175.422 367.74 176.249 366.353 177.342 365.1H179.242C178.296 366.5 177.576 367.96 177.082 369.48C176.602 370.987 176.362 372.54 176.362 374.14C176.362 375.727 176.602 377.287 177.082 378.82C177.576 380.34 178.296 381.8 179.242 383.2H177.342ZM182.974 380V367.1H180.114V365.1H185.314V380H182.974ZM194.766 380V376.64H187.666V374.68L194.666 365.1H197.006V374.68H199.066V376.64H197.006V380H194.766ZM189.406 375.54L189.026 374.68H194.766V366.98L195.406 367.18L189.406 375.54ZM200.036 383.2C200.996 381.8 201.716 380.34 202.196 378.82C202.676 377.287 202.916 375.727 202.916 374.14C202.916 372.54 202.676 370.987 202.196 369.48C201.716 367.96 200.996 366.5 200.036 365.1H201.936C203.042 366.353 203.876 367.74 204.436 369.26C204.996 370.78 205.276 372.407 205.276 374.14C205.276 375.86 204.996 377.48 204.436 379C203.876 380.52 203.042 381.92 201.936 383.2H200.036Z" fill="#90A3BF"/>
<path d="M37.088 455.144C36.456 455.144 35.868 455.028 35.324 454.796C34.788 454.564 34.32 454.244 33.92 453.836C33.528 453.42 33.22 452.932 32.996 452.372C32.772 451.812 32.66 451.196 32.66 450.524C32.66 449.86 32.768 449.248 32.984 448.688C33.208 448.12 33.52 447.632 33.92 447.224C34.32 446.808 34.788 446.488 35.324 446.264C35.86 446.032 36.448 445.916 37.088 445.916C37.72 445.916 38.284 446.024 38.78 446.24C39.284 446.456 39.708 446.74 40.052 447.092C40.396 447.436 40.644 447.812 40.796 448.22L39.524 448.82C39.332 448.34 39.024 447.952 38.6 447.656C38.184 447.352 37.68 447.2 37.088 447.2C36.496 447.2 35.972 447.34 35.516 447.62C35.06 447.9 34.704 448.288 34.448 448.784C34.2 449.28 34.076 449.86 34.076 450.524C34.076 451.188 34.2 451.772 34.448 452.276C34.704 452.772 35.06 453.16 35.516 453.44C35.972 453.712 36.496 453.848 37.088 453.848C37.68 453.848 38.184 453.7 38.6 453.404C39.024 453.108 39.332 452.72 39.524 452.24L40.796 452.84C40.644 453.24 40.396 453.616 40.052 453.968C39.708 454.32 39.284 454.604 38.78 454.82C38.284 455.036 37.72 455.144 37.088 455.144ZM43.0778 455L46.2218 446.06H47.9738L51.1178 455H49.6058L48.9218 452.996H45.2858L44.5898 455H43.0778ZM45.6938 451.736H48.4898L46.9058 447.056H47.3018L45.6938 451.736ZM53.796 455V446.06H57.048C57.648 446.06 58.176 446.172 58.632 446.396C59.096 446.612 59.456 446.932 59.712 447.356C59.968 447.772 60.096 448.272 60.096 448.856C60.096 449.432 59.964 449.928 59.7 450.344C59.444 450.76 59.088 451.08 58.632 451.304C58.176 451.528 57.648 451.64 57.048 451.64H55.212V455H53.796ZM55.212 450.38H57.084C57.404 450.38 57.684 450.316 57.924 450.188C58.164 450.06 58.352 449.884 58.488 449.66C58.624 449.428 58.692 449.156 58.692 448.844C58.692 448.532 58.624 448.264 58.488 448.04C58.352 447.808 58.164 447.632 57.924 447.512C57.684 447.384 57.404 447.32 57.084 447.32H55.212V450.38ZM62.3795 455L65.5235 446.06H67.2755L70.4195 455H68.9075L68.2235 452.996H64.5875L63.8915 455H62.3795ZM64.9955 451.736H67.7915L66.2075 447.056H66.6035L64.9955 451.736ZM77.2618 455.144C76.6298 455.144 76.0418 455.028 75.4978 454.796C74.9618 454.564 74.4938 454.244 74.0938 453.836C73.7018 453.42 73.3938 452.932 73.1698 452.372C72.9458 451.812 72.8338 451.196 72.8338 450.524C72.8338 449.86 72.9418 449.248 73.1578 448.688C73.3818 448.12 73.6938 447.632 74.0938 447.224C74.4938 446.808 74.9618 446.488 75.4978 446.264C76.0338 446.032 76.6218 445.916 77.2618 445.916C77.8938 445.916 78.4578 446.024 78.9538 446.24C79.4578 446.456 79.8818 446.74 80.2258 447.092C80.5698 447.436 80.8178 447.812 80.9698 448.22L79.6978 448.82C79.5058 448.34 79.1978 447.952 78.7738 447.656C78.3578 447.352 77.8538 447.2 77.2618 447.2C76.6698 447.2 76.1458 447.34 75.6898 447.62C75.2338 447.9 74.8778 448.288 74.6218 448.784C74.3738 449.28 74.2498 449.86 74.2498 450.524C74.2498 451.188 74.3738 451.772 74.6218 452.276C74.8778 452.772 75.2338 453.16 75.6898 453.44C76.1458 453.712 76.6698 453.848 77.2618 453.848C77.8538 453.848 78.3578 453.7 78.7738 453.404C79.1978 453.108 79.5058 452.72 79.6978 452.24L80.9698 452.84C80.8178 453.24 80.5698 453.616 80.2258 453.968C79.8818 454.32 79.4578 454.604 78.9538 454.82C78.4578 455.036 77.8938 455.144 77.2618 455.144ZM84.0435 455V446.06H85.4595V455H84.0435ZM90.5147 455V447.32H88.1387V446.06H94.2587V447.32H91.9187V455H90.5147ZM99.2031 455V450.968L96.1431 446.06H97.7391L100.187 450.032H99.6231L102.059 446.06H103.655L100.607 450.968V455H99.2031Z" fill="#90A3BF"/>
<path d="M48.19 490H39.81C36.17 490 34 492.17 34 495.81V504.18C34 507.83 36.17 510 39.81 510H48.18C51.82 510 53.99 507.83 53.99 504.19V495.81C54 492.17 51.83 490 48.19 490ZM48.78 497.7L43.11 503.37C42.97 503.51 42.78 503.59 42.58 503.59C42.38 503.59 42.19 503.51 42.05 503.37L39.22 500.54C38.93 500.25 38.93 499.77 39.22 499.48C39.51 499.19 39.99 499.19 40.28 499.48L42.58 501.78L47.72 496.64C48.01 496.35 48.49 496.35 48.78 496.64C49.07 496.93 49.07 497.4 48.78 497.7Z" fill="#3563E9"/>
<path d="M65 508V506.3L69.08 501.94C69.88 501.087 70.5067 500.4 70.96 499.88C71.4267 499.347 71.76 498.88 71.96 498.48C72.1733 498.08 72.28 497.66 72.28 497.22C72.28 496.5 72.06 495.947 71.62 495.56C71.18 495.16 70.6133 494.96 69.92 494.96C69.2 494.96 68.58 495.167 68.06 495.58C67.54 495.98 67.18 496.567 66.98 497.34L64.9 496.74C65.06 495.953 65.38 495.273 65.86 494.7C66.34 494.113 66.9267 493.66 67.62 493.34C68.3267 493.02 69.0867 492.86 69.9 492.86C70.8467 492.86 71.6733 493.04 72.38 493.4C73.0867 493.747 73.6333 494.233 74.02 494.86C74.42 495.487 74.62 496.213 74.62 497.04C74.62 497.587 74.5133 498.12 74.3 498.64C74.1 499.147 73.7867 499.687 73.36 500.26C72.9333 500.82 72.3867 501.453 71.72 502.16L68.12 506H74.9V508H65ZM80.1892 508V493.1H85.6092C86.6092 493.1 87.4892 493.287 88.2492 493.66C89.0226 494.02 89.6226 494.553 90.0492 495.26C90.4759 495.953 90.6892 496.787 90.6892 497.76C90.6892 498.72 90.4692 499.547 90.0292 500.24C89.6026 500.933 89.0092 501.467 88.2492 501.84C87.4892 502.213 86.6092 502.4 85.6092 502.4H82.5492V508H80.1892ZM82.5492 500.3H85.6692C86.2026 500.3 86.6692 500.193 87.0692 499.98C87.4692 499.767 87.7826 499.473 88.0092 499.1C88.2359 498.713 88.3492 498.26 88.3492 497.74C88.3492 497.22 88.2359 496.773 88.0092 496.4C87.7826 496.013 87.4692 495.72 87.0692 495.52C86.6692 495.307 86.2026 495.2 85.6692 495.2H82.5492V500.3ZM97.1883 508.24C96.1083 508.24 95.1483 507.993 94.3083 507.5C93.4816 506.993 92.8349 506.313 92.3683 505.46C91.9016 504.593 91.6683 503.627 91.6683 502.56C91.6683 501.467 91.9016 500.5 92.3683 499.66C92.8483 498.82 93.4883 498.16 94.2883 497.68C95.0883 497.187 95.9949 496.94 97.0083 496.94C97.8216 496.94 98.5483 497.08 99.1883 497.36C99.8283 497.64 100.368 498.027 100.808 498.52C101.248 499 101.582 499.553 101.808 500.18C102.048 500.807 102.168 501.473 102.168 502.18C102.168 502.353 102.162 502.533 102.148 502.72C102.135 502.907 102.108 503.08 102.068 503.24H93.4483V501.44H100.788L99.7083 502.26C99.8416 501.607 99.7949 501.027 99.5683 500.52C99.3549 500 99.0216 499.593 98.5683 499.3C98.1283 498.993 97.6083 498.84 97.0083 498.84C96.4083 498.84 95.8749 498.993 95.4083 499.3C94.9416 499.593 94.5816 500.02 94.3283 500.58C94.0749 501.127 93.9749 501.793 94.0283 502.58C93.9616 503.313 94.0616 503.953 94.3283 504.5C94.6083 505.047 94.9949 505.473 95.4883 505.78C95.9949 506.087 96.5683 506.24 97.2083 506.24C97.8616 506.24 98.4149 506.093 98.8683 505.8C99.3349 505.507 99.7016 505.127 99.9683 504.66L101.808 505.56C101.595 506.067 101.262 506.527 100.808 506.94C100.368 507.34 99.8349 507.66 99.2083 507.9C98.5949 508.127 97.9216 508.24 97.1883 508.24ZM103.974 508V497.18H106.134V499.36L105.934 499.04C106.174 498.333 106.561 497.827 107.094 497.52C107.627 497.2 108.267 497.04 109.014 497.04H109.674V499.1H108.734C107.987 499.1 107.381 499.333 106.914 499.8C106.461 500.253 106.234 500.907 106.234 501.76V508H103.974ZM114.82 508.24C113.713 508.24 112.74 507.967 111.9 507.42C111.073 506.873 110.493 506.14 110.16 505.22L111.9 504.4C112.193 505.013 112.593 505.5 113.1 505.86C113.62 506.22 114.193 506.4 114.82 506.4C115.353 506.4 115.787 506.28 116.12 506.04C116.453 505.8 116.62 505.473 116.62 505.06C116.62 504.793 116.547 504.58 116.4 504.42C116.253 504.247 116.067 504.107 115.84 504C115.627 503.893 115.407 503.813 115.18 503.76L113.48 503.28C112.547 503.013 111.847 502.613 111.38 502.08C110.927 501.533 110.7 500.9 110.7 500.18C110.7 499.527 110.867 498.96 111.2 498.48C111.533 497.987 111.993 497.607 112.58 497.34C113.167 497.073 113.827 496.94 114.56 496.94C115.547 496.94 116.427 497.187 117.2 497.68C117.973 498.16 118.52 498.833 118.84 499.7L117.1 500.52C116.887 500 116.547 499.587 116.08 499.28C115.627 498.973 115.113 498.82 114.54 498.82C114.047 498.82 113.653 498.94 113.36 499.18C113.067 499.407 112.92 499.707 112.92 500.08C112.92 500.333 112.987 500.547 113.12 500.72C113.253 500.88 113.427 501.013 113.64 501.12C113.853 501.213 114.073 501.293 114.3 501.36L116.06 501.88C116.953 502.133 117.64 502.533 118.12 503.08C118.6 503.613 118.84 504.253 118.84 505C118.84 505.64 118.667 506.207 118.32 506.7C117.987 507.18 117.52 507.56 116.92 507.84C116.32 508.107 115.62 508.24 114.82 508.24ZM125.874 508.24C124.834 508.24 123.881 507.993 123.014 507.5C122.161 507.007 121.481 506.333 120.974 505.48C120.468 504.627 120.214 503.66 120.214 502.58C120.214 501.487 120.468 500.52 120.974 499.68C121.481 498.827 122.161 498.16 123.014 497.68C123.868 497.187 124.821 496.94 125.874 496.94C126.941 496.94 127.894 497.187 128.734 497.68C129.588 498.16 130.261 498.827 130.754 499.68C131.261 500.52 131.514 501.487 131.514 502.58C131.514 503.673 131.261 504.647 130.754 505.5C130.248 506.353 129.568 507.027 128.714 507.52C127.861 508 126.914 508.24 125.874 508.24ZM125.874 506.14C126.514 506.14 127.081 505.987 127.574 505.68C128.068 505.373 128.454 504.953 128.734 504.42C129.028 503.873 129.174 503.26 129.174 502.58C129.174 501.9 129.028 501.293 128.734 500.76C128.454 500.227 128.068 499.807 127.574 499.5C127.081 499.193 126.514 499.04 125.874 499.04C125.248 499.04 124.681 499.193 124.174 499.5C123.681 499.807 123.288 500.227 122.994 500.76C122.714 501.293 122.574 501.9 122.574 502.58C122.574 503.26 122.714 503.873 122.994 504.42C123.288 504.953 123.681 505.373 124.174 505.68C124.681 505.987 125.248 506.14 125.874 506.14ZM133.321 508V497.18H135.481V499.3L135.221 499.02C135.487 498.34 135.914 497.827 136.501 497.48C137.087 497.12 137.767 496.94 138.541 496.94C139.341 496.94 140.047 497.113 140.661 497.46C141.274 497.807 141.754 498.287 142.101 498.9C142.447 499.513 142.621 500.22 142.621 501.02V508H140.381V501.62C140.381 501.073 140.281 500.613 140.081 500.24C139.881 499.853 139.594 499.56 139.221 499.36C138.861 499.147 138.447 499.04 137.981 499.04C137.514 499.04 137.094 499.147 136.721 499.36C136.361 499.56 136.081 499.853 135.881 500.24C135.681 500.627 135.581 501.087 135.581 501.62V508H133.321Z" fill="#596780"/>
<path d="M154.012 511.2C152.918 509.92 152.092 508.52 151.532 507C150.972 505.48 150.692 503.86 150.692 502.14C150.692 500.407 150.972 498.78 151.532 497.26C152.092 495.74 152.918 494.353 154.012 493.1H155.912C154.965 494.5 154.245 495.96 153.752 497.48C153.272 498.987 153.032 500.54 153.032 502.14C153.032 503.727 153.272 505.287 153.752 506.82C154.245 508.34 154.965 509.8 155.912 511.2H154.012ZM159.643 508V495.1H156.783V493.1H161.983V508H159.643ZM170.735 508.24C169.549 508.24 168.509 507.92 167.615 507.28C166.722 506.627 166.022 505.727 165.515 504.58C165.022 503.42 164.775 502.073 164.775 500.54C164.775 498.993 165.022 497.647 165.515 496.5C166.022 495.353 166.715 494.46 167.595 493.82C168.489 493.18 169.529 492.86 170.715 492.86C171.902 492.86 172.935 493.18 173.815 493.82C174.709 494.46 175.402 495.36 175.895 496.52C176.402 497.667 176.655 499.007 176.655 500.54C176.655 502.073 176.409 503.42 175.915 504.58C175.422 505.727 174.729 506.627 173.835 507.28C172.955 507.92 171.922 508.24 170.735 508.24ZM170.735 506.08C171.469 506.08 172.102 505.853 172.635 505.4C173.169 504.947 173.582 504.307 173.875 503.48C174.169 502.653 174.315 501.673 174.315 500.54C174.315 499.407 174.169 498.427 173.875 497.6C173.582 496.773 173.169 496.133 172.635 495.68C172.102 495.227 171.462 495 170.715 495C169.982 495 169.349 495.227 168.815 495.68C168.282 496.133 167.869 496.773 167.575 497.6C167.282 498.427 167.135 499.407 167.135 500.54C167.135 501.66 167.282 502.64 167.575 503.48C167.869 504.307 168.282 504.947 168.815 505.4C169.362 505.853 170.002 506.08 170.735 506.08ZM178.092 511.2C179.052 509.8 179.772 508.34 180.252 506.82C180.732 505.287 180.972 503.727 180.972 502.14C180.972 500.54 180.732 498.987 180.252 497.48C179.772 495.96 179.052 494.5 178.092 493.1H179.992C181.099 494.353 181.932 495.74 182.492 497.26C183.052 498.78 183.332 500.407 183.332 502.14C183.332 503.86 183.052 505.48 182.492 507C181.932 508.52 181.099 509.92 179.992 511.2H178.092Z" fill="#90A3BF"/>
<path d="M53.5 551.809V551.81V560.19C53.5 561.91 52.9888 563.224 52.1057 564.106C51.2226 564.989 49.9086 565.5 48.1871 565.5H39.8129C38.0914 565.5 36.7775 564.989 35.8945 564.105C35.0114 563.222 34.5 561.906 34.5 560.18V551.81C34.5 550.09 35.0112 548.776 35.8942 547.894C36.7773 547.011 38.0914 546.5 39.8129 546.5H48.1971C49.9187 546.5 51.2325 547.011 52.1143 547.893C52.9959 548.776 53.5047 550.088 53.5 551.809Z" stroke="#90A3BF"/>
<path d="M71.88 564V560.64H64.78V558.68L71.78 549.1H74.12V558.68H76.18V560.64H74.12V564H71.88ZM66.52 559.54L66.14 558.68H71.88V550.98L72.52 551.18L66.52 559.54ZM81.1658 564V549.1H86.5858C87.5858 549.1 88.4658 549.287 89.2258 549.66C89.9991 550.02 90.5991 550.553 91.0258 551.26C91.4524 551.953 91.6658 552.787 91.6658 553.76C91.6658 554.72 91.4458 555.547 91.0058 556.24C90.5791 556.933 89.9858 557.467 89.2258 557.84C88.4658 558.213 87.5858 558.4 86.5858 558.4H83.5258V564H81.1658ZM83.5258 556.3H86.6458C87.1791 556.3 87.6458 556.193 88.0458 555.98C88.4458 555.767 88.7591 555.473 88.9858 555.1C89.2124 554.713 89.3258 554.26 89.3258 553.74C89.3258 553.22 89.2124 552.773 88.9858 552.4C88.7591 552.013 88.4458 551.72 88.0458 551.52C87.6458 551.307 87.1791 551.2 86.6458 551.2H83.5258V556.3ZM98.1648 564.24C97.0848 564.24 96.1248 563.993 95.2848 563.5C94.4582 562.993 93.8115 562.313 93.3448 561.46C92.8782 560.593 92.6448 559.627 92.6448 558.56C92.6448 557.467 92.8782 556.5 93.3448 555.66C93.8248 554.82 94.4648 554.16 95.2648 553.68C96.0648 553.187 96.9715 552.94 97.9848 552.94C98.7982 552.94 99.5248 553.08 100.165 553.36C100.805 553.64 101.345 554.027 101.785 554.52C102.225 555 102.558 555.553 102.785 556.18C103.025 556.807 103.145 557.473 103.145 558.18C103.145 558.353 103.138 558.533 103.125 558.72C103.112 558.907 103.085 559.08 103.045 559.24H94.4248V557.44H101.765L100.685 558.26C100.818 557.607 100.772 557.027 100.545 556.52C100.332 556 99.9982 555.593 99.5448 555.3C99.1048 554.993 98.5848 554.84 97.9848 554.84C97.3848 554.84 96.8515 554.993 96.3848 555.3C95.9182 555.593 95.5582 556.02 95.3048 556.58C95.0515 557.127 94.9515 557.793 95.0048 558.58C94.9382 559.313 95.0382 559.953 95.3048 560.5C95.5848 561.047 95.9715 561.473 96.4648 561.78C96.9715 562.087 97.5448 562.24 98.1848 562.24C98.8382 562.24 99.3915 562.093 99.8448 561.8C100.312 561.507 100.678 561.127 100.945 560.66L102.785 561.56C102.572 562.067 102.238 562.527 101.785 562.94C101.345 563.34 100.812 563.66 100.185 563.9C99.5715 564.127 98.8982 564.24 98.1648 564.24ZM104.95 564V553.18H107.11V555.36L106.91 555.04C107.15 554.333 107.537 553.827 108.07 553.52C108.604 553.2 109.244 553.04 109.99 553.04H110.65V555.1H109.71C108.964 555.1 108.357 555.333 107.89 555.8C107.437 556.253 107.21 556.907 107.21 557.76V564H104.95ZM115.797 564.24C114.69 564.24 113.717 563.967 112.877 563.42C112.05 562.873 111.47 562.14 111.137 561.22L112.877 560.4C113.17 561.013 113.57 561.5 114.077 561.86C114.597 562.22 115.17 562.4 115.797 562.4C116.33 562.4 116.763 562.28 117.097 562.04C117.43 561.8 117.597 561.473 117.597 561.06C117.597 560.793 117.523 560.58 117.377 560.42C117.23 560.247 117.043 560.107 116.817 560C116.603 559.893 116.383 559.813 116.157 559.76L114.457 559.28C113.523 559.013 112.823 558.613 112.357 558.08C111.903 557.533 111.677 556.9 111.677 556.18C111.677 555.527 111.843 554.96 112.177 554.48C112.51 553.987 112.97 553.607 113.557 553.34C114.143 553.073 114.803 552.94 115.537 552.94C116.523 552.94 117.403 553.187 118.177 553.68C118.95 554.16 119.497 554.833 119.817 555.7L118.077 556.52C117.863 556 117.523 555.587 117.057 555.28C116.603 554.973 116.09 554.82 115.517 554.82C115.023 554.82 114.63 554.94 114.337 555.18C114.043 555.407 113.897 555.707 113.897 556.08C113.897 556.333 113.963 556.547 114.097 556.72C114.23 556.88 114.403 557.013 114.617 557.12C114.83 557.213 115.05 557.293 115.277 557.36L117.037 557.88C117.93 558.133 118.617 558.533 119.097 559.08C119.577 559.613 119.817 560.253 119.817 561C119.817 561.64 119.643 562.207 119.297 562.7C118.963 563.18 118.497 563.56 117.897 563.84C117.297 564.107 116.597 564.24 115.797 564.24ZM126.851 564.24C125.811 564.24 124.858 563.993 123.991 563.5C123.138 563.007 122.458 562.333 121.951 561.48C121.444 560.627 121.191 559.66 121.191 558.58C121.191 557.487 121.444 556.52 121.951 555.68C122.458 554.827 123.138 554.16 123.991 553.68C124.844 553.187 125.798 552.94 126.851 552.94C127.918 552.94 128.871 553.187 129.711 553.68C130.564 554.16 131.238 554.827 131.731 555.68C132.238 556.52 132.491 557.487 132.491 558.58C132.491 559.673 132.238 560.647 131.731 561.5C131.224 562.353 130.544 563.027 129.691 563.52C128.838 564 127.891 564.24 126.851 564.24ZM126.851 562.14C127.491 562.14 128.058 561.987 128.551 561.68C129.044 561.373 129.431 560.953 129.711 560.42C130.004 559.873 130.151 559.26 130.151 558.58C130.151 557.9 130.004 557.293 129.711 556.76C129.431 556.227 129.044 555.807 128.551 555.5C128.058 555.193 127.491 555.04 126.851 555.04C126.224 555.04 125.658 555.193 125.151 555.5C124.658 555.807 124.264 556.227 123.971 556.76C123.691 557.293 123.551 557.9 123.551 558.58C123.551 559.26 123.691 559.873 123.971 560.42C124.264 560.953 124.658 561.373 125.151 561.68C125.658 561.987 126.224 562.14 126.851 562.14ZM134.297 564V553.18H136.457V555.3L136.197 555.02C136.464 554.34 136.891 553.827 137.477 553.48C138.064 553.12 138.744 552.94 139.517 552.94C140.317 552.94 141.024 553.113 141.637 553.46C142.251 553.807 142.731 554.287 143.077 554.9C143.424 555.513 143.597 556.22 143.597 557.02V564H141.357V557.62C141.357 557.073 141.257 556.613 141.057 556.24C140.857 555.853 140.571 555.56 140.197 555.36C139.837 555.147 139.424 555.04 138.957 555.04C138.491 555.04 138.071 555.147 137.697 555.36C137.337 555.56 137.057 555.853 136.857 556.24C136.657 556.627 136.557 557.087 136.557 557.62V564H134.297Z" fill="#596780"/>
<path d="M154.988 567.2C153.895 565.92 153.068 564.52 152.508 563C151.948 561.48 151.668 559.86 151.668 558.14C151.668 556.407 151.948 554.78 152.508 553.26C153.068 551.74 153.895 550.353 154.988 549.1H156.888C155.942 550.5 155.222 551.96 154.728 553.48C154.248 554.987 154.008 556.54 154.008 558.14C154.008 559.727 154.248 561.287 154.728 562.82C155.222 564.34 155.942 565.8 156.888 567.2H154.988ZM160.62 564V551.1H157.76V549.1H162.96V564H160.62ZM172.412 564V560.64H165.312V558.68L172.312 549.1H174.652V558.68H176.712V560.64H174.652V564H172.412ZM167.052 559.54L166.672 558.68H172.412V550.98L173.052 551.18L167.052 559.54ZM177.682 567.2C178.642 565.8 179.362 564.34 179.842 562.82C180.322 561.287 180.562 559.727 180.562 558.14C180.562 556.54 180.322 554.987 179.842 553.48C179.362 551.96 178.642 550.5 177.682 549.1H179.582C180.688 550.353 181.522 551.74 182.082 553.26C182.642 554.78 182.922 556.407 182.922 558.14C182.922 559.86 182.642 561.48 182.082 563C181.522 564.52 180.688 565.92 179.582 567.2H177.682Z" fill="#90A3BF"/>
<path d="M53.5 607.809V607.81V616.19C53.5 617.91 52.9888 619.224 52.1057 620.106C51.2226 620.989 49.9086 621.5 48.1871 621.5H39.8129C38.0914 621.5 36.7775 620.989 35.8945 620.105C35.0114 619.222 34.5 617.906 34.5 616.18V607.81C34.5 606.09 35.0112 604.776 35.8942 603.894C36.7773 603.011 38.0914 602.5 39.8129 602.5H48.1971C49.9187 602.5 51.2325 603.011 52.1143 603.893C52.9959 604.776 53.5047 606.088 53.5 607.809Z" stroke="#90A3BF"/>
<path d="M70.02 620.24C69.0467 620.24 68.18 620.027 67.42 619.6C66.66 619.173 66.06 618.587 65.62 617.84C65.1933 617.093 64.98 616.247 64.98 615.3C64.98 614.807 65.0333 614.313 65.14 613.82C65.2467 613.327 65.4333 612.813 65.7 612.28C65.98 611.747 66.3533 611.173 66.82 610.56L70.98 605.1H73.8L68.7 611.7L68.3 611.44C68.4867 611.227 68.6867 611.06 68.9 610.94C69.1267 610.82 69.36 610.733 69.6 610.68C69.8533 610.627 70.12 610.6 70.4 610.6C71.2933 610.6 72.0933 610.807 72.8 611.22C73.5067 611.633 74.06 612.193 74.46 612.9C74.8733 613.607 75.08 614.42 75.08 615.34C75.08 616.273 74.86 617.113 74.42 617.86C73.98 618.593 73.38 619.173 72.62 619.6C71.8733 620.027 71.0067 620.24 70.02 620.24ZM70.02 618.14C70.54 618.14 71 618.02 71.4 617.78C71.8 617.54 72.12 617.213 72.36 616.8C72.6 616.373 72.72 615.893 72.72 615.36C72.72 614.813 72.6 614.333 72.36 613.92C72.1333 613.507 71.8133 613.187 71.4 612.96C71 612.72 70.54 612.6 70.02 612.6C69.5133 612.6 69.0533 612.72 68.64 612.96C68.24 613.187 67.92 613.507 67.68 613.92C67.44 614.333 67.32 614.813 67.32 615.36C67.32 615.893 67.44 616.373 67.68 616.8C67.92 617.213 68.24 617.54 68.64 617.78C69.0533 618.02 69.5133 618.14 70.02 618.14ZM80.2478 620V605.1H85.6678C86.6678 605.1 87.5478 605.287 88.3078 605.66C89.0811 606.02 89.6811 606.553 90.1078 607.26C90.5345 607.953 90.7478 608.787 90.7478 609.76C90.7478 610.72 90.5278 611.547 90.0878 612.24C89.6611 612.933 89.0678 613.467 88.3078 613.84C87.5478 614.213 86.6678 614.4 85.6678 614.4H82.6078V620H80.2478ZM82.6078 612.3H85.7278C86.2611 612.3 86.7278 612.193 87.1278 611.98C87.5278 611.767 87.8411 611.473 88.0678 611.1C88.2945 610.713 88.4078 610.26 88.4078 609.74C88.4078 609.22 88.2945 608.773 88.0678 608.4C87.8411 608.013 87.5278 607.72 87.1278 607.52C86.7278 607.307 86.2611 607.2 85.7278 607.2H82.6078V612.3ZM97.2469 620.24C96.1669 620.24 95.2069 619.993 94.3669 619.5C93.5402 618.993 92.8935 618.313 92.4269 617.46C91.9602 616.593 91.7269 615.627 91.7269 614.56C91.7269 613.467 91.9602 612.5 92.4269 611.66C92.9069 610.82 93.5469 610.16 94.3469 609.68C95.1469 609.187 96.0535 608.94 97.0669 608.94C97.8802 608.94 98.6069 609.08 99.2469 609.36C99.8869 609.64 100.427 610.027 100.867 610.52C101.307 611 101.64 611.553 101.867 612.18C102.107 612.807 102.227 613.473 102.227 614.18C102.227 614.353 102.22 614.533 102.207 614.72C102.194 614.907 102.167 615.08 102.127 615.24H93.5069V613.44H100.847L99.7669 614.26C99.9002 613.607 99.8535 613.027 99.6269 612.52C99.4135 612 99.0802 611.593 98.6269 611.3C98.1869 610.993 97.6669 610.84 97.0669 610.84C96.4669 610.84 95.9335 610.993 95.4669 611.3C95.0002 611.593 94.6402 612.02 94.3869 612.58C94.1335 613.127 94.0335 613.793 94.0869 614.58C94.0202 615.313 94.1202 615.953 94.3869 616.5C94.6669 617.047 95.0535 617.473 95.5469 617.78C96.0535 618.087 96.6269 618.24 97.2669 618.24C97.9202 618.24 98.4735 618.093 98.9269 617.8C99.3935 617.507 99.7602 617.127 100.027 616.66L101.867 617.56C101.654 618.067 101.32 618.527 100.867 618.94C100.427 619.34 99.8935 619.66 99.2669 619.9C98.6535 620.127 97.9802 620.24 97.2469 620.24ZM104.033 620V609.18H106.193V611.36L105.993 611.04C106.233 610.333 106.619 609.827 107.153 609.52C107.686 609.2 108.326 609.04 109.073 609.04H109.733V611.1H108.793C108.046 611.1 107.439 611.333 106.973 611.8C106.519 612.253 106.293 612.907 106.293 613.76V620H104.033ZM114.879 620.24C113.772 620.24 112.799 619.967 111.959 619.42C111.132 618.873 110.552 618.14 110.219 617.22L111.959 616.4C112.252 617.013 112.652 617.5 113.159 617.86C113.679 618.22 114.252 618.4 114.879 618.4C115.412 618.4 115.845 618.28 116.179 618.04C116.512 617.8 116.679 617.473 116.679 617.06C116.679 616.793 116.605 616.58 116.459 616.42C116.312 616.247 116.125 616.107 115.899 616C115.685 615.893 115.465 615.813 115.239 615.76L113.539 615.28C112.605 615.013 111.905 614.613 111.439 614.08C110.985 613.533 110.759 612.9 110.759 612.18C110.759 611.527 110.925 610.96 111.259 610.48C111.592 609.987 112.052 609.607 112.639 609.34C113.225 609.073 113.885 608.94 114.619 608.94C115.605 608.94 116.485 609.187 117.259 609.68C118.032 610.16 118.579 610.833 118.899 611.7L117.159 612.52C116.945 612 116.605 611.587 116.139 611.28C115.685 610.973 115.172 610.82 114.599 610.82C114.105 610.82 113.712 610.94 113.419 611.18C113.125 611.407 112.979 611.707 112.979 612.08C112.979 612.333 113.045 612.547 113.179 612.72C113.312 612.88 113.485 613.013 113.699 613.12C113.912 613.213 114.132 613.293 114.359 613.36L116.119 613.88C117.012 614.133 117.699 614.533 118.179 615.08C118.659 615.613 118.899 616.253 118.899 617C118.899 617.64 118.725 618.207 118.379 618.7C118.045 619.18 117.579 619.56 116.979 619.84C116.379 620.107 115.679 620.24 114.879 620.24ZM125.933 620.24C124.893 620.24 123.94 619.993 123.073 619.5C122.22 619.007 121.54 618.333 121.033 617.48C120.526 616.627 120.273 615.66 120.273 614.58C120.273 613.487 120.526 612.52 121.033 611.68C121.54 610.827 122.22 610.16 123.073 609.68C123.926 609.187 124.88 608.94 125.933 608.94C127 608.94 127.953 609.187 128.793 609.68C129.646 610.16 130.32 610.827 130.813 611.68C131.32 612.52 131.573 613.487 131.573 614.58C131.573 615.673 131.32 616.647 130.813 617.5C130.306 618.353 129.626 619.027 128.773 619.52C127.92 620 126.973 620.24 125.933 620.24ZM125.933 618.14C126.573 618.14 127.14 617.987 127.633 617.68C128.126 617.373 128.513 616.953 128.793 616.42C129.086 615.873 129.233 615.26 129.233 614.58C129.233 613.9 129.086 613.293 128.793 612.76C128.513 612.227 128.126 611.807 127.633 611.5C127.14 611.193 126.573 611.04 125.933 611.04C125.306 611.04 124.74 611.193 124.233 611.5C123.74 611.807 123.346 612.227 123.053 612.76C122.773 613.293 122.633 613.9 122.633 614.58C122.633 615.26 122.773 615.873 123.053 616.42C123.346 616.953 123.74 617.373 124.233 617.68C124.74 617.987 125.306 618.14 125.933 618.14ZM133.379 620V609.18H135.539V611.3L135.279 611.02C135.546 610.34 135.973 609.827 136.559 609.48C137.146 609.12 137.826 608.94 138.599 608.94C139.399 608.94 140.106 609.113 140.719 609.46C141.333 609.807 141.813 610.287 142.159 610.9C142.506 611.513 142.679 612.22 142.679 613.02V620H140.439V613.62C140.439 613.073 140.339 612.613 140.139 612.24C139.939 611.853 139.653 611.56 139.279 611.36C138.919 611.147 138.506 611.04 138.039 611.04C137.573 611.04 137.153 611.147 136.779 611.36C136.419 611.56 136.139 611.853 135.939 612.24C135.739 612.627 135.639 613.087 135.639 613.62V620H133.379Z" fill="#596780"/>
<path d="M153.852 623C152.772 621.76 151.952 620.387 151.392 618.88C150.832 617.36 150.552 615.747 150.552 614.04C150.552 612.32 150.832 610.707 151.392 609.2C151.952 607.693 152.772 606.327 153.852 605.1H155.452C154.492 606.46 153.766 607.9 153.272 609.42C152.779 610.927 152.532 612.467 152.532 614.04C152.532 615.613 152.779 617.16 153.272 618.68C153.766 620.187 154.492 621.627 155.452 623H153.852ZM159.117 620V606.8H156.297V605.1H161.097V620H159.117ZM163.874 620V618.64L167.994 614.18C168.807 613.313 169.454 612.6 169.934 612.04C170.427 611.48 170.787 610.98 171.014 610.54C171.24 610.1 171.354 609.633 171.354 609.14C171.354 608.327 171.114 607.7 170.634 607.26C170.154 606.82 169.52 606.6 168.734 606.6C167.934 606.6 167.254 606.833 166.694 607.3C166.134 607.753 165.747 608.4 165.534 609.24L163.754 608.78C163.927 607.98 164.247 607.287 164.714 606.7C165.18 606.113 165.76 605.66 166.454 605.34C167.147 605.02 167.907 604.86 168.734 604.86C169.64 604.86 170.434 605.04 171.114 605.4C171.807 605.747 172.347 606.233 172.734 606.86C173.134 607.487 173.334 608.213 173.334 609.04C173.334 609.587 173.22 610.12 172.994 610.64C172.767 611.16 172.434 611.713 171.994 612.3C171.554 612.873 170.98 613.54 170.274 614.3L166.594 618.3H173.654V620H163.874ZM174.886 623C175.833 621.627 176.553 620.187 177.046 618.68C177.54 617.16 177.786 615.613 177.786 614.04C177.786 612.467 177.54 610.927 177.046 609.42C176.553 607.9 175.833 606.46 174.886 605.1H176.486C177.566 606.327 178.38 607.693 178.926 609.2C179.486 610.707 179.766 612.32 179.766 614.04C179.766 615.747 179.486 617.36 178.926 618.88C178.38 620.387 177.566 621.76 176.486 623H174.886Z" fill="#90A3BF"/>
<path d="M48.19 658H39.81C36.17 658 34 660.17 34 663.81V672.18C34 675.83 36.17 678 39.81 678H48.18C51.82 678 53.99 675.83 53.99 672.19V663.81C54 660.17 51.83 658 48.19 658ZM48.78 665.7L43.11 671.37C42.97 671.51 42.78 671.59 42.58 671.59C42.38 671.59 42.19 671.51 42.05 671.37L39.22 668.54C38.93 668.25 38.93 667.77 39.22 667.48C39.51 667.19 39.99 667.19 40.28 667.48L42.58 669.78L47.72 664.64C48.01 664.35 48.49 664.35 48.78 664.64C49.07 664.93 49.07 665.4 48.78 665.7Z" fill="#3563E9"/>
<path d="M70.3 676.24C69.26 676.24 68.3467 676.04 67.56 675.64C66.7867 675.227 66.1867 674.68 65.76 674C65.3333 673.307 65.12 672.54 65.12 671.7C65.12 670.74 65.38 669.913 65.9 669.22C66.4333 668.513 67.18 668 68.14 667.68L68.04 668.28C67.3333 668.013 66.7733 667.567 66.36 666.94C65.96 666.3 65.76 665.6 65.76 664.84C65.76 664.08 65.9533 663.4 66.34 662.8C66.74 662.2 67.28 661.727 67.96 661.38C68.6533 661.033 69.4333 660.86 70.3 660.86C71.18 660.86 71.96 661.033 72.64 661.38C73.32 661.713 73.8533 662.18 74.24 662.78C74.64 663.38 74.84 664.067 74.84 664.84C74.84 665.627 74.6333 666.333 74.22 666.96C73.82 667.573 73.2733 668.013 72.58 668.28L72.48 667.68C73.44 668.013 74.1867 668.527 74.72 669.22C75.2533 669.913 75.52 670.74 75.52 671.7C75.52 672.54 75.3 673.307 74.86 674C74.4333 674.68 73.8267 675.227 73.04 675.64C72.2533 676.04 71.34 676.24 70.3 676.24ZM70.3 674.24C70.8733 674.24 71.3733 674.133 71.8 673.92C72.2267 673.693 72.56 673.387 72.8 673C73.04 672.613 73.16 672.16 73.16 671.64C73.16 671.12 73.04 670.667 72.8 670.28C72.56 669.893 72.2267 669.593 71.8 669.38C71.3733 669.167 70.8733 669.06 70.3 669.06C69.74 669.06 69.2467 669.167 68.82 669.38C68.3933 669.593 68.06 669.893 67.82 670.28C67.58 670.667 67.46 671.12 67.46 671.64C67.46 672.16 67.58 672.613 67.82 673C68.06 673.387 68.3933 673.693 68.82 673.92C69.2467 674.133 69.74 674.24 70.3 674.24ZM70.3 667.06C70.7267 667.06 71.1 666.973 71.42 666.8C71.7533 666.613 72.0133 666.36 72.2 666.04C72.3867 665.72 72.48 665.36 72.48 664.96C72.48 664.547 72.3867 664.187 72.2 663.88C72.0133 663.56 71.7533 663.313 71.42 663.14C71.1 662.953 70.7267 662.86 70.3 662.86C69.8867 662.86 69.5133 662.953 69.18 663.14C68.8467 663.313 68.5867 663.56 68.4 663.88C68.2133 664.187 68.12 664.547 68.12 664.96C68.12 665.36 68.2133 665.72 68.4 666.04C68.5867 666.36 68.8467 666.613 69.18 666.8C69.5133 666.973 69.8867 667.06 70.3 667.06ZM85.8533 676.24C84.8133 676.24 83.8599 675.993 82.9933 675.5C82.1399 675.007 81.4599 674.333 80.9533 673.48C80.4466 672.627 80.1933 671.66 80.1933 670.58C80.1933 669.487 80.4466 668.52 80.9533 667.68C81.4599 666.827 82.1399 666.16 82.9933 665.68C83.8466 665.187 84.7999 664.94 85.8533 664.94C86.9199 664.94 87.8733 665.187 88.7133 665.68C89.5666 666.16 90.2399 666.827 90.7333 667.68C91.2399 668.52 91.4933 669.487 91.4933 670.58C91.4933 671.673 91.2399 672.647 90.7333 673.5C90.2266 674.353 89.5466 675.027 88.6933 675.52C87.8399 676 86.8933 676.24 85.8533 676.24ZM85.8533 674.14C86.4933 674.14 87.0599 673.987 87.5533 673.68C88.0466 673.373 88.4333 672.953 88.7133 672.42C89.0066 671.873 89.1533 671.26 89.1533 670.58C89.1533 669.9 89.0066 669.293 88.7133 668.76C88.4333 668.227 88.0466 667.807 87.5533 667.5C87.0599 667.193 86.4933 667.04 85.8533 667.04C85.2266 667.04 84.6599 667.193 84.1533 667.5C83.6599 667.807 83.2666 668.227 82.9733 668.76C82.6933 669.293 82.5533 669.9 82.5533 670.58C82.5533 671.26 82.6933 671.873 82.9733 672.42C83.2666 672.953 83.6599 673.373 84.1533 673.68C84.6599 673.987 85.2266 674.14 85.8533 674.14ZM93.2997 676V665.18H95.4597V667.36L95.2597 667.04C95.4997 666.333 95.8864 665.827 96.4197 665.52C96.953 665.2 97.593 665.04 98.3397 665.04H98.9997V667.1H98.0597C97.313 667.1 96.7064 667.333 96.2397 667.8C95.7864 668.253 95.5597 668.907 95.5597 669.76V676H93.2997ZM103.462 676V661.1H105.662L111.262 668.86H110.162L115.662 661.1H117.862V676H115.522V663.88L116.402 664.12L110.782 671.8H110.542L105.042 664.12L105.822 663.88V676H103.462ZM125.542 676.24C124.502 676.24 123.549 675.993 122.682 675.5C121.829 675.007 121.149 674.333 120.642 673.48C120.136 672.627 119.882 671.66 119.882 670.58C119.882 669.487 120.136 668.52 120.642 667.68C121.149 666.827 121.829 666.16 122.682 665.68C123.536 665.187 124.489 664.94 125.542 664.94C126.609 664.94 127.562 665.187 128.402 665.68C129.256 666.16 129.929 666.827 130.422 667.68C130.929 668.52 131.182 669.487 131.182 670.58C131.182 671.673 130.929 672.647 130.422 673.5C129.916 674.353 129.236 675.027 128.382 675.52C127.529 676 126.582 676.24 125.542 676.24ZM125.542 674.14C126.182 674.14 126.749 673.987 127.242 673.68C127.736 673.373 128.122 672.953 128.402 672.42C128.696 671.873 128.842 671.26 128.842 670.58C128.842 669.9 128.696 669.293 128.402 668.76C128.122 668.227 127.736 667.807 127.242 667.5C126.749 667.193 126.182 667.04 125.542 667.04C124.916 667.04 124.349 667.193 123.842 667.5C123.349 667.807 122.956 668.227 122.662 668.76C122.382 669.293 122.242 669.9 122.242 670.58C122.242 671.26 122.382 671.873 122.662 672.42C122.956 672.953 123.349 673.373 123.842 673.68C124.349 673.987 124.916 674.14 125.542 674.14ZM132.989 676V665.18H135.149V667.36L134.949 667.04C135.189 666.333 135.575 665.827 136.109 665.52C136.642 665.2 137.282 665.04 138.029 665.04H138.689V667.1H137.749C137.002 667.1 136.395 667.333 135.929 667.8C135.475 668.253 135.249 668.907 135.249 669.76V676H132.989ZM144.915 676.24C143.835 676.24 142.875 675.993 142.035 675.5C141.208 674.993 140.562 674.313 140.095 673.46C139.628 672.593 139.395 671.627 139.395 670.56C139.395 669.467 139.628 668.5 140.095 667.66C140.575 666.82 141.215 666.16 142.015 665.68C142.815 665.187 143.722 664.94 144.735 664.94C145.548 664.94 146.275 665.08 146.915 665.36C147.555 665.64 148.095 666.027 148.535 666.52C148.975 667 149.308 667.553 149.535 668.18C149.775 668.807 149.895 669.473 149.895 670.18C149.895 670.353 149.888 670.533 149.875 670.72C149.862 670.907 149.835 671.08 149.795 671.24H141.175V669.44H148.515L147.435 670.26C147.568 669.607 147.522 669.027 147.295 668.52C147.082 668 146.748 667.593 146.295 667.3C145.855 666.993 145.335 666.84 144.735 666.84C144.135 666.84 143.602 666.993 143.135 667.3C142.668 667.593 142.308 668.02 142.055 668.58C141.802 669.127 141.702 669.793 141.755 670.58C141.688 671.313 141.788 671.953 142.055 672.5C142.335 673.047 142.722 673.473 143.215 673.78C143.722 674.087 144.295 674.24 144.935 674.24C145.588 674.24 146.142 674.093 146.595 673.8C147.062 673.507 147.428 673.127 147.695 672.66L149.535 673.56C149.322 674.067 148.988 674.527 148.535 674.94C148.095 675.34 147.562 675.66 146.935 675.9C146.322 676.127 145.648 676.24 144.915 676.24Z" fill="#596780"/>
<path d="M161.073 679.2C159.979 677.92 159.153 676.52 158.593 675C158.033 673.48 157.753 671.86 157.753 670.14C157.753 668.407 158.033 666.78 158.593 665.26C159.153 663.74 159.979 662.353 161.073 661.1H162.973C162.026 662.5 161.306 663.96 160.813 665.48C160.333 666.987 160.093 668.54 160.093 670.14C160.093 671.727 160.333 673.287 160.813 674.82C161.306 676.34 162.026 677.8 162.973 679.2H161.073ZM166.704 676V663.1H163.844V661.1H169.044V676H166.704ZM176.441 676.24C175.468 676.24 174.601 676.027 173.841 675.6C173.081 675.173 172.481 674.587 172.041 673.84C171.614 673.093 171.401 672.247 171.401 671.3C171.401 670.807 171.454 670.313 171.561 669.82C171.668 669.327 171.854 668.813 172.121 668.28C172.401 667.747 172.774 667.173 173.241 666.56L177.401 661.1H180.221L175.121 667.7L174.721 667.44C174.908 667.227 175.108 667.06 175.321 666.94C175.548 666.82 175.781 666.733 176.021 666.68C176.274 666.627 176.541 666.6 176.821 666.6C177.714 666.6 178.514 666.807 179.221 667.22C179.928 667.633 180.481 668.193 180.881 668.9C181.294 669.607 181.501 670.42 181.501 671.34C181.501 672.273 181.281 673.113 180.841 673.86C180.401 674.593 179.801 675.173 179.041 675.6C178.294 676.027 177.428 676.24 176.441 676.24ZM176.441 674.14C176.961 674.14 177.421 674.02 177.821 673.78C178.221 673.54 178.541 673.213 178.781 672.8C179.021 672.373 179.141 671.893 179.141 671.36C179.141 670.813 179.021 670.333 178.781 669.92C178.554 669.507 178.234 669.187 177.821 668.96C177.421 668.72 176.961 668.6 176.441 668.6C175.934 668.6 175.474 668.72 175.061 668.96C174.661 669.187 174.341 669.507 174.101 669.92C173.861 670.333 173.741 670.813 173.741 671.36C173.741 671.893 173.861 672.373 174.101 672.8C174.341 673.213 174.661 673.54 175.061 673.78C175.474 674.02 175.934 674.14 176.441 674.14ZM182.653 679.2C183.613 677.8 184.333 676.34 184.813 674.82C185.293 673.287 185.533 671.727 185.533 670.14C185.533 668.54 185.293 666.987 184.813 665.48C184.333 663.96 183.613 662.5 182.653 661.1H184.553C185.659 662.353 186.493 663.74 187.053 665.26C187.613 666.78 187.893 668.407 187.893 670.14C187.893 671.86 187.613 673.48 187.053 675C186.493 676.52 185.659 677.92 184.553 679.2H182.653Z" fill="#90A3BF"/>
<path d="M32.924 751V742.06H36.176C36.776 742.06 37.304 742.172 37.76 742.396C38.224 742.612 38.584 742.932 38.84 743.356C39.096 743.772 39.224 744.272 39.224 744.856C39.224 745.432 39.092 745.928 38.828 746.344C38.572 746.76 38.216 747.08 37.76 747.304C37.304 747.528 36.776 747.64 36.176 747.64H34.34V751H32.924ZM34.34 746.38H36.212C36.532 746.38 36.812 746.316 37.052 746.188C37.292 746.06 37.48 745.884 37.616 745.66C37.752 745.428 37.82 745.156 37.82 744.844C37.82 744.532 37.752 744.264 37.616 744.04C37.48 743.808 37.292 743.632 37.052 743.512C36.812 743.384 36.532 743.32 36.212 743.32H34.34V746.38ZM42.2995 751V742.06H45.5515C46.1515 742.06 46.6795 742.172 47.1355 742.396C47.5915 742.612 47.9475 742.932 48.2035 743.356C48.4675 743.772 48.5995 744.272 48.5995 744.856C48.5995 745.472 48.4435 746 48.1315 746.44C47.8275 746.88 47.4155 747.2 46.8955 747.4L48.9595 751H47.3515L45.1555 747.1L46.0795 747.64H43.7155V751H42.2995ZM43.7155 746.38H45.5755C45.9035 746.38 46.1875 746.316 46.4275 746.188C46.6675 746.06 46.8515 745.884 46.9795 745.66C47.1155 745.428 47.1835 745.156 47.1835 744.844C47.1835 744.532 47.1155 744.264 46.9795 744.04C46.8515 743.808 46.6675 743.632 46.4275 743.512C46.1875 743.384 45.9035 743.32 45.5755 743.32H43.7155V746.38ZM51.7687 751V742.06H53.1847V751H51.7687ZM60.8199 751.144C60.1879 751.144 59.5999 751.028 59.0559 750.796C58.5199 750.564 58.0519 750.244 57.6519 749.836C57.2599 749.42 56.9519 748.932 56.7279 748.372C56.5039 747.812 56.3919 747.196 56.3919 746.524C56.3919 745.86 56.4999 745.248 56.7159 744.688C56.9399 744.12 57.2519 743.632 57.6519 743.224C58.0519 742.808 58.5199 742.488 59.0559 742.264C59.5919 742.032 60.1799 741.916 60.8199 741.916C61.4519 741.916 62.0159 742.024 62.5119 742.24C63.0159 742.456 63.4399 742.74 63.7839 743.092C64.1279 743.436 64.3759 743.812 64.5279 744.22L63.2559 744.82C63.0639 744.34 62.7559 743.952 62.3319 743.656C61.9159 743.352 61.4119 743.2 60.8199 743.2C60.2279 743.2 59.7039 743.34 59.2479 743.62C58.7919 743.9 58.4359 744.288 58.1799 744.784C57.9319 745.28 57.8079 745.86 57.8079 746.524C57.8079 747.188 57.9319 747.772 58.1799 748.276C58.4359 748.772 58.7919 749.16 59.2479 749.44C59.7039 749.712 60.2279 749.848 60.8199 749.848C61.4119 749.848 61.9159 749.7 62.3319 749.404C62.7559 749.108 63.0639 748.72 63.2559 748.24L64.5279 748.84C64.3759 749.24 64.1279 749.616 63.7839 749.968C63.4399 750.32 63.0159 750.604 62.5119 750.82C62.0159 751.036 61.4519 751.144 60.8199 751.144ZM67.6017 751V742.06H73.4937V743.32H69.0177V745.888H73.2537V747.148H69.0177V749.74H73.4937V751H67.6017Z" fill="#90A3BF"/>
<rect x="32" y="788" width="296" height="12" rx="6" fill="#90A3BF"/>
<rect x="32" y="788" width="220" height="12" rx="6" fill="#3563E9"/>
<circle cx="252" cy="794" r="10" fill="#3563E9" stroke="white" stroke-width="4"/>
<path d="M33.54 836V821.1H35.74L41.34 828.86H40.24L45.74 821.1H47.94V836H45.6V823.88L46.48 824.12L40.86 831.8H40.62L35.12 824.12L35.9 823.88V836H33.54ZM53.6405 836.24C52.9071 836.24 52.2605 836.113 51.7005 835.86C51.1538 835.593 50.7271 835.233 50.4205 834.78C50.1138 834.313 49.9605 833.767 49.9605 833.14C49.9605 832.553 50.0871 832.027 50.3405 831.56C50.6071 831.093 51.0138 830.7 51.5605 830.38C52.1071 830.06 52.7938 829.833 53.6205 829.7L57.3805 829.08V830.86L54.0605 831.44C53.4605 831.547 53.0205 831.74 52.7405 832.02C52.4605 832.287 52.3205 832.633 52.3205 833.06C52.3205 833.473 52.4738 833.813 52.7805 834.08C53.1005 834.333 53.5071 834.46 54.0005 834.46C54.6138 834.46 55.1471 834.327 55.6005 834.06C56.0671 833.793 56.4271 833.44 56.6805 833C56.9338 832.547 57.0605 832.047 57.0605 831.5V828.72C57.0605 828.187 56.8605 827.753 56.4605 827.42C56.0738 827.073 55.5538 826.9 54.9005 826.9C54.3005 826.9 53.7738 827.06 53.3205 827.38C52.8805 827.687 52.5538 828.087 52.3405 828.58L50.4605 827.64C50.6605 827.107 50.9871 826.64 51.4405 826.24C51.8938 825.827 52.4205 825.507 53.0205 825.28C53.6338 825.053 54.2805 824.94 54.9605 824.94C55.8138 824.94 56.5671 825.1 57.2205 825.42C57.8871 825.74 58.4005 826.187 58.7605 826.76C59.1338 827.32 59.3205 827.973 59.3205 828.72V836H57.1605V834.04L57.6205 834.1C57.3671 834.54 57.0405 834.92 56.6405 835.24C56.2538 835.56 55.8071 835.807 55.3005 835.98C54.8071 836.153 54.2538 836.24 53.6405 836.24ZM60.483 836L64.263 830.58L60.483 825.18H63.143L66.243 829.7H64.963L68.063 825.18H70.723L66.923 830.58L70.703 836H68.043L64.983 831.46H66.223L63.143 836H60.483ZM72.8661 836V833.4H75.1661V836H72.8661ZM86.9358 836.24C86.0024 836.24 85.1358 836.067 84.3358 835.72C83.5358 835.36 82.8558 834.873 82.2958 834.26C81.7358 833.647 81.3224 832.94 81.0558 832.14L83.0558 831.3C83.4158 832.22 83.9424 832.927 84.6358 833.42C85.3291 833.913 86.1291 834.16 87.0358 834.16C87.5691 834.16 88.0358 834.08 88.4358 833.92C88.8358 833.747 89.1424 833.507 89.3558 833.2C89.5824 832.893 89.6958 832.54 89.6958 832.14C89.6958 831.593 89.5424 831.16 89.2358 830.84C88.9291 830.52 88.4758 830.267 87.8758 830.08L85.0758 829.2C83.9558 828.853 83.1024 828.327 82.5158 827.62C81.9291 826.9 81.6358 826.06 81.6358 825.1C81.6358 824.26 81.8424 823.527 82.2558 822.9C82.6691 822.26 83.2358 821.76 83.9558 821.4C84.6891 821.04 85.5224 820.86 86.4558 820.86C87.3491 820.86 88.1624 821.02 88.8958 821.34C89.6291 821.647 90.2558 822.073 90.7758 822.62C91.3091 823.167 91.6958 823.8 91.9358 824.52L89.9758 825.38C89.6824 824.593 89.2224 823.987 88.5958 823.56C87.9824 823.133 87.2691 822.92 86.4558 822.92C85.9624 822.92 85.5291 823.007 85.1558 823.18C84.7824 823.34 84.4891 823.58 84.2758 823.9C84.0758 824.207 83.9758 824.567 83.9758 824.98C83.9758 825.46 84.1291 825.887 84.4358 826.26C84.7424 826.633 85.2091 826.913 85.8358 827.1L88.4358 827.92C89.6224 828.28 90.5158 828.8 91.1158 829.48C91.7158 830.147 92.0158 830.98 92.0158 831.98C92.0158 832.807 91.7958 833.54 91.3558 834.18C90.9291 834.82 90.3358 835.327 89.5758 835.7C88.8158 836.06 87.9358 836.24 86.9358 836.24ZM86.0158 838V819.1H87.6158V838H86.0158ZM96.245 836V823.1H93.385V821.1H98.585V836H96.245ZM107.337 836.24C106.15 836.24 105.11 835.92 104.217 835.28C103.324 834.627 102.624 833.727 102.117 832.58C101.624 831.42 101.377 830.073 101.377 828.54C101.377 826.993 101.624 825.647 102.117 824.5C102.624 823.353 103.317 822.46 104.197 821.82C105.09 821.18 106.13 820.86 107.317 820.86C108.504 820.86 109.537 821.18 110.417 821.82C111.31 822.46 112.004 823.36 112.497 824.52C113.004 825.667 113.257 827.007 113.257 828.54C113.257 830.073 113.01 831.42 112.517 832.58C112.024 833.727 111.33 834.627 110.437 835.28C109.557 835.92 108.524 836.24 107.337 836.24ZM107.337 834.08C108.07 834.08 108.704 833.853 109.237 833.4C109.77 832.947 110.184 832.307 110.477 831.48C110.77 830.653 110.917 829.673 110.917 828.54C110.917 827.407 110.77 826.427 110.477 825.6C110.184 824.773 109.77 824.133 109.237 823.68C108.704 823.227 108.064 823 107.317 823C106.584 823 105.95 823.227 105.417 823.68C104.884 824.133 104.47 824.773 104.177 825.6C103.884 826.427 103.737 827.407 103.737 828.54C103.737 829.66 103.884 830.64 104.177 831.48C104.47 832.307 104.884 832.947 105.417 833.4C105.964 833.853 106.604 834.08 107.337 834.08ZM121.253 836.24C120.067 836.24 119.027 835.92 118.133 835.28C117.24 834.627 116.54 833.727 116.033 832.58C115.54 831.42 115.293 830.073 115.293 828.54C115.293 826.993 115.54 825.647 116.033 824.5C116.54 823.353 117.233 822.46 118.113 821.82C119.007 821.18 120.047 820.86 121.233 820.86C122.42 820.86 123.453 821.18 124.333 821.82C125.227 822.46 125.92 823.36 126.413 824.52C126.92 825.667 127.173 827.007 127.173 828.54C127.173 830.073 126.927 831.42 126.433 832.58C125.94 833.727 125.247 834.627 124.353 835.28C123.473 835.92 122.44 836.24 121.253 836.24ZM121.253 834.08C121.987 834.08 122.62 833.853 123.153 833.4C123.687 832.947 124.1 832.307 124.393 831.48C124.687 830.653 124.833 829.673 124.833 828.54C124.833 827.407 124.687 826.427 124.393 825.6C124.1 824.773 123.687 824.133 123.153 823.68C122.62 823.227 121.98 823 121.233 823C120.5 823 119.867 823.227 119.333 823.68C118.8 824.133 118.387 824.773 118.093 825.6C117.8 826.427 117.653 827.407 117.653 828.54C117.653 829.66 117.8 830.64 118.093 831.48C118.387 832.307 118.8 832.947 119.333 833.4C119.88 833.853 120.52 834.08 121.253 834.08ZM130.31 836V833.4H132.61V836H130.31ZM141.703 836.24C140.517 836.24 139.477 835.92 138.583 835.28C137.69 834.627 136.99 833.727 136.483 832.58C135.99 831.42 135.743 830.073 135.743 828.54C135.743 826.993 135.99 825.647 136.483 824.5C136.99 823.353 137.683 822.46 138.563 821.82C139.457 821.18 140.497 820.86 141.683 820.86C142.87 820.86 143.903 821.18 144.783 821.82C145.677 822.46 146.37 823.36 146.863 824.52C147.37 825.667 147.623 827.007 147.623 828.54C147.623 830.073 147.377 831.42 146.883 832.58C146.39 833.727 145.697 834.627 144.803 835.28C143.923 835.92 142.89 836.24 141.703 836.24ZM141.703 834.08C142.437 834.08 143.07 833.853 143.603 833.4C144.137 832.947 144.55 832.307 144.843 831.48C145.137 830.653 145.283 829.673 145.283 828.54C145.283 827.407 145.137 826.427 144.843 825.6C144.55 824.773 144.137 824.133 143.603 823.68C143.07 823.227 142.43 823 141.683 823C140.95 823 140.317 823.227 139.783 823.68C139.25 824.133 138.837 824.773 138.543 825.6C138.25 826.427 138.103 827.407 138.103 828.54C138.103 829.66 138.25 830.64 138.543 831.48C138.837 832.307 139.25 832.947 139.783 833.4C140.33 833.853 140.97 834.08 141.703 834.08ZM155.62 836.24C154.433 836.24 153.393 835.92 152.5 835.28C151.607 834.627 150.907 833.727 150.4 832.58C149.907 831.42 149.66 830.073 149.66 828.54C149.66 826.993 149.907 825.647 150.4 824.5C150.907 823.353 151.6 822.46 152.48 821.82C153.373 821.18 154.413 820.86 155.6 820.86C156.787 820.86 157.82 821.18 158.7 821.82C159.593 822.46 160.287 823.36 160.78 824.52C161.287 825.667 161.54 827.007 161.54 828.54C161.54 830.073 161.293 831.42 160.8 832.58C160.307 833.727 159.613 834.627 158.72 835.28C157.84 835.92 156.807 836.24 155.62 836.24ZM155.62 834.08C156.353 834.08 156.987 833.853 157.52 833.4C158.053 832.947 158.467 832.307 158.76 831.48C159.053 830.653 159.2 829.673 159.2 828.54C159.2 827.407 159.053 826.427 158.76 825.6C158.467 824.773 158.053 824.133 157.52 823.68C156.987 823.227 156.347 823 155.6 823C154.867 823 154.233 823.227 153.7 823.68C153.167 824.133 152.753 824.773 152.46 825.6C152.167 826.427 152.02 827.407 152.02 828.54C152.02 829.66 152.167 830.64 152.46 831.48C152.753 832.307 153.167 832.947 153.7 833.4C154.247 833.853 154.887 834.08 155.62 834.08Z" fill="#596780"/>
</svg>
