<svg width="486" height="132" viewBox="0 0 486 132" fill="none" xmlns="http://www.w3.org/2000/svg">
<g clip-path="url(#clip0_35_7682)">
<rect width="486" height="136" rx="10" fill="white"/>
<rect x="24" y="26" width="16" height="16" rx="8" fill="#3563E9" fill-opacity="0.3"/>
<circle cx="32" cy="34" r="4" fill="#3563E9"/>
<path d="M49.232 41V29.08H53.568C54.368 29.08 55.072 29.2293 55.68 29.528C56.2987 29.816 56.7787 30.2427 57.12 30.808C57.4613 31.3627 57.632 32.0293 57.632 32.808C57.632 33.576 57.456 34.2373 57.104 34.792C56.7627 35.3467 56.288 35.7733 55.68 36.072C55.072 36.3707 54.368 36.52 53.568 36.52H51.12V41H49.232ZM51.12 34.84H53.616C54.0427 34.84 54.416 34.7547 54.736 34.584C55.056 34.4133 55.3067 34.1787 55.488 33.88C55.6693 33.5707 55.76 33.208 55.76 32.792C55.76 32.376 55.6693 32.0187 55.488 31.72C55.3067 31.4107 55.056 31.176 54.736 31.016C54.416 30.8453 54.0427 30.76 53.616 30.76H51.12V34.84ZM59.0798 41V32.344H60.8878V41H59.0798ZM59.0798 31.16V29.08H60.8878V31.16H59.0798ZM66.7936 41.192C65.9296 41.192 65.1616 40.9947 64.4896 40.6C63.8283 40.1947 63.3003 39.6507 62.9056 38.968C62.5216 38.2853 62.3296 37.512 62.3296 36.648C62.3296 35.7947 62.5216 35.0267 62.9056 34.344C63.2896 33.6613 63.8176 33.128 64.4896 32.744C65.1616 32.3493 65.9296 32.152 66.7936 32.152C67.3803 32.152 67.9296 32.2587 68.4416 32.472C68.9536 32.6747 69.3963 32.9573 69.7696 33.32C70.1536 33.6827 70.4363 34.104 70.6176 34.584L69.0336 35.32C68.8523 34.872 68.559 34.5147 68.1536 34.248C67.759 33.9707 67.3056 33.832 66.7936 33.832C66.303 33.832 65.8603 33.9547 65.4656 34.2C65.0816 34.4347 64.7776 34.7707 64.5536 35.208C64.3296 35.6347 64.2176 36.12 64.2176 36.664C64.2176 37.208 64.3296 37.6987 64.5536 38.136C64.7776 38.5627 65.0816 38.8987 65.4656 39.144C65.8603 39.3893 66.303 39.512 66.7936 39.512C67.3163 39.512 67.7696 39.3787 68.1536 39.112C68.5483 38.8347 68.8416 38.4667 69.0336 38.008L70.6176 38.76C70.447 39.2187 70.1696 39.6347 69.7856 40.008C69.4123 40.3707 68.9696 40.6587 68.4576 40.872C67.9456 41.0853 67.391 41.192 66.7936 41.192ZM72.0648 41V28.888H73.8728V37L73.1688 36.824L77.5048 32.344H79.7608L76.4968 35.816L79.9048 41H77.8248L74.7848 36.408L75.8568 36.264L73.2968 38.984L73.8728 37.784V41H72.0648ZM83.5718 37.464V35.864H89.9718V37.464H83.5718ZM99.1591 41.192C98.2738 41.192 97.4845 41.0053 96.7911 40.632C96.1085 40.2587 95.5698 39.7467 95.1751 39.096C94.7911 38.4453 94.5991 37.704 94.5991 36.872V29.08H96.4871V36.792C96.4871 37.3147 96.5991 37.7787 96.8231 38.184C97.0578 38.5893 97.3725 38.904 97.7671 39.128C98.1725 39.352 98.6365 39.464 99.1591 39.464C99.6925 39.464 100.156 39.352 100.551 39.128C100.956 38.904 101.271 38.5893 101.495 38.184C101.73 37.7787 101.847 37.3147 101.847 36.792V29.08H103.719V36.872C103.719 37.704 103.527 38.4453 103.143 39.096C102.759 39.7467 102.22 40.2587 101.527 40.632C100.844 41.0053 100.055 41.192 99.1591 41.192ZM105.59 44.2V32.344H107.318V34.136L107.11 33.72C107.43 33.2293 107.856 32.8453 108.39 32.568C108.923 32.2907 109.531 32.152 110.214 32.152C111.035 32.152 111.771 32.3493 112.422 32.744C113.083 33.1387 113.6 33.6773 113.974 34.36C114.358 35.0427 114.55 35.8107 114.55 36.664C114.55 37.5173 114.358 38.2853 113.974 38.968C113.6 39.6507 113.088 40.1947 112.438 40.6C111.787 40.9947 111.046 41.192 110.214 41.192C109.542 41.192 108.928 41.0533 108.374 40.776C107.83 40.4987 107.408 40.0987 107.11 39.576L107.398 39.24V44.2H105.59ZM110.038 39.512C110.55 39.512 111.003 39.3893 111.398 39.144C111.792 38.8987 112.102 38.5627 112.326 38.136C112.56 37.6987 112.678 37.208 112.678 36.664C112.678 36.12 112.56 35.6347 112.326 35.208C112.102 34.7813 111.792 34.4453 111.398 34.2C111.003 33.9547 110.55 33.832 110.038 33.832C109.536 33.832 109.083 33.9547 108.678 34.2C108.283 34.4453 107.968 34.7813 107.734 35.208C107.51 35.6347 107.398 36.12 107.398 36.664C107.398 37.208 107.51 37.6987 107.734 38.136C107.968 38.5627 108.283 38.8987 108.678 39.144C109.083 39.3893 109.536 39.512 110.038 39.512Z" fill="#1A202C"/>
<path d="M25.152 77V65.08H27.328V75.08H32.432V77H25.152ZM37.5995 77.192C36.7462 77.192 35.9675 76.9947 35.2635 76.6C34.5702 76.2053 34.0155 75.6667 33.5995 74.984C33.1942 74.3013 32.9915 73.5227 32.9915 72.648C32.9915 71.7733 33.1942 70.9947 33.5995 70.312C34.0155 69.6293 34.5702 69.0907 35.2635 68.696C35.9568 68.3013 36.7355 68.104 37.5995 68.104C38.4528 68.104 39.2262 68.3013 39.9195 68.696C40.6128 69.0907 41.1622 69.6293 41.5675 70.312C41.9835 70.984 42.1915 71.7627 42.1915 72.648C42.1915 73.5227 41.9835 74.3013 41.5675 74.984C41.1515 75.6667 40.5968 76.2053 39.9035 76.6C39.2102 76.9947 38.4422 77.192 37.5995 77.192ZM37.5995 75.272C38.0688 75.272 38.4795 75.16 38.8315 74.936C39.1942 74.712 39.4768 74.4027 39.6795 74.008C39.8928 73.6027 39.9995 73.1493 39.9995 72.648C39.9995 72.136 39.8928 71.688 39.6795 71.304C39.4768 70.9093 39.1942 70.6 38.8315 70.376C38.4795 70.1413 38.0688 70.024 37.5995 70.024C37.1195 70.024 36.6982 70.1413 36.3355 70.376C35.9728 70.6 35.6848 70.9093 35.4715 71.304C35.2688 71.688 35.1675 72.136 35.1675 72.648C35.1675 73.1493 35.2688 73.6027 35.4715 74.008C35.6848 74.4027 35.9728 74.712 36.3355 74.936C36.6982 75.16 37.1195 75.272 37.5995 75.272ZM47.653 77.192C46.789 77.192 46.0103 76.9947 45.317 76.6C44.6343 76.1947 44.0957 75.6507 43.701 74.968C43.3063 74.2747 43.109 73.496 43.109 72.632C43.109 71.768 43.3063 70.9947 43.701 70.312C44.0957 69.6293 44.6343 69.0907 45.317 68.696C46.0103 68.3013 46.789 68.104 47.653 68.104C48.2717 68.104 48.8477 68.216 49.381 68.44C49.9143 68.6533 50.373 68.952 50.757 69.336C51.1517 69.7093 51.4343 70.1573 51.605 70.68L49.765 71.48C49.605 71.0427 49.333 70.6907 48.949 70.424C48.5757 70.1573 48.1437 70.024 47.653 70.024C47.1943 70.024 46.7837 70.136 46.421 70.36C46.069 70.584 45.7917 70.8933 45.589 71.288C45.3863 71.6827 45.285 72.136 45.285 72.648C45.285 73.16 45.3863 73.6133 45.589 74.008C45.7917 74.4027 46.069 74.712 46.421 74.936C46.7837 75.16 47.1943 75.272 47.653 75.272C48.1543 75.272 48.5917 75.1387 48.965 74.872C49.3383 74.6053 49.605 74.248 49.765 73.8L51.605 74.632C51.4343 75.1227 51.157 75.5653 50.773 75.96C50.389 76.344 49.9303 76.648 49.397 76.872C48.8637 77.0853 48.2823 77.192 47.653 77.192ZM55.4841 77.192C54.8761 77.192 54.3481 77.0907 53.9001 76.888C53.4521 76.6853 53.1055 76.3973 52.8601 76.024C52.6148 75.64 52.4921 75.1973 52.4921 74.696C52.4921 74.216 52.5988 73.7893 52.8121 73.416C53.0255 73.032 53.3561 72.712 53.8041 72.456C54.2521 72.2 54.8175 72.0187 55.5001 71.912L58.3481 71.448V73.048L55.9001 73.464C55.4841 73.5387 55.1748 73.672 54.9721 73.864C54.7695 74.056 54.6681 74.3067 54.6681 74.616C54.6681 74.9147 54.7801 75.1547 55.0041 75.336C55.2388 75.5067 55.5268 75.592 55.8681 75.592C56.3055 75.592 56.6895 75.5013 57.0201 75.32C57.3615 75.128 57.6228 74.8667 57.8041 74.536C57.9961 74.2053 58.0921 73.8427 58.0921 73.448V71.208C58.0921 70.8347 57.9428 70.5253 57.6441 70.28C57.3561 70.024 56.9721 69.896 56.4921 69.896C56.0441 69.896 55.6441 70.0187 55.2921 70.264C54.9508 70.4987 54.7001 70.8133 54.5401 71.208L52.8281 70.376C52.9988 69.9173 53.2655 69.5227 53.6281 69.192C54.0015 68.8507 54.4388 68.584 54.9401 68.392C55.4415 68.2 55.9855 68.104 56.5721 68.104C57.2868 68.104 57.9161 68.2373 58.4601 68.504C59.0041 68.76 59.4255 69.1227 59.7241 69.592C60.0335 70.0507 60.1881 70.5893 60.1881 71.208V77H58.2041V75.512L58.6521 75.48C58.4281 75.8533 58.1615 76.168 57.8521 76.424C57.5428 76.6693 57.1908 76.8613 56.7961 77C56.4015 77.128 55.9641 77.192 55.4841 77.192ZM65.6171 77.096C64.6358 77.096 63.8731 76.8293 63.3291 76.296C62.7958 75.752 62.5291 74.9893 62.5291 74.008V70.168H61.0251V68.296H61.1851C61.6118 68.296 61.9425 68.184 62.1771 67.96C62.4118 67.736 62.5291 67.4107 62.5291 66.984V66.312H64.6251V68.296H66.6251V70.168H64.6251V73.896C64.6251 74.184 64.6731 74.4293 64.7691 74.632C64.8758 74.8347 65.0358 74.9893 65.2491 75.096C65.4731 75.2027 65.7558 75.256 66.0971 75.256C66.1718 75.256 66.2571 75.2507 66.3531 75.24C66.4598 75.2293 66.5611 75.2187 66.6571 75.208V77C66.5078 77.0213 66.3371 77.0427 66.1451 77.064C65.9531 77.0853 65.7771 77.096 65.6171 77.096ZM67.9385 77V68.296H70.0345V77H67.9385ZM67.9385 67.32V65.08H70.0345V67.32H67.9385ZM75.9058 77.192C75.0524 77.192 74.2738 76.9947 73.5698 76.6C72.8764 76.2053 72.3218 75.6667 71.9058 74.984C71.5004 74.3013 71.2978 73.5227 71.2978 72.648C71.2978 71.7733 71.5004 70.9947 71.9058 70.312C72.3218 69.6293 72.8764 69.0907 73.5698 68.696C74.2631 68.3013 75.0418 68.104 75.9058 68.104C76.7591 68.104 77.5324 68.3013 78.2258 68.696C78.9191 69.0907 79.4684 69.6293 79.8738 70.312C80.2898 70.984 80.4978 71.7627 80.4978 72.648C80.4978 73.5227 80.2898 74.3013 79.8738 74.984C79.4578 75.6667 78.9031 76.2053 78.2098 76.6C77.5164 76.9947 76.7484 77.192 75.9058 77.192ZM75.9058 75.272C76.3751 75.272 76.7858 75.16 77.1378 74.936C77.5004 74.712 77.7831 74.4027 77.9858 74.008C78.1991 73.6027 78.3058 73.1493 78.3058 72.648C78.3058 72.136 78.1991 71.688 77.9858 71.304C77.7831 70.9093 77.5004 70.6 77.1378 70.376C76.7858 70.1413 76.3751 70.024 75.9058 70.024C75.4258 70.024 75.0044 70.1413 74.6418 70.376C74.2791 70.6 73.9911 70.9093 73.7778 71.304C73.5751 71.688 73.4738 72.136 73.4738 72.648C73.4738 73.1493 73.5751 73.6027 73.7778 74.008C73.9911 74.4027 74.2791 74.712 74.6418 74.936C75.0044 75.16 75.4258 75.272 75.9058 75.272ZM81.7672 77V68.296H83.7352V70.008L83.5752 69.704C83.7779 69.1813 84.1086 68.7867 84.5672 68.52C85.0366 68.2427 85.5806 68.104 86.1992 68.104C86.8392 68.104 87.4046 68.2427 87.8952 68.52C88.3966 68.7973 88.7859 69.1867 89.0632 69.688C89.3406 70.1787 89.4792 70.7493 89.4792 71.4V77H87.3832V71.896C87.3832 71.512 87.3086 71.1813 87.1592 70.904C87.0099 70.6267 86.8019 70.4133 86.5352 70.264C86.2792 70.104 85.9752 70.024 85.6232 70.024C85.2819 70.024 84.9779 70.104 84.7112 70.264C84.4446 70.4133 84.2366 70.6267 84.0872 70.904C83.9379 71.1813 83.8632 71.512 83.8632 71.896V77H81.7672ZM94.2436 77.192C93.3156 77.192 92.505 76.9733 91.8116 76.536C91.129 76.088 90.6596 75.4853 90.4036 74.728L91.9716 73.976C92.1956 74.4667 92.505 74.8507 92.8996 75.128C93.305 75.4053 93.753 75.544 94.2436 75.544C94.6276 75.544 94.9316 75.4587 95.1556 75.288C95.3796 75.1173 95.4916 74.8933 95.4916 74.616C95.4916 74.4453 95.4436 74.3067 95.3476 74.2C95.2623 74.0827 95.1396 73.9867 94.9796 73.912C94.8303 73.8267 94.665 73.7573 94.4836 73.704L93.0596 73.304C92.3236 73.0907 91.7636 72.7653 91.3796 72.328C91.0063 71.8907 90.8196 71.3733 90.8196 70.776C90.8196 70.2427 90.953 69.7787 91.2196 69.384C91.497 68.9787 91.8756 68.664 92.3556 68.44C92.8463 68.216 93.4063 68.104 94.0356 68.104C94.857 68.104 95.5823 68.3013 96.2116 68.696C96.841 69.0907 97.289 69.6453 97.5556 70.36L95.9556 71.112C95.8063 70.7173 95.5556 70.4027 95.2036 70.168C94.8516 69.9333 94.457 69.816 94.0196 69.816C93.6676 69.816 93.3903 69.896 93.1876 70.056C92.985 70.216 92.8836 70.424 92.8836 70.68C92.8836 70.84 92.9263 70.9787 93.0116 71.096C93.097 71.2133 93.2143 71.3093 93.3636 71.384C93.5236 71.4587 93.705 71.528 93.9076 71.592L95.2996 72.008C96.0143 72.2213 96.5636 72.5413 96.9476 72.968C97.3423 73.3947 97.5396 73.9173 97.5396 74.536C97.5396 75.0587 97.401 75.5227 97.1236 75.928C96.8463 76.3227 96.4623 76.632 95.9716 76.856C95.481 77.08 94.905 77.192 94.2436 77.192Z" fill="#1A202C"/>
<path d="M28.068 103.144C27.5 103.144 26.98 103.04 26.508 102.832C26.036 102.616 25.636 102.324 25.308 101.956C24.98 101.588 24.744 101.176 24.6 100.72L25.62 100.3C25.836 100.876 26.156 101.32 26.58 101.632C27.012 101.936 27.516 102.088 28.092 102.088C28.444 102.088 28.752 102.032 29.016 101.92C29.28 101.808 29.484 101.652 29.628 101.452C29.78 101.244 29.856 101.004 29.856 100.732C29.856 100.356 29.748 100.06 29.532 99.844C29.324 99.62 29.016 99.452 28.608 99.34L26.964 98.836C26.316 98.636 25.82 98.32 25.476 97.888C25.132 97.456 24.96 96.96 24.96 96.4C24.96 95.912 25.076 95.484 25.308 95.116C25.548 94.74 25.876 94.448 26.292 94.24C26.716 94.024 27.196 93.916 27.732 93.916C28.268 93.916 28.752 94.012 29.184 94.204C29.624 94.396 29.996 94.656 30.3 94.984C30.604 95.304 30.828 95.672 30.972 96.088L29.964 96.508C29.772 96.004 29.484 95.624 29.1 95.368C28.716 95.104 28.264 94.972 27.744 94.972C27.424 94.972 27.14 95.028 26.892 95.14C26.652 95.244 26.464 95.4 26.328 95.608C26.2 95.808 26.136 96.048 26.136 96.328C26.136 96.656 26.24 96.948 26.448 97.204C26.656 97.46 26.972 97.656 27.396 97.792L28.896 98.236C29.6 98.452 30.132 98.76 30.492 99.16C30.852 99.56 31.032 100.056 31.032 100.648C31.032 101.136 30.904 101.568 30.648 101.944C30.4 102.32 30.052 102.616 29.604 102.832C29.164 103.04 28.652 103.144 28.068 103.144ZM35.3578 103.144C34.7338 103.144 34.1778 102.996 33.6898 102.7C33.2018 102.404 32.8178 102 32.5378 101.488C32.2578 100.968 32.1178 100.388 32.1178 99.748C32.1178 99.1 32.2538 98.524 32.5258 98.02C32.8058 97.516 33.1818 97.12 33.6538 96.832C34.1338 96.536 34.6698 96.388 35.2618 96.388C35.7418 96.388 36.1658 96.476 36.5338 96.652C36.9098 96.82 37.2258 97.052 37.4818 97.348C37.7458 97.636 37.9458 97.968 38.0818 98.344C38.2258 98.712 38.2978 99.096 38.2978 99.496C38.2978 99.584 38.2898 99.684 38.2738 99.796C38.2658 99.9 38.2538 100 38.2378 100.096H32.9338V99.136H37.5898L37.0618 99.568C37.1338 99.152 37.0938 98.78 36.9418 98.452C36.7898 98.124 36.5658 97.864 36.2698 97.672C35.9738 97.48 35.6378 97.384 35.2618 97.384C34.8858 97.384 34.5418 97.48 34.2298 97.672C33.9178 97.864 33.6738 98.14 33.4978 98.5C33.3298 98.852 33.2618 99.272 33.2938 99.76C33.2618 100.232 33.3338 100.648 33.5098 101.008C33.6938 101.36 33.9498 101.636 34.2778 101.836C34.6138 102.028 34.9778 102.124 35.3698 102.124C35.8018 102.124 36.1658 102.024 36.4618 101.824C36.7578 101.624 36.9978 101.368 37.1818 101.056L38.1178 101.536C37.9898 101.832 37.7898 102.104 37.5178 102.352C37.2538 102.592 36.9378 102.784 36.5698 102.928C36.2098 103.072 35.8058 103.144 35.3578 103.144ZM39.5129 103V93.916H40.6289V103H39.5129ZM45.0966 103.144C44.4726 103.144 43.9166 102.996 43.4286 102.7C42.9406 102.404 42.5566 102 42.2766 101.488C41.9966 100.968 41.8566 100.388 41.8566 99.748C41.8566 99.1 41.9926 98.524 42.2646 98.02C42.5446 97.516 42.9206 97.12 43.3926 96.832C43.8726 96.536 44.4086 96.388 45.0006 96.388C45.4806 96.388 45.9046 96.476 46.2726 96.652C46.6486 96.82 46.9646 97.052 47.2206 97.348C47.4846 97.636 47.6846 97.968 47.8206 98.344C47.9646 98.712 48.0366 99.096 48.0366 99.496C48.0366 99.584 48.0286 99.684 48.0126 99.796C48.0046 99.9 47.9926 100 47.9766 100.096H42.6726V99.136H47.3286L46.8006 99.568C46.8726 99.152 46.8326 98.78 46.6806 98.452C46.5286 98.124 46.3046 97.864 46.0086 97.672C45.7126 97.48 45.3766 97.384 45.0006 97.384C44.6246 97.384 44.2806 97.48 43.9686 97.672C43.6566 97.864 43.4126 98.14 43.2366 98.5C43.0686 98.852 43.0006 99.272 43.0326 99.76C43.0006 100.232 43.0726 100.648 43.2486 101.008C43.4326 101.36 43.6886 101.636 44.0166 101.836C44.3526 102.028 44.7166 102.124 45.1086 102.124C45.5406 102.124 45.9046 102.024 46.2006 101.824C46.4966 101.624 46.7366 101.368 46.9206 101.056L47.8566 101.536C47.7286 101.832 47.5286 102.104 47.2566 102.352C46.9926 102.592 46.6766 102.784 46.3086 102.928C45.9486 103.072 45.5446 103.144 45.0966 103.144ZM52.2517 103.144C51.6197 103.144 51.0557 102.996 50.5597 102.7C50.0717 102.404 49.6877 102 49.4077 101.488C49.1277 100.976 48.9877 100.4 48.9877 99.76C48.9877 99.112 49.1277 98.536 49.4077 98.032C49.6877 97.528 50.0717 97.128 50.5597 96.832C51.0557 96.536 51.6197 96.388 52.2517 96.388C52.6757 96.388 53.0717 96.464 53.4397 96.616C53.8077 96.768 54.1317 96.972 54.4117 97.228C54.6917 97.484 54.8957 97.784 55.0237 98.128L54.0277 98.608C53.8757 98.272 53.6437 98 53.3317 97.792C53.0197 97.576 52.6597 97.468 52.2517 97.468C51.8597 97.468 51.5037 97.568 51.1837 97.768C50.8717 97.968 50.6237 98.24 50.4397 98.584C50.2557 98.928 50.1637 99.324 50.1637 99.772C50.1637 100.204 50.2557 100.596 50.4397 100.948C50.6237 101.292 50.8717 101.564 51.1837 101.764C51.5037 101.964 51.8597 102.064 52.2517 102.064C52.6597 102.064 53.0197 101.96 53.3317 101.752C53.6437 101.536 53.8757 101.252 54.0277 100.9L55.0237 101.404C54.8957 101.74 54.6917 102.04 54.4117 102.304C54.1317 102.56 53.8077 102.764 53.4397 102.916C53.0717 103.068 52.6757 103.144 52.2517 103.144ZM58.8701 103.072C58.2381 103.072 57.7501 102.892 57.4061 102.532C57.0701 102.172 56.9021 101.664 56.9021 101.008V97.6H55.7261V96.532H55.9661C56.2541 96.532 56.4821 96.444 56.6501 96.268C56.8181 96.092 56.9021 95.86 56.9021 95.572V95.044H58.0181V96.532H59.4701V97.6H58.0181V100.972C58.0181 101.188 58.0501 101.376 58.1141 101.536C58.1861 101.696 58.3021 101.824 58.4621 101.92C58.6221 102.008 58.8341 102.052 59.0981 102.052C59.1541 102.052 59.2221 102.048 59.3021 102.04C59.3901 102.032 59.4701 102.024 59.5421 102.016V103C59.4381 103.024 59.3221 103.04 59.1941 103.048C59.0661 103.064 58.9581 103.072 58.8701 103.072ZM62.9422 105.64C62.7982 105.64 62.6542 105.628 62.5102 105.604C62.3662 105.588 62.2302 105.552 62.1022 105.496V104.5C62.1902 104.508 62.2982 104.524 62.4262 104.548C62.5622 104.572 62.6942 104.584 62.8222 104.584C63.1982 104.584 63.4822 104.5 63.6742 104.332C63.8742 104.164 64.0622 103.88 64.2382 103.48L64.6462 102.508L64.6222 103.48L61.8622 96.532H63.0742L65.2222 102.052H64.8622L66.9982 96.532H68.2342L65.3182 103.768C65.1822 104.112 65.0062 104.428 64.7902 104.716C64.5822 105.004 64.3262 105.228 64.0222 105.388C63.7182 105.556 63.3582 105.64 62.9422 105.64ZM71.9418 103.144C71.3178 103.144 70.7538 103 70.2498 102.712C69.7458 102.416 69.3458 102.012 69.0498 101.5C68.7538 100.988 68.6058 100.408 68.6058 99.76C68.6058 99.112 68.7498 98.536 69.0378 98.032C69.3338 97.528 69.7338 97.128 70.2378 96.832C70.7418 96.536 71.3098 96.388 71.9418 96.388C72.5658 96.388 73.1298 96.536 73.6338 96.832C74.1378 97.12 74.5338 97.516 74.8218 98.02C75.1178 98.524 75.2658 99.104 75.2658 99.76C75.2658 100.416 75.1138 101 74.8098 101.512C74.5058 102.016 74.1018 102.416 73.5978 102.712C73.1018 103 72.5498 103.144 71.9418 103.144ZM71.9418 102.064C72.3418 102.064 72.7018 101.964 73.0218 101.764C73.3498 101.564 73.6058 101.288 73.7898 100.936C73.9818 100.584 74.0778 100.192 74.0778 99.76C74.0778 99.32 73.9818 98.932 73.7898 98.596C73.6058 98.252 73.3498 97.98 73.0218 97.78C72.7018 97.572 72.3418 97.468 71.9418 97.468C71.5338 97.468 71.1658 97.572 70.8378 97.78C70.5178 97.98 70.2618 98.252 70.0698 98.596C69.8778 98.932 69.7818 99.32 69.7818 99.76C69.7818 100.192 69.8778 100.584 70.0698 100.936C70.2618 101.288 70.5178 101.564 70.8378 101.764C71.1658 101.964 71.5338 102.064 71.9418 102.064ZM78.7733 103.144C78.3093 103.144 77.8893 103.036 77.5133 102.82C77.1453 102.604 76.8573 102.304 76.6493 101.92C76.4493 101.528 76.3493 101.08 76.3493 100.576V96.532H77.4653V100.456C77.4653 100.776 77.5293 101.056 77.6573 101.296C77.7933 101.536 77.9773 101.724 78.2093 101.86C78.4493 101.996 78.7213 102.064 79.0253 102.064C79.3293 102.064 79.5973 101.996 79.8293 101.86C80.0693 101.724 80.2533 101.528 80.3813 101.272C80.5173 101.016 80.5853 100.712 80.5853 100.36V96.532H81.7133V103H80.6213V101.74L80.8013 101.848C80.6493 102.256 80.3893 102.576 80.0213 102.808C79.6613 103.032 79.2453 103.144 78.7733 103.144ZM83.2023 103V96.532H84.2943V97.72L84.1743 97.552C84.3263 97.184 84.5583 96.912 84.8703 96.736C85.1823 96.552 85.5623 96.46 86.0103 96.46H86.4063V97.516H85.8423C85.3863 97.516 85.0183 97.66 84.7383 97.948C84.4583 98.228 84.3183 98.628 84.3183 99.148V103H83.2023ZM91.9918 103.144C91.3598 103.144 90.7958 102.996 90.2998 102.7C89.8118 102.404 89.4278 102 89.1478 101.488C88.8678 100.976 88.7278 100.4 88.7278 99.76C88.7278 99.112 88.8678 98.536 89.1478 98.032C89.4278 97.528 89.8118 97.128 90.2998 96.832C90.7958 96.536 91.3598 96.388 91.9918 96.388C92.4158 96.388 92.8118 96.464 93.1798 96.616C93.5478 96.768 93.8718 96.972 94.1518 97.228C94.4318 97.484 94.6358 97.784 94.7638 98.128L93.7678 98.608C93.6158 98.272 93.3838 98 93.0718 97.792C92.7598 97.576 92.3998 97.468 91.9918 97.468C91.5998 97.468 91.2438 97.568 90.9238 97.768C90.6118 97.968 90.3638 98.24 90.1798 98.584C89.9958 98.928 89.9038 99.324 89.9038 99.772C89.9038 100.204 89.9958 100.596 90.1798 100.948C90.3638 101.292 90.6118 101.564 90.9238 101.764C91.2438 101.964 91.5998 102.064 91.9918 102.064C92.3998 102.064 92.7598 101.96 93.0718 101.752C93.3838 101.536 93.6158 101.252 93.7678 100.9L94.7638 101.404C94.6358 101.74 94.4318 102.04 94.1518 102.304C93.8718 102.56 93.5478 102.764 93.1798 102.916C92.8118 103.068 92.4158 103.144 91.9918 103.144ZM95.9823 103V96.532H97.0983V103H95.9823ZM95.9823 95.5V94.06H97.0983V95.5H95.9823ZM101.218 103.072C100.586 103.072 100.098 102.892 99.7539 102.532C99.4179 102.172 99.2499 101.664 99.2499 101.008V97.6H98.0739V96.532H98.3139C98.6019 96.532 98.8299 96.444 98.9979 96.268C99.1659 96.092 99.2499 95.86 99.2499 95.572V95.044H100.366V96.532H101.818V97.6H100.366V100.972C100.366 101.188 100.398 101.376 100.462 101.536C100.534 101.696 100.65 101.824 100.81 101.92C100.97 102.008 101.182 102.052 101.446 102.052C101.502 102.052 101.57 102.048 101.65 102.04C101.738 102.032 101.818 102.024 101.89 102.016V103C101.786 103.024 101.67 103.04 101.542 103.048C101.414 103.064 101.306 103.072 101.218 103.072ZM103.456 105.64C103.312 105.64 103.168 105.628 103.024 105.604C102.88 105.588 102.744 105.552 102.616 105.496V104.5C102.704 104.508 102.812 104.524 102.94 104.548C103.076 104.572 103.208 104.584 103.336 104.584C103.712 104.584 103.996 104.5 104.188 104.332C104.388 104.164 104.576 103.88 104.752 103.48L105.16 102.508L105.136 103.48L102.376 96.532H103.588L105.736 102.052H105.376L107.512 96.532H108.748L105.832 103.768C105.696 104.112 105.52 104.428 105.304 104.716C105.096 105.004 104.84 105.228 104.536 105.388C104.232 105.556 103.872 105.64 103.456 105.64Z" fill="#90A3BF"/>
<path d="M127 100.799C126.592 100.799 126.184 100.642 125.875 100.333L122.071 96.5294C121.902 96.3602 121.902 96.0802 122.071 95.9111C122.24 95.7419 122.52 95.7419 122.69 95.9111L126.493 99.7144C126.773 99.9944 127.228 99.9944 127.508 99.7144L131.311 95.9111C131.48 95.7419 131.76 95.7419 131.93 95.9111C132.099 96.0802 132.099 96.3602 131.93 96.5294L128.126 100.333C127.817 100.642 127.409 100.799 127 100.799Z" fill="#1A202C" stroke="#1A202C" stroke-width="0.5"/>
<line x1="158.5" y1="60.5" x2="158.5" y2="107.5" stroke="#C3D4E9" stroke-opacity="0.4" stroke-linecap="round"/>
<path d="M183.152 77V65.08H187.04C188.299 65.08 189.392 65.336 190.32 65.848C191.259 66.3493 191.984 67.048 192.496 67.944C193.008 68.8293 193.264 69.8587 193.264 71.032C193.264 72.1947 193.008 73.2293 192.496 74.136C191.984 75.032 191.259 75.736 190.32 76.248C189.392 76.7493 188.299 77 187.04 77H183.152ZM185.328 75.08H187.088C187.899 75.08 188.597 74.9147 189.184 74.584C189.781 74.2427 190.245 73.7733 190.576 73.176C190.907 72.568 191.072 71.8533 191.072 71.032C191.072 70.2 190.907 69.4853 190.576 68.888C190.245 68.2907 189.781 67.8267 189.184 67.496C188.597 67.1653 187.899 67 187.088 67H185.328V75.08ZM197.109 77.192C196.501 77.192 195.973 77.0907 195.525 76.888C195.077 76.6853 194.73 76.3973 194.485 76.024C194.239 75.64 194.117 75.1973 194.117 74.696C194.117 74.216 194.223 73.7893 194.437 73.416C194.65 73.032 194.981 72.712 195.429 72.456C195.877 72.2 196.442 72.0187 197.125 71.912L199.973 71.448V73.048L197.525 73.464C197.109 73.5387 196.799 73.672 196.597 73.864C196.394 74.056 196.293 74.3067 196.293 74.616C196.293 74.9147 196.405 75.1547 196.629 75.336C196.863 75.5067 197.151 75.592 197.493 75.592C197.93 75.592 198.314 75.5013 198.645 75.32C198.986 75.128 199.247 74.8667 199.429 74.536C199.621 74.2053 199.717 73.8427 199.717 73.448V71.208C199.717 70.8347 199.567 70.5253 199.269 70.28C198.981 70.024 198.597 69.896 198.117 69.896C197.669 69.896 197.269 70.0187 196.917 70.264C196.575 70.4987 196.325 70.8133 196.165 71.208L194.453 70.376C194.623 69.9173 194.89 69.5227 195.253 69.192C195.626 68.8507 196.063 68.584 196.565 68.392C197.066 68.2 197.61 68.104 198.197 68.104C198.911 68.104 199.541 68.2373 200.085 68.504C200.629 68.76 201.05 69.1227 201.349 69.592C201.658 70.0507 201.813 70.5893 201.813 71.208V77H199.829V75.512L200.277 75.48C200.053 75.8533 199.786 76.168 199.477 76.424C199.167 76.6693 198.815 76.8613 198.421 77C198.026 77.128 197.589 77.192 197.109 77.192ZM207.242 77.096C206.26 77.096 205.498 76.8293 204.954 76.296C204.42 75.752 204.154 74.9893 204.154 74.008V70.168H202.65V68.296H202.81C203.236 68.296 203.567 68.184 203.802 67.96C204.036 67.736 204.154 67.4107 204.154 66.984V66.312H206.25V68.296H208.25V70.168H206.25V73.896C206.25 74.184 206.298 74.4293 206.394 74.632C206.5 74.8347 206.66 74.9893 206.874 75.096C207.098 75.2027 207.38 75.256 207.722 75.256C207.796 75.256 207.882 75.2507 207.978 75.24C208.084 75.2293 208.186 75.2187 208.282 75.208V77C208.132 77.0213 207.962 77.0427 207.77 77.064C207.578 77.0853 207.402 77.096 207.242 77.096ZM213.613 77.192C212.717 77.192 211.933 76.9893 211.261 76.584C210.589 76.1787 210.066 75.6293 209.693 74.936C209.319 74.2427 209.133 73.4747 209.133 72.632C209.133 71.7573 209.319 70.984 209.693 70.312C210.077 69.6293 210.594 69.0907 211.245 68.696C211.906 68.3013 212.642 68.104 213.453 68.104C214.135 68.104 214.733 68.216 215.245 68.44C215.767 68.664 216.21 68.9733 216.573 69.368C216.935 69.7627 217.213 70.216 217.405 70.728C217.597 71.2293 217.693 71.7733 217.693 72.36C217.693 72.5093 217.682 72.664 217.661 72.824C217.65 72.984 217.623 73.1227 217.581 73.24H210.861V71.64H216.397L215.405 72.392C215.501 71.9013 215.474 71.464 215.325 71.08C215.186 70.696 214.951 70.392 214.621 70.168C214.301 69.944 213.911 69.832 213.453 69.832C213.015 69.832 212.626 69.944 212.285 70.168C211.943 70.3813 211.682 70.7013 211.501 71.128C211.33 71.544 211.266 72.0507 211.309 72.648C211.266 73.1813 211.335 73.656 211.517 74.072C211.709 74.4773 211.986 74.792 212.349 75.016C212.722 75.24 213.149 75.352 213.629 75.352C214.109 75.352 214.514 75.2507 214.845 75.048C215.186 74.8453 215.453 74.5733 215.645 74.232L217.341 75.064C217.17 75.48 216.903 75.848 216.541 76.168C216.178 76.488 215.746 76.7387 215.245 76.92C214.754 77.1013 214.21 77.192 213.613 77.192Z" fill="#1A202C"/>
<path d="M186.068 103.144C185.5 103.144 184.98 103.04 184.508 102.832C184.036 102.616 183.636 102.324 183.308 101.956C182.98 101.588 182.744 101.176 182.6 100.72L183.62 100.3C183.836 100.876 184.156 101.32 184.58 101.632C185.012 101.936 185.516 102.088 186.092 102.088C186.444 102.088 186.752 102.032 187.016 101.92C187.28 101.808 187.484 101.652 187.628 101.452C187.78 101.244 187.856 101.004 187.856 100.732C187.856 100.356 187.748 100.06 187.532 99.844C187.324 99.62 187.016 99.452 186.608 99.34L184.964 98.836C184.316 98.636 183.82 98.32 183.476 97.888C183.132 97.456 182.96 96.96 182.96 96.4C182.96 95.912 183.076 95.484 183.308 95.116C183.548 94.74 183.876 94.448 184.292 94.24C184.716 94.024 185.196 93.916 185.732 93.916C186.268 93.916 186.752 94.012 187.184 94.204C187.624 94.396 187.996 94.656 188.3 94.984C188.604 95.304 188.828 95.672 188.972 96.088L187.964 96.508C187.772 96.004 187.484 95.624 187.1 95.368C186.716 95.104 186.264 94.972 185.744 94.972C185.424 94.972 185.14 95.028 184.892 95.14C184.652 95.244 184.464 95.4 184.328 95.608C184.2 95.808 184.136 96.048 184.136 96.328C184.136 96.656 184.24 96.948 184.448 97.204C184.656 97.46 184.972 97.656 185.396 97.792L186.896 98.236C187.6 98.452 188.132 98.76 188.492 99.16C188.852 99.56 189.032 100.056 189.032 100.648C189.032 101.136 188.904 101.568 188.648 101.944C188.4 102.32 188.052 102.616 187.604 102.832C187.164 103.04 186.652 103.144 186.068 103.144ZM193.358 103.144C192.734 103.144 192.178 102.996 191.69 102.7C191.202 102.404 190.818 102 190.538 101.488C190.258 100.968 190.118 100.388 190.118 99.748C190.118 99.1 190.254 98.524 190.526 98.02C190.806 97.516 191.182 97.12 191.654 96.832C192.134 96.536 192.67 96.388 193.262 96.388C193.742 96.388 194.166 96.476 194.534 96.652C194.91 96.82 195.226 97.052 195.482 97.348C195.746 97.636 195.946 97.968 196.082 98.344C196.226 98.712 196.298 99.096 196.298 99.496C196.298 99.584 196.29 99.684 196.274 99.796C196.266 99.9 196.254 100 196.238 100.096H190.934V99.136H195.59L195.062 99.568C195.134 99.152 195.094 98.78 194.942 98.452C194.79 98.124 194.566 97.864 194.27 97.672C193.974 97.48 193.638 97.384 193.262 97.384C192.886 97.384 192.542 97.48 192.23 97.672C191.918 97.864 191.674 98.14 191.498 98.5C191.33 98.852 191.262 99.272 191.294 99.76C191.262 100.232 191.334 100.648 191.51 101.008C191.694 101.36 191.95 101.636 192.278 101.836C192.614 102.028 192.978 102.124 193.37 102.124C193.802 102.124 194.166 102.024 194.462 101.824C194.758 101.624 194.998 101.368 195.182 101.056L196.118 101.536C195.99 101.832 195.79 102.104 195.518 102.352C195.254 102.592 194.938 102.784 194.57 102.928C194.21 103.072 193.806 103.144 193.358 103.144ZM197.513 103V93.916H198.629V103H197.513ZM203.097 103.144C202.473 103.144 201.917 102.996 201.429 102.7C200.941 102.404 200.557 102 200.277 101.488C199.997 100.968 199.857 100.388 199.857 99.748C199.857 99.1 199.993 98.524 200.265 98.02C200.545 97.516 200.921 97.12 201.393 96.832C201.873 96.536 202.409 96.388 203.001 96.388C203.481 96.388 203.905 96.476 204.273 96.652C204.649 96.82 204.965 97.052 205.221 97.348C205.485 97.636 205.685 97.968 205.821 98.344C205.965 98.712 206.037 99.096 206.037 99.496C206.037 99.584 206.029 99.684 206.013 99.796C206.005 99.9 205.993 100 205.977 100.096H200.673V99.136H205.329L204.801 99.568C204.873 99.152 204.833 98.78 204.681 98.452C204.529 98.124 204.305 97.864 204.009 97.672C203.713 97.48 203.377 97.384 203.001 97.384C202.625 97.384 202.281 97.48 201.969 97.672C201.657 97.864 201.413 98.14 201.237 98.5C201.069 98.852 201.001 99.272 201.033 99.76C201.001 100.232 201.073 100.648 201.249 101.008C201.433 101.36 201.689 101.636 202.017 101.836C202.353 102.028 202.717 102.124 203.109 102.124C203.541 102.124 203.905 102.024 204.201 101.824C204.497 101.624 204.737 101.368 204.921 101.056L205.857 101.536C205.729 101.832 205.529 102.104 205.257 102.352C204.993 102.592 204.677 102.784 204.309 102.928C203.949 103.072 203.545 103.144 203.097 103.144ZM210.252 103.144C209.62 103.144 209.056 102.996 208.56 102.7C208.072 102.404 207.688 102 207.408 101.488C207.128 100.976 206.988 100.4 206.988 99.76C206.988 99.112 207.128 98.536 207.408 98.032C207.688 97.528 208.072 97.128 208.56 96.832C209.056 96.536 209.62 96.388 210.252 96.388C210.676 96.388 211.072 96.464 211.44 96.616C211.808 96.768 212.132 96.972 212.412 97.228C212.692 97.484 212.896 97.784 213.024 98.128L212.028 98.608C211.876 98.272 211.644 98 211.332 97.792C211.02 97.576 210.66 97.468 210.252 97.468C209.86 97.468 209.504 97.568 209.184 97.768C208.872 97.968 208.624 98.24 208.44 98.584C208.256 98.928 208.164 99.324 208.164 99.772C208.164 100.204 208.256 100.596 208.44 100.948C208.624 101.292 208.872 101.564 209.184 101.764C209.504 101.964 209.86 102.064 210.252 102.064C210.66 102.064 211.02 101.96 211.332 101.752C211.644 101.536 211.876 101.252 212.028 100.9L213.024 101.404C212.896 101.74 212.692 102.04 212.412 102.304C212.132 102.56 211.808 102.764 211.44 102.916C211.072 103.068 210.676 103.144 210.252 103.144ZM216.87 103.072C216.238 103.072 215.75 102.892 215.406 102.532C215.07 102.172 214.902 101.664 214.902 101.008V97.6H213.726V96.532H213.966C214.254 96.532 214.482 96.444 214.65 96.268C214.818 96.092 214.902 95.86 214.902 95.572V95.044H216.018V96.532H217.47V97.6H216.018V100.972C216.018 101.188 216.05 101.376 216.114 101.536C216.186 101.696 216.302 101.824 216.462 101.92C216.622 102.008 216.834 102.052 217.098 102.052C217.154 102.052 217.222 102.048 217.302 102.04C217.39 102.032 217.47 102.024 217.542 102.016V103C217.438 103.024 217.322 103.04 217.194 103.048C217.066 103.064 216.958 103.072 216.87 103.072ZM220.942 105.64C220.798 105.64 220.654 105.628 220.51 105.604C220.366 105.588 220.23 105.552 220.102 105.496V104.5C220.19 104.508 220.298 104.524 220.426 104.548C220.562 104.572 220.694 104.584 220.822 104.584C221.198 104.584 221.482 104.5 221.674 104.332C221.874 104.164 222.062 103.88 222.238 103.48L222.646 102.508L222.622 103.48L219.862 96.532H221.074L223.222 102.052H222.862L224.998 96.532H226.234L223.318 103.768C223.182 104.112 223.006 104.428 222.79 104.716C222.582 105.004 222.326 105.228 222.022 105.388C221.718 105.556 221.358 105.64 220.942 105.64ZM229.942 103.144C229.318 103.144 228.754 103 228.25 102.712C227.746 102.416 227.346 102.012 227.05 101.5C226.754 100.988 226.606 100.408 226.606 99.76C226.606 99.112 226.75 98.536 227.038 98.032C227.334 97.528 227.734 97.128 228.238 96.832C228.742 96.536 229.31 96.388 229.942 96.388C230.566 96.388 231.13 96.536 231.634 96.832C232.138 97.12 232.534 97.516 232.822 98.02C233.118 98.524 233.266 99.104 233.266 99.76C233.266 100.416 233.114 101 232.81 101.512C232.506 102.016 232.102 102.416 231.598 102.712C231.102 103 230.55 103.144 229.942 103.144ZM229.942 102.064C230.342 102.064 230.702 101.964 231.022 101.764C231.35 101.564 231.606 101.288 231.79 100.936C231.982 100.584 232.078 100.192 232.078 99.76C232.078 99.32 231.982 98.932 231.79 98.596C231.606 98.252 231.35 97.98 231.022 97.78C230.702 97.572 230.342 97.468 229.942 97.468C229.534 97.468 229.166 97.572 228.838 97.78C228.518 97.98 228.262 98.252 228.07 98.596C227.878 98.932 227.782 99.32 227.782 99.76C227.782 100.192 227.878 100.584 228.07 100.936C228.262 101.288 228.518 101.564 228.838 101.764C229.166 101.964 229.534 102.064 229.942 102.064ZM236.773 103.144C236.309 103.144 235.889 103.036 235.513 102.82C235.145 102.604 234.857 102.304 234.649 101.92C234.449 101.528 234.349 101.08 234.349 100.576V96.532H235.465V100.456C235.465 100.776 235.529 101.056 235.657 101.296C235.793 101.536 235.977 101.724 236.209 101.86C236.449 101.996 236.721 102.064 237.025 102.064C237.329 102.064 237.597 101.996 237.829 101.86C238.069 101.724 238.253 101.528 238.381 101.272C238.517 101.016 238.585 100.712 238.585 100.36V96.532H239.713V103H238.621V101.74L238.801 101.848C238.649 102.256 238.389 102.576 238.021 102.808C237.661 103.032 237.245 103.144 236.773 103.144ZM241.202 103V96.532H242.294V97.72L242.174 97.552C242.326 97.184 242.558 96.912 242.87 96.736C243.182 96.552 243.562 96.46 244.01 96.46H244.406V97.516H243.842C243.386 97.516 243.018 97.66 242.738 97.948C242.458 98.228 242.318 98.628 242.318 99.148V103H241.202ZM249.932 103.144C249.324 103.144 248.776 102.996 248.288 102.7C247.808 102.404 247.428 102 247.148 101.488C246.868 100.976 246.728 100.404 246.728 99.772C246.728 99.124 246.868 98.548 247.148 98.044C247.428 97.532 247.808 97.128 248.288 96.832C248.776 96.536 249.324 96.388 249.932 96.388C250.468 96.388 250.944 96.504 251.36 96.736C251.776 96.96 252.104 97.264 252.344 97.648L252.164 97.924V93.916H253.292V103H252.2V101.62L252.344 101.812C252.12 102.236 251.792 102.564 251.36 102.796C250.936 103.028 250.46 103.144 249.932 103.144ZM250.028 102.064C250.436 102.064 250.8 101.964 251.12 101.764C251.44 101.564 251.692 101.292 251.876 100.948C252.068 100.596 252.164 100.204 252.164 99.772C252.164 99.332 252.068 98.94 251.876 98.596C251.692 98.244 251.44 97.968 251.12 97.768C250.8 97.568 250.436 97.468 250.028 97.468C249.628 97.468 249.264 97.572 248.936 97.78C248.616 97.98 248.364 98.252 248.18 98.596C247.996 98.932 247.904 99.324 247.904 99.772C247.904 100.204 247.996 100.596 248.18 100.948C248.364 101.292 248.616 101.564 248.936 101.764C249.256 101.964 249.62 102.064 250.028 102.064ZM256.675 103.144C256.251 103.144 255.875 103.068 255.547 102.916C255.227 102.756 254.975 102.54 254.791 102.268C254.607 101.988 254.515 101.668 254.515 101.308C254.515 100.964 254.587 100.656 254.731 100.384C254.883 100.104 255.115 99.868 255.427 99.676C255.747 99.484 256.147 99.348 256.627 99.268L259.027 98.872V99.808L256.879 100.168C256.463 100.24 256.159 100.372 255.967 100.564C255.783 100.756 255.691 100.992 255.691 101.272C255.691 101.536 255.795 101.756 256.003 101.932C256.219 102.108 256.487 102.196 256.807 102.196C257.215 102.196 257.567 102.112 257.863 101.944C258.167 101.768 258.403 101.532 258.571 101.236C258.747 100.94 258.835 100.612 258.835 100.252V98.608C258.835 98.256 258.703 97.972 258.439 97.756C258.183 97.532 257.843 97.42 257.419 97.42C257.051 97.42 256.723 97.516 256.435 97.708C256.155 97.892 255.947 98.14 255.811 98.452L254.839 97.948C254.959 97.652 255.151 97.388 255.415 97.156C255.679 96.916 255.987 96.728 256.339 96.592C256.691 96.456 257.059 96.388 257.443 96.388C257.939 96.388 258.375 96.484 258.751 96.676C259.127 96.86 259.419 97.12 259.627 97.456C259.843 97.784 259.951 98.168 259.951 98.608V103H258.859V101.776L259.063 101.848C258.927 102.104 258.743 102.328 258.511 102.52C258.279 102.712 258.007 102.864 257.695 102.976C257.383 103.088 257.043 103.144 256.675 103.144ZM263.952 103.072C263.32 103.072 262.832 102.892 262.488 102.532C262.152 102.172 261.984 101.664 261.984 101.008V97.6H260.808V96.532H261.048C261.336 96.532 261.564 96.444 261.732 96.268C261.9 96.092 261.984 95.86 261.984 95.572V95.044H263.1V96.532H264.552V97.6H263.1V100.972C263.1 101.188 263.132 101.376 263.196 101.536C263.268 101.696 263.384 101.824 263.544 101.92C263.704 102.008 263.916 102.052 264.18 102.052C264.236 102.052 264.304 102.048 264.384 102.04C264.472 102.032 264.552 102.024 264.624 102.016V103C264.52 103.024 264.404 103.04 264.276 103.048C264.148 103.064 264.04 103.072 263.952 103.072ZM268.642 103.144C268.018 103.144 267.462 102.996 266.974 102.7C266.486 102.404 266.102 102 265.822 101.488C265.542 100.968 265.402 100.388 265.402 99.748C265.402 99.1 265.538 98.524 265.81 98.02C266.09 97.516 266.466 97.12 266.938 96.832C267.418 96.536 267.954 96.388 268.546 96.388C269.026 96.388 269.45 96.476 269.818 96.652C270.194 96.82 270.51 97.052 270.766 97.348C271.03 97.636 271.23 97.968 271.366 98.344C271.51 98.712 271.582 99.096 271.582 99.496C271.582 99.584 271.574 99.684 271.558 99.796C271.55 99.9 271.538 100 271.522 100.096H266.218V99.136H270.874L270.346 99.568C270.418 99.152 270.378 98.78 270.226 98.452C270.074 98.124 269.85 97.864 269.554 97.672C269.258 97.48 268.922 97.384 268.546 97.384C268.17 97.384 267.826 97.48 267.514 97.672C267.202 97.864 266.958 98.14 266.782 98.5C266.614 98.852 266.546 99.272 266.578 99.76C266.546 100.232 266.618 100.648 266.794 101.008C266.978 101.36 267.234 101.636 267.562 101.836C267.898 102.028 268.262 102.124 268.654 102.124C269.086 102.124 269.45 102.024 269.746 101.824C270.042 101.624 270.282 101.368 270.466 101.056L271.402 101.536C271.274 101.832 271.074 102.104 270.802 102.352C270.538 102.592 270.222 102.784 269.854 102.928C269.494 103.072 269.09 103.144 268.642 103.144Z" fill="#90A3BF"/>
<path d="M291 100.799C290.592 100.799 290.184 100.642 289.875 100.333L286.071 96.5294C285.902 96.3602 285.902 96.0802 286.071 95.9111C286.24 95.7419 286.52 95.7419 286.69 95.9111L290.493 99.7144C290.773 99.9944 291.228 99.9944 291.508 99.7144L295.311 95.9111C295.48 95.7419 295.76 95.7419 295.93 95.9111C296.099 96.0802 296.099 96.3602 295.93 96.5294L292.126 100.333C291.817 100.642 291.409 100.799 291 100.799Z" fill="#1A202C" stroke="#1A202C" stroke-width="0.5"/>
<line x1="322.5" y1="60.5" x2="322.5" y2="107.5" stroke="#C3D4E9" stroke-opacity="0.4" stroke-linecap="round"/>
<path d="M349.264 77V67H346.176V65.08H354.496V67H351.456V77H349.264ZM355.328 77V68.296H357.424V77H355.328ZM355.328 67.32V65.08H357.424V67.32H355.328ZM359.039 77V68.296H361.007V70.312L360.783 69.976C360.943 69.3467 361.263 68.8773 361.743 68.568C362.223 68.2587 362.788 68.104 363.439 68.104C364.154 68.104 364.783 68.2907 365.327 68.664C365.871 69.0373 366.223 69.528 366.383 70.136L365.791 70.184C366.058 69.4907 366.458 68.9733 366.991 68.632C367.524 68.28 368.138 68.104 368.831 68.104C369.45 68.104 369.999 68.2427 370.479 68.52C370.97 68.7973 371.354 69.1867 371.631 69.688C371.908 70.1787 372.047 70.7493 372.047 71.4V77H369.951V71.896C369.951 71.512 369.882 71.1813 369.743 70.904C369.604 70.6267 369.412 70.4133 369.167 70.264C368.922 70.104 368.623 70.024 368.271 70.024C367.94 70.024 367.647 70.104 367.391 70.264C367.135 70.4133 366.938 70.6267 366.799 70.904C366.66 71.1813 366.591 71.512 366.591 71.896V77H364.495V71.896C364.495 71.512 364.426 71.1813 364.287 70.904C364.148 70.6267 363.951 70.4133 363.695 70.264C363.45 70.104 363.156 70.024 362.815 70.024C362.484 70.024 362.191 70.104 361.935 70.264C361.679 70.4133 361.482 70.6267 361.343 70.904C361.204 71.1813 361.135 71.512 361.135 71.896V77H359.039ZM377.628 77.192C376.732 77.192 375.948 76.9893 375.276 76.584C374.604 76.1787 374.082 75.6293 373.708 74.936C373.335 74.2427 373.148 73.4747 373.148 72.632C373.148 71.7573 373.335 70.984 373.708 70.312C374.092 69.6293 374.61 69.0907 375.26 68.696C375.922 68.3013 376.658 68.104 377.468 68.104C378.151 68.104 378.748 68.216 379.26 68.44C379.783 68.664 380.226 68.9733 380.588 69.368C380.951 69.7627 381.228 70.216 381.42 70.728C381.612 71.2293 381.708 71.7733 381.708 72.36C381.708 72.5093 381.698 72.664 381.676 72.824C381.666 72.984 381.639 73.1227 381.596 73.24H374.876V71.64H380.412L379.42 72.392C379.516 71.9013 379.49 71.464 379.34 71.08C379.202 70.696 378.967 70.392 378.636 70.168C378.316 69.944 377.927 69.832 377.468 69.832C377.031 69.832 376.642 69.944 376.3 70.168C375.959 70.3813 375.698 70.7013 375.516 71.128C375.346 71.544 375.282 72.0507 375.324 72.648C375.282 73.1813 375.351 73.656 375.532 74.072C375.724 74.4773 376.002 74.792 376.364 75.016C376.738 75.24 377.164 75.352 377.644 75.352C378.124 75.352 378.53 75.2507 378.86 75.048C379.202 74.8453 379.468 74.5733 379.66 74.232L381.356 75.064C381.186 75.48 380.919 75.848 380.556 76.168C380.194 76.488 379.762 76.7387 379.26 76.92C378.77 77.1013 378.226 77.192 377.628 77.192Z" fill="#1A202C"/>
<path d="M350.068 103.144C349.5 103.144 348.98 103.04 348.508 102.832C348.036 102.616 347.636 102.324 347.308 101.956C346.98 101.588 346.744 101.176 346.6 100.72L347.62 100.3C347.836 100.876 348.156 101.32 348.58 101.632C349.012 101.936 349.516 102.088 350.092 102.088C350.444 102.088 350.752 102.032 351.016 101.92C351.28 101.808 351.484 101.652 351.628 101.452C351.78 101.244 351.856 101.004 351.856 100.732C351.856 100.356 351.748 100.06 351.532 99.844C351.324 99.62 351.016 99.452 350.608 99.34L348.964 98.836C348.316 98.636 347.82 98.32 347.476 97.888C347.132 97.456 346.96 96.96 346.96 96.4C346.96 95.912 347.076 95.484 347.308 95.116C347.548 94.74 347.876 94.448 348.292 94.24C348.716 94.024 349.196 93.916 349.732 93.916C350.268 93.916 350.752 94.012 351.184 94.204C351.624 94.396 351.996 94.656 352.3 94.984C352.604 95.304 352.828 95.672 352.972 96.088L351.964 96.508C351.772 96.004 351.484 95.624 351.1 95.368C350.716 95.104 350.264 94.972 349.744 94.972C349.424 94.972 349.14 95.028 348.892 95.14C348.652 95.244 348.464 95.4 348.328 95.608C348.2 95.808 348.136 96.048 348.136 96.328C348.136 96.656 348.24 96.948 348.448 97.204C348.656 97.46 348.972 97.656 349.396 97.792L350.896 98.236C351.6 98.452 352.132 98.76 352.492 99.16C352.852 99.56 353.032 100.056 353.032 100.648C353.032 101.136 352.904 101.568 352.648 101.944C352.4 102.32 352.052 102.616 351.604 102.832C351.164 103.04 350.652 103.144 350.068 103.144ZM357.358 103.144C356.734 103.144 356.178 102.996 355.69 102.7C355.202 102.404 354.818 102 354.538 101.488C354.258 100.968 354.118 100.388 354.118 99.748C354.118 99.1 354.254 98.524 354.526 98.02C354.806 97.516 355.182 97.12 355.654 96.832C356.134 96.536 356.67 96.388 357.262 96.388C357.742 96.388 358.166 96.476 358.534 96.652C358.91 96.82 359.226 97.052 359.482 97.348C359.746 97.636 359.946 97.968 360.082 98.344C360.226 98.712 360.298 99.096 360.298 99.496C360.298 99.584 360.29 99.684 360.274 99.796C360.266 99.9 360.254 100 360.238 100.096H354.934V99.136H359.59L359.062 99.568C359.134 99.152 359.094 98.78 358.942 98.452C358.79 98.124 358.566 97.864 358.27 97.672C357.974 97.48 357.638 97.384 357.262 97.384C356.886 97.384 356.542 97.48 356.23 97.672C355.918 97.864 355.674 98.14 355.498 98.5C355.33 98.852 355.262 99.272 355.294 99.76C355.262 100.232 355.334 100.648 355.51 101.008C355.694 101.36 355.95 101.636 356.278 101.836C356.614 102.028 356.978 102.124 357.37 102.124C357.802 102.124 358.166 102.024 358.462 101.824C358.758 101.624 358.998 101.368 359.182 101.056L360.118 101.536C359.99 101.832 359.79 102.104 359.518 102.352C359.254 102.592 358.938 102.784 358.57 102.928C358.21 103.072 357.806 103.144 357.358 103.144ZM361.513 103V93.916H362.629V103H361.513ZM367.097 103.144C366.473 103.144 365.917 102.996 365.429 102.7C364.941 102.404 364.557 102 364.277 101.488C363.997 100.968 363.857 100.388 363.857 99.748C363.857 99.1 363.993 98.524 364.265 98.02C364.545 97.516 364.921 97.12 365.393 96.832C365.873 96.536 366.409 96.388 367.001 96.388C367.481 96.388 367.905 96.476 368.273 96.652C368.649 96.82 368.965 97.052 369.221 97.348C369.485 97.636 369.685 97.968 369.821 98.344C369.965 98.712 370.037 99.096 370.037 99.496C370.037 99.584 370.029 99.684 370.013 99.796C370.005 99.9 369.993 100 369.977 100.096H364.673V99.136H369.329L368.801 99.568C368.873 99.152 368.833 98.78 368.681 98.452C368.529 98.124 368.305 97.864 368.009 97.672C367.713 97.48 367.377 97.384 367.001 97.384C366.625 97.384 366.281 97.48 365.969 97.672C365.657 97.864 365.413 98.14 365.237 98.5C365.069 98.852 365.001 99.272 365.033 99.76C365.001 100.232 365.073 100.648 365.249 101.008C365.433 101.36 365.689 101.636 366.017 101.836C366.353 102.028 366.717 102.124 367.109 102.124C367.541 102.124 367.905 102.024 368.201 101.824C368.497 101.624 368.737 101.368 368.921 101.056L369.857 101.536C369.729 101.832 369.529 102.104 369.257 102.352C368.993 102.592 368.677 102.784 368.309 102.928C367.949 103.072 367.545 103.144 367.097 103.144ZM374.252 103.144C373.62 103.144 373.056 102.996 372.56 102.7C372.072 102.404 371.688 102 371.408 101.488C371.128 100.976 370.988 100.4 370.988 99.76C370.988 99.112 371.128 98.536 371.408 98.032C371.688 97.528 372.072 97.128 372.56 96.832C373.056 96.536 373.62 96.388 374.252 96.388C374.676 96.388 375.072 96.464 375.44 96.616C375.808 96.768 376.132 96.972 376.412 97.228C376.692 97.484 376.896 97.784 377.024 98.128L376.028 98.608C375.876 98.272 375.644 98 375.332 97.792C375.02 97.576 374.66 97.468 374.252 97.468C373.86 97.468 373.504 97.568 373.184 97.768C372.872 97.968 372.624 98.24 372.44 98.584C372.256 98.928 372.164 99.324 372.164 99.772C372.164 100.204 372.256 100.596 372.44 100.948C372.624 101.292 372.872 101.564 373.184 101.764C373.504 101.964 373.86 102.064 374.252 102.064C374.66 102.064 375.02 101.96 375.332 101.752C375.644 101.536 375.876 101.252 376.028 100.9L377.024 101.404C376.896 101.74 376.692 102.04 376.412 102.304C376.132 102.56 375.808 102.764 375.44 102.916C375.072 103.068 374.676 103.144 374.252 103.144ZM380.87 103.072C380.238 103.072 379.75 102.892 379.406 102.532C379.07 102.172 378.902 101.664 378.902 101.008V97.6H377.726V96.532H377.966C378.254 96.532 378.482 96.444 378.65 96.268C378.818 96.092 378.902 95.86 378.902 95.572V95.044H380.018V96.532H381.47V97.6H380.018V100.972C380.018 101.188 380.05 101.376 380.114 101.536C380.186 101.696 380.302 101.824 380.462 101.92C380.622 102.008 380.834 102.052 381.098 102.052C381.154 102.052 381.222 102.048 381.302 102.04C381.39 102.032 381.47 102.024 381.542 102.016V103C381.438 103.024 381.322 103.04 381.194 103.048C381.066 103.064 380.958 103.072 380.87 103.072ZM384.942 105.64C384.798 105.64 384.654 105.628 384.51 105.604C384.366 105.588 384.23 105.552 384.102 105.496V104.5C384.19 104.508 384.298 104.524 384.426 104.548C384.562 104.572 384.694 104.584 384.822 104.584C385.198 104.584 385.482 104.5 385.674 104.332C385.874 104.164 386.062 103.88 386.238 103.48L386.646 102.508L386.622 103.48L383.862 96.532H385.074L387.222 102.052H386.862L388.998 96.532H390.234L387.318 103.768C387.182 104.112 387.006 104.428 386.79 104.716C386.582 105.004 386.326 105.228 386.022 105.388C385.718 105.556 385.358 105.64 384.942 105.64ZM393.942 103.144C393.318 103.144 392.754 103 392.25 102.712C391.746 102.416 391.346 102.012 391.05 101.5C390.754 100.988 390.606 100.408 390.606 99.76C390.606 99.112 390.75 98.536 391.038 98.032C391.334 97.528 391.734 97.128 392.238 96.832C392.742 96.536 393.31 96.388 393.942 96.388C394.566 96.388 395.13 96.536 395.634 96.832C396.138 97.12 396.534 97.516 396.822 98.02C397.118 98.524 397.266 99.104 397.266 99.76C397.266 100.416 397.114 101 396.81 101.512C396.506 102.016 396.102 102.416 395.598 102.712C395.102 103 394.55 103.144 393.942 103.144ZM393.942 102.064C394.342 102.064 394.702 101.964 395.022 101.764C395.35 101.564 395.606 101.288 395.79 100.936C395.982 100.584 396.078 100.192 396.078 99.76C396.078 99.32 395.982 98.932 395.79 98.596C395.606 98.252 395.35 97.98 395.022 97.78C394.702 97.572 394.342 97.468 393.942 97.468C393.534 97.468 393.166 97.572 392.838 97.78C392.518 97.98 392.262 98.252 392.07 98.596C391.878 98.932 391.782 99.32 391.782 99.76C391.782 100.192 391.878 100.584 392.07 100.936C392.262 101.288 392.518 101.564 392.838 101.764C393.166 101.964 393.534 102.064 393.942 102.064ZM400.773 103.144C400.309 103.144 399.889 103.036 399.513 102.82C399.145 102.604 398.857 102.304 398.649 101.92C398.449 101.528 398.349 101.08 398.349 100.576V96.532H399.465V100.456C399.465 100.776 399.529 101.056 399.657 101.296C399.793 101.536 399.977 101.724 400.209 101.86C400.449 101.996 400.721 102.064 401.025 102.064C401.329 102.064 401.597 101.996 401.829 101.86C402.069 101.724 402.253 101.528 402.381 101.272C402.517 101.016 402.585 100.712 402.585 100.36V96.532H403.713V103H402.621V101.74L402.801 101.848C402.649 102.256 402.389 102.576 402.021 102.808C401.661 103.032 401.245 103.144 400.773 103.144ZM405.202 103V96.532H406.294V97.72L406.174 97.552C406.326 97.184 406.558 96.912 406.87 96.736C407.182 96.552 407.562 96.46 408.01 96.46H408.406V97.516H407.842C407.386 97.516 407.018 97.66 406.738 97.948C406.458 98.228 406.318 98.628 406.318 99.148V103H405.202ZM413.62 103.072C412.988 103.072 412.5 102.892 412.156 102.532C411.82 102.172 411.652 101.664 411.652 101.008V97.6H410.476V96.532H410.716C411.004 96.532 411.232 96.444 411.4 96.268C411.568 96.092 411.652 95.86 411.652 95.572V95.044H412.768V96.532H414.22V97.6H412.768V100.972C412.768 101.188 412.8 101.376 412.864 101.536C412.936 101.696 413.052 101.824 413.212 101.92C413.372 102.008 413.584 102.052 413.848 102.052C413.904 102.052 413.972 102.048 414.052 102.04C414.14 102.032 414.22 102.024 414.292 102.016V103C414.188 103.024 414.072 103.04 413.944 103.048C413.816 103.064 413.708 103.072 413.62 103.072ZM415.51 103V96.532H416.626V103H415.51ZM415.51 95.5V94.06H416.626V95.5H415.51ZM418.117 103V96.532H419.209V97.852L419.053 97.648C419.213 97.24 419.469 96.928 419.821 96.712C420.173 96.496 420.569 96.388 421.009 96.388C421.513 96.388 421.965 96.528 422.365 96.808C422.773 97.088 423.053 97.456 423.205 97.912L422.893 97.924C423.061 97.42 423.345 97.04 423.745 96.784C424.145 96.52 424.589 96.388 425.077 96.388C425.525 96.388 425.929 96.492 426.289 96.7C426.657 96.908 426.949 97.196 427.165 97.564C427.381 97.932 427.489 98.348 427.489 98.812V103H426.361V99.172C426.361 98.812 426.297 98.508 426.169 98.26C426.041 98.012 425.865 97.82 425.641 97.684C425.425 97.54 425.169 97.468 424.873 97.468C424.585 97.468 424.325 97.54 424.093 97.684C423.869 97.82 423.689 98.016 423.553 98.272C423.425 98.52 423.361 98.82 423.361 99.172V103H422.233V99.172C422.233 98.812 422.169 98.508 422.041 98.26C421.913 98.012 421.737 97.82 421.513 97.684C421.297 97.54 421.041 97.468 420.745 97.468C420.457 97.468 420.197 97.54 419.965 97.684C419.741 97.82 419.561 98.016 419.425 98.272C419.297 98.52 419.233 98.82 419.233 99.172V103H418.117ZM431.81 103.144C431.186 103.144 430.63 102.996 430.142 102.7C429.654 102.404 429.27 102 428.99 101.488C428.71 100.968 428.57 100.388 428.57 99.748C428.57 99.1 428.706 98.524 428.978 98.02C429.258 97.516 429.634 97.12 430.106 96.832C430.586 96.536 431.122 96.388 431.714 96.388C432.194 96.388 432.618 96.476 432.986 96.652C433.362 96.82 433.678 97.052 433.934 97.348C434.198 97.636 434.398 97.968 434.534 98.344C434.678 98.712 434.75 99.096 434.75 99.496C434.75 99.584 434.742 99.684 434.726 99.796C434.718 99.9 434.706 100 434.69 100.096H429.386V99.136H434.042L433.514 99.568C433.586 99.152 433.546 98.78 433.394 98.452C433.242 98.124 433.018 97.864 432.722 97.672C432.426 97.48 432.09 97.384 431.714 97.384C431.338 97.384 430.994 97.48 430.682 97.672C430.37 97.864 430.126 98.14 429.95 98.5C429.782 98.852 429.714 99.272 429.746 99.76C429.714 100.232 429.786 100.648 429.962 101.008C430.146 101.36 430.402 101.636 430.73 101.836C431.066 102.028 431.43 102.124 431.822 102.124C432.254 102.124 432.618 102.024 432.914 101.824C433.21 101.624 433.45 101.368 433.634 101.056L434.57 101.536C434.442 101.832 434.242 102.104 433.97 102.352C433.706 102.592 433.39 102.784 433.022 102.928C432.662 103.072 432.258 103.144 431.81 103.144Z" fill="#90A3BF"/>
<path d="M455 100.799C454.592 100.799 454.184 100.642 453.875 100.333L450.071 96.5294C449.902 96.3602 449.902 96.0802 450.071 95.9111C450.24 95.7419 450.52 95.7419 450.69 95.9111L454.493 99.7144C454.773 99.9944 455.228 99.9944 455.508 99.7144L459.311 95.9111C459.48 95.7419 459.76 95.7419 459.93 95.9111C460.099 96.0802 460.099 96.3602 459.93 96.5294L456.126 100.333C455.817 100.642 455.409 100.799 455 100.799Z" fill="#1A202C" stroke="#1A202C" stroke-width="0.5"/>
</g>
<defs>
<clipPath id="clip0_35_7682">
<rect width="486" height="132" rx="10" fill="white"/>
</clipPath>
</defs>
</svg>
