<svg width="256" height="24" viewBox="0 0 256 24" fill="none" xmlns="http://www.w3.org/2000/svg">
<path d="M22.34 9.33L20.34 8.33C19.97 8.15 19.51 8.29 19.33 8.66C19.14 9.04 19.29 9.49 19.66 9.67L21.25 10.46V15.25L17.5 15.26V5C17.5 3 16.16 2 14.5 2H6.5C4.84 2 3.5 3 3.5 5V21.25H2C1.59 21.25 1.25 21.59 1.25 22C1.25 22.41 1.59 22.75 2 22.75H19C19.41 22.75 19.75 22.41 19.75 22C19.75 21.59 19.41 21.25 19 21.25H17.5V16.76L22 16.75C22.42 16.75 22.75 16.41 22.75 16V10C22.75 9.72 22.59 9.46 22.34 9.33ZM6 6.89C6 5.5 6.85 5 7.89 5H13.12C14.15 5 15 5.5 15 6.89V8.12C15 9.5 14.15 10 13.11 10H7.89C6.85 10 6 9.5 6 8.11V6.89ZM6.5 12.25H9.5C9.91 12.25 10.25 12.59 10.25 13C10.25 13.41 9.91 13.75 9.5 13.75H6.5C6.09 13.75 5.75 13.41 5.75 13C5.75 12.59 6.09 12.25 6.5 12.25Z" fill="#90A3BF"/>
<path d="M31.078 18L35.656 8.76H30.546V7.57H37.098V8.76L32.562 18H31.078ZM42.4719 18.168C41.6413 18.168 40.9133 17.944 40.2879 17.496C39.6719 17.0387 39.1913 16.4087 38.8459 15.606C38.5006 14.794 38.3279 13.8513 38.3279 12.778C38.3279 11.7047 38.5006 10.7667 38.8459 9.964C39.1913 9.152 39.6719 8.522 40.2879 8.074C40.9039 7.626 41.6273 7.402 42.4579 7.402C43.2886 7.402 44.0119 7.626 44.6279 8.074C45.2439 8.522 45.7246 9.152 46.0699 9.964C46.4246 10.7667 46.6019 11.7047 46.6019 12.778C46.6019 13.8513 46.4293 14.794 46.0839 15.606C45.7386 16.418 45.2533 17.048 44.6279 17.496C44.0119 17.944 43.2933 18.168 42.4719 18.168ZM42.4719 16.894C43.0319 16.894 43.5173 16.726 43.9279 16.39C44.3386 16.0447 44.6559 15.564 44.8799 14.948C45.1133 14.332 45.2299 13.6087 45.2299 12.778C45.2299 11.9473 45.1133 11.224 44.8799 10.608C44.6559 9.992 44.3339 9.516 43.9139 9.18C43.5033 8.844 43.0179 8.676 42.4579 8.676C41.8979 8.676 41.4126 8.844 41.0019 9.18C40.5913 9.516 40.2693 9.992 40.0359 10.608C39.8119 11.224 39.6999 11.9473 39.6999 12.778C39.6999 13.5993 39.8119 14.318 40.0359 14.934C40.2693 15.55 40.5913 16.0307 41.0019 16.376C41.4219 16.7213 41.9119 16.894 42.4719 16.894ZM48.4028 18V7.57H49.7748V16.74H54.3528V18H48.4028Z" fill="#90A3BF"/>
<path d="M86 2C80.48 2 76 6.48 76 12C76 17.52 80.48 22 86 22C91.52 22 96 17.52 96 12C96 6.48 91.53 2 86 2Z" fill="#90A3BF"/>
<rect x="78" y="4" width="16" height="16" rx="8" fill="white"/>
<path d="M86 6C82.688 6 80 8.688 80 12C80 15.312 82.688 18 86 18C89.312 18 92 15.312 92 12C92 8.688 89.318 6 86 6Z" fill="#90A3BF"/>
<rect x="82" y="8" width="8" height="8" rx="4" fill="white"/>
<rect x="85" y="17" width="2" height="4" fill="#90A3BF"/>
<rect x="91" y="11" width="4" height="2" fill="#90A3BF"/>
<rect x="77" y="11" width="4" height="2" fill="#90A3BF"/>
<path d="M103.162 18V7.57H104.422L108.328 13.128H107.684L111.562 7.57H112.822V18H111.436V9.306L111.926 9.46L108.048 14.92H107.936L104.1 9.46L104.534 9.306V18H103.162ZM116.917 18.168C116.422 18.168 115.983 18.0793 115.601 17.902C115.227 17.7153 114.933 17.4633 114.719 17.146C114.504 16.8193 114.397 16.446 114.397 16.026C114.397 15.6247 114.481 15.2653 114.649 14.948C114.826 14.6213 115.097 14.346 115.461 14.122C115.834 13.898 116.301 13.7393 116.861 13.646L119.661 13.184V14.276L117.155 14.696C116.669 14.78 116.315 14.934 116.091 15.158C115.876 15.382 115.769 15.6573 115.769 15.984C115.769 16.292 115.89 16.5487 116.133 16.754C116.385 16.9593 116.697 17.062 117.071 17.062C117.547 17.062 117.957 16.964 118.303 16.768C118.657 16.5627 118.933 16.2873 119.129 15.942C119.334 15.5967 119.437 15.214 119.437 14.794V12.876C119.437 12.4653 119.283 12.134 118.975 11.882C118.676 11.6207 118.279 11.49 117.785 11.49C117.355 11.49 116.973 11.602 116.637 11.826C116.31 12.0407 116.067 12.33 115.909 12.694L114.775 12.106C114.915 11.7607 115.139 11.4527 115.447 11.182C115.755 10.902 116.114 10.6827 116.525 10.524C116.935 10.3653 117.365 10.286 117.813 10.286C118.391 10.286 118.9 10.398 119.339 10.622C119.777 10.8367 120.118 11.14 120.361 11.532C120.613 11.9147 120.739 12.3627 120.739 12.876V18H119.465V16.572L119.703 16.656C119.544 16.9547 119.329 17.216 119.059 17.44C118.788 17.664 118.471 17.8413 118.107 17.972C117.743 18.1027 117.346 18.168 116.917 18.168ZM122.477 18V10.454H123.751V11.924L123.541 11.798C123.728 11.322 124.027 10.9533 124.437 10.692C124.857 10.4213 125.347 10.286 125.907 10.286C126.449 10.286 126.929 10.4073 127.349 10.65C127.779 10.8927 128.115 11.2287 128.357 11.658C128.609 12.0873 128.735 12.5727 128.735 13.114V18H127.419V13.534C127.419 13.114 127.345 12.7593 127.195 12.47C127.046 12.1807 126.831 11.9567 126.551 11.798C126.281 11.63 125.968 11.546 125.613 11.546C125.259 11.546 124.941 11.63 124.661 11.798C124.391 11.9567 124.176 12.1853 124.017 12.484C123.859 12.7733 123.779 13.1233 123.779 13.534V18H122.477ZM132.992 18.168C132.451 18.168 131.961 18.042 131.522 17.79C131.093 17.538 130.757 17.188 130.514 16.74C130.281 16.2827 130.164 15.76 130.164 15.172V10.454H131.466V15.032C131.466 15.4053 131.541 15.732 131.69 16.012C131.849 16.292 132.064 16.5113 132.334 16.67C132.614 16.8287 132.932 16.908 133.286 16.908C133.641 16.908 133.954 16.8287 134.224 16.67C134.504 16.5113 134.719 16.2827 134.868 15.984C135.027 15.6853 135.106 15.3307 135.106 14.92V10.454H136.422V18H135.148V16.53L135.358 16.656C135.181 17.132 134.878 17.5053 134.448 17.776C134.028 18.0373 133.543 18.168 132.992 18.168ZM140.371 18.168C139.877 18.168 139.438 18.0793 139.055 17.902C138.682 17.7153 138.388 17.4633 138.173 17.146C137.959 16.8193 137.851 16.446 137.851 16.026C137.851 15.6247 137.935 15.2653 138.103 14.948C138.281 14.6213 138.551 14.346 138.915 14.122C139.289 13.898 139.755 13.7393 140.315 13.646L143.115 13.184V14.276L140.609 14.696C140.124 14.78 139.769 14.934 139.545 15.158C139.331 15.382 139.223 15.6573 139.223 15.984C139.223 16.292 139.345 16.5487 139.587 16.754C139.839 16.9593 140.152 17.062 140.525 17.062C141.001 17.062 141.412 16.964 141.757 16.768C142.112 16.5627 142.387 16.2873 142.583 15.942C142.789 15.5967 142.891 15.214 142.891 14.794V12.876C142.891 12.4653 142.737 12.134 142.429 11.882C142.131 11.6207 141.734 11.49 141.239 11.49C140.81 11.49 140.427 11.602 140.091 11.826C139.765 12.0407 139.522 12.33 139.363 12.694L138.229 12.106C138.369 11.7607 138.593 11.4527 138.901 11.182C139.209 10.902 139.569 10.6827 139.979 10.524C140.39 10.3653 140.819 10.286 141.267 10.286C141.846 10.286 142.355 10.398 142.793 10.622C143.232 10.8367 143.573 11.14 143.815 11.532C144.067 11.9147 144.193 12.3627 144.193 12.876V18H142.919V16.572L143.157 16.656C142.999 16.9547 142.784 17.216 142.513 17.44C142.243 17.664 141.925 17.8413 141.561 17.972C141.197 18.1027 140.801 18.168 140.371 18.168ZM145.932 18V7.402H147.234V18H145.932Z" fill="#90A3BF"/>
<path d="M175 2C172.38 2 170.25 4.13 170.25 6.75C170.25 9.32 172.26 11.4 174.88 11.49C174.96 11.48 175.04 11.48 175.1 11.49C175.12 11.49 175.13 11.49 175.15 11.49C175.16 11.49 175.16 11.49 175.17 11.49C177.73 11.4 179.74 9.32 179.75 6.75C179.75 4.13 177.62 2 175 2Z" fill="#90A3BF"/>
<path d="M180.08 14.1499C177.29 12.2899 172.74 12.2899 169.93 14.1499C168.66 14.9999 167.96 16.1499 167.96 17.3799C167.96 18.6099 168.66 19.7499 169.92 20.5899C171.32 21.5299 173.16 21.9999 175 21.9999C176.84 21.9999 178.68 21.5299 180.08 20.5899C181.34 19.7399 182.04 18.5999 182.04 17.3599C182.03 16.1299 181.34 14.9899 180.08 14.1499Z" fill="#90A3BF"/>
<path d="M185.99 7.3401C186.15 9.2801 184.77 10.9801 182.86 11.2101C182.85 11.2101 182.85 11.2101 182.84 11.2101H182.81C182.75 11.2101 182.69 11.2101 182.64 11.2301C181.67 11.2801 180.78 10.9701 180.11 10.4001C181.14 9.4801 181.73 8.1001 181.61 6.6001C181.54 5.7901 181.26 5.0501 180.84 4.4201C181.22 4.2301 181.66 4.1101 182.11 4.0701C184.07 3.9001 185.82 5.3601 185.99 7.3401Z" fill="#90A3BF"/>
<path d="M187.99 16.5904C187.91 17.5604 187.29 18.4004 186.25 18.9704C185.25 19.5204 183.99 19.7804 182.74 19.7504C183.46 19.1004 183.88 18.2904 183.96 17.4304C184.06 16.1904 183.47 15.0004 182.29 14.0504C181.62 13.5204 180.84 13.1004 179.99 12.7904C182.2 12.1504 184.98 12.5804 186.69 13.9604C187.61 14.7004 188.08 15.6304 187.99 16.5904Z" fill="#90A3BF"/>
<path d="M200.214 18.168C199.542 18.168 198.945 18.0187 198.422 17.72C197.909 17.4213 197.503 17.0153 197.204 16.502C196.905 15.9793 196.756 15.3867 196.756 14.724C196.756 14.36 196.798 14.0007 196.882 13.646C196.966 13.2913 197.101 12.932 197.288 12.568C197.475 12.204 197.713 11.826 198.002 11.434L200.942 7.57H202.594L198.996 12.246L198.744 12.218C198.884 12.0313 199.038 11.8867 199.206 11.784C199.383 11.6813 199.57 11.6067 199.766 11.56C199.971 11.5133 200.186 11.49 200.41 11.49C201.026 11.49 201.577 11.6347 202.062 11.924C202.557 12.204 202.944 12.5913 203.224 13.086C203.513 13.5807 203.658 14.15 203.658 14.794C203.658 15.438 203.509 16.0167 203.21 16.53C202.911 17.034 202.501 17.4353 201.978 17.734C201.465 18.0233 200.877 18.168 200.214 18.168ZM200.214 16.936C200.606 16.936 200.956 16.8473 201.264 16.67C201.572 16.4833 201.815 16.2267 201.992 15.9C202.179 15.5733 202.272 15.2093 202.272 14.808C202.272 14.388 202.183 14.024 202.006 13.716C201.829 13.3987 201.586 13.1467 201.278 12.96C200.97 12.7733 200.615 12.68 200.214 12.68C199.822 12.68 199.467 12.7733 199.15 12.96C198.833 13.1467 198.585 13.3987 198.408 13.716C198.231 14.024 198.142 14.388 198.142 14.808C198.142 15.2093 198.231 15.5733 198.408 15.9C198.595 16.2267 198.842 16.4833 199.15 16.67C199.467 16.8473 199.822 16.936 200.214 16.936ZM207.403 18V7.57H211.085C211.775 7.57 212.382 7.70067 212.905 7.962C213.427 8.22333 213.833 8.59667 214.123 9.082C214.421 9.56733 214.571 10.1367 214.571 10.79C214.571 11.4433 214.421 12.0127 214.123 12.498C213.833 12.974 213.427 13.3473 212.905 13.618C212.391 13.8793 211.785 14.01 211.085 14.01H208.775V18H207.403ZM208.775 12.75H211.127C211.547 12.75 211.911 12.6707 212.219 12.512C212.527 12.3533 212.765 12.1247 212.933 11.826C213.101 11.5273 213.185 11.182 213.185 10.79C213.185 10.3887 213.101 10.0433 212.933 9.754C212.765 9.45533 212.527 9.22667 212.219 9.068C211.911 8.90933 211.547 8.83 211.127 8.83H208.775V12.75ZM219.191 18.168C218.463 18.168 217.814 17.9953 217.245 17.65C216.675 17.3047 216.227 16.8333 215.901 16.236C215.574 15.6293 215.411 14.9527 215.411 14.206C215.411 13.45 215.569 12.778 215.887 12.19C216.213 11.602 216.652 11.14 217.203 10.804C217.763 10.4587 218.388 10.286 219.079 10.286C219.639 10.286 220.133 10.3887 220.563 10.594C221.001 10.79 221.37 11.0607 221.669 11.406C221.977 11.742 222.21 12.1293 222.369 12.568C222.537 12.9973 222.621 13.4453 222.621 13.912C222.621 14.0147 222.611 14.1313 222.593 14.262C222.583 14.3833 222.569 14.5 222.551 14.612H216.363V13.492H221.795L221.179 13.996C221.263 13.5107 221.216 13.0767 221.039 12.694C220.861 12.3113 220.6 12.008 220.255 11.784C219.909 11.56 219.517 11.448 219.079 11.448C218.64 11.448 218.239 11.56 217.875 11.784C217.511 12.008 217.226 12.33 217.021 12.75C216.825 13.1607 216.745 13.6507 216.783 14.22C216.745 14.7707 216.829 15.256 217.035 15.676C217.249 16.0867 217.548 16.4087 217.931 16.642C218.323 16.866 218.747 16.978 219.205 16.978C219.709 16.978 220.133 16.8613 220.479 16.628C220.824 16.3947 221.104 16.096 221.319 15.732L222.411 16.292C222.261 16.6373 222.028 16.9547 221.711 17.244C221.403 17.524 221.034 17.748 220.605 17.916C220.185 18.084 219.713 18.168 219.191 18.168ZM227.622 18.168C226.894 18.168 226.236 18 225.648 17.664C225.06 17.3187 224.594 16.8473 224.248 16.25C223.903 15.6527 223.73 14.976 223.73 14.22C223.73 13.464 223.898 12.792 224.234 12.204C224.58 11.616 225.046 11.1493 225.634 10.804C226.222 10.4587 226.885 10.286 227.622 10.286C228.35 10.286 229.008 10.4587 229.596 10.804C230.184 11.14 230.646 11.602 230.982 12.19C231.328 12.778 231.5 13.4547 231.5 14.22C231.5 14.9853 231.323 15.6667 230.968 16.264C230.614 16.852 230.142 17.3187 229.554 17.664C228.976 18 228.332 18.168 227.622 18.168ZM227.622 16.908C228.089 16.908 228.509 16.7913 228.882 16.558C229.265 16.3247 229.564 16.0027 229.778 15.592C230.002 15.1813 230.114 14.724 230.114 14.22C230.114 13.7067 230.002 13.254 229.778 12.862C229.564 12.4607 229.265 12.1433 228.882 11.91C228.509 11.6673 228.089 11.546 227.622 11.546C227.146 11.546 226.717 11.6673 226.334 11.91C225.961 12.1433 225.662 12.4607 225.438 12.862C225.214 13.254 225.102 13.7067 225.102 14.22C225.102 14.724 225.214 15.1813 225.438 15.592C225.662 16.0027 225.961 16.3247 226.334 16.558C226.717 16.7913 227.146 16.908 227.622 16.908ZM232.919 20.8V10.454H234.193V12.078L234.025 11.756C234.305 11.308 234.687 10.9533 235.173 10.692C235.658 10.4213 236.213 10.286 236.839 10.286C237.548 10.286 238.183 10.4587 238.743 10.804C239.312 11.1493 239.76 11.6207 240.087 12.218C240.413 12.806 240.577 13.478 240.577 14.234C240.577 14.9713 240.413 15.6387 240.087 16.236C239.76 16.8333 239.312 17.3047 238.743 17.65C238.183 17.9953 237.543 18.168 236.825 18.168C236.218 18.168 235.663 18.0327 235.159 17.762C234.664 17.4913 234.281 17.1087 234.011 16.614L234.221 16.39V20.8H232.919ZM236.727 16.908C237.203 16.908 237.627 16.7913 238.001 16.558C238.374 16.3247 238.663 16.0073 238.869 15.606C239.083 15.1953 239.191 14.738 239.191 14.234C239.191 13.7113 239.083 13.254 238.869 12.862C238.663 12.4607 238.374 12.1433 238.001 11.91C237.627 11.6673 237.203 11.546 236.727 11.546C236.251 11.546 235.821 11.6627 235.439 11.896C235.065 12.1293 234.767 12.4513 234.543 12.862C234.328 13.2633 234.221 13.7207 234.221 14.234C234.221 14.738 234.328 15.1953 234.543 15.606C234.767 16.0073 235.065 16.3247 235.439 16.558C235.821 16.7913 236.251 16.908 236.727 16.908ZM242.004 18V7.402H243.306V18H242.004ZM248.518 18.168C247.79 18.168 247.141 17.9953 246.572 17.65C246.003 17.3047 245.555 16.8333 245.228 16.236C244.901 15.6293 244.738 14.9527 244.738 14.206C244.738 13.45 244.897 12.778 245.214 12.19C245.541 11.602 245.979 11.14 246.53 10.804C247.09 10.4587 247.715 10.286 248.406 10.286C248.966 10.286 249.461 10.3887 249.89 10.594C250.329 10.79 250.697 11.0607 250.996 11.406C251.304 11.742 251.537 12.1293 251.696 12.568C251.864 12.9973 251.948 13.4453 251.948 13.912C251.948 14.0147 251.939 14.1313 251.92 14.262C251.911 14.3833 251.897 14.5 251.878 14.612H245.69V13.492H251.122L250.506 13.996C250.59 13.5107 250.543 13.0767 250.366 12.694C250.189 12.3113 249.927 12.008 249.582 11.784C249.237 11.56 248.845 11.448 248.406 11.448C247.967 11.448 247.566 11.56 247.202 11.784C246.838 12.008 246.553 12.33 246.348 12.75C246.152 13.1607 246.073 13.6507 246.11 14.22C246.073 14.7707 246.157 15.256 246.362 15.676C246.577 16.0867 246.875 16.4087 247.258 16.642C247.65 16.866 248.075 16.978 248.532 16.978C249.036 16.978 249.461 16.8613 249.806 16.628C250.151 16.3947 250.431 16.096 250.646 15.732L251.738 16.292C251.589 16.6373 251.355 16.9547 251.038 17.244C250.73 17.524 250.361 17.748 249.932 17.916C249.512 18.084 249.041 18.168 248.518 18.168Z" fill="#90A3BF"/>
</svg>
