<svg width="256" height="24" viewBox="0 0 256 24" fill="none" xmlns="http://www.w3.org/2000/svg">
<path d="M22.34 9.33L20.34 8.33C19.97 8.15 19.51 8.29 19.33 8.66C19.14 9.04 19.29 9.49 19.66 9.67L21.25 10.46V15.25L17.5 15.26V5C17.5 3 16.16 2 14.5 2H6.5C4.84 2 3.5 3 3.5 5V21.25H2C1.59 21.25 1.25 21.59 1.25 22C1.25 22.41 1.59 22.75 2 22.75H19C19.41 22.75 19.75 22.41 19.75 22C19.75 21.59 19.41 21.25 19 21.25H17.5V16.76L22 16.75C22.42 16.75 22.75 16.41 22.75 16V10C22.75 9.72 22.59 9.46 22.34 9.33ZM6 6.89C6 5.5 6.85 5 7.89 5H13.12C14.15 5 15 5.5 15 6.89V8.12C15 9.5 14.15 10 13.11 10H7.89C6.85 10 6 9.5 6 8.11V6.89ZM6.5 12.25H9.5C9.91 12.25 10.25 12.59 10.25 13C10.25 13.41 9.91 13.75 9.5 13.75H6.5C6.09 13.75 5.75 13.41 5.75 13C5.75 12.59 6.09 12.25 6.5 12.25Z" fill="#90A3BF"/>
<path d="M34.41 18.168C33.71 18.168 33.0893 18.028 32.548 17.748C32.016 17.468 31.596 17.09 31.288 16.614C30.9893 16.1287 30.84 15.5873 30.84 14.99C30.84 14.318 31.0267 13.73 31.4 13.226C31.7733 12.722 32.2867 12.3627 32.94 12.148L32.912 12.498C32.4173 12.302 32.03 11.9893 31.75 11.56C31.4793 11.1213 31.344 10.65 31.344 10.146C31.344 9.614 31.4747 9.14267 31.736 8.732C32.0067 8.32133 32.3707 7.99933 32.828 7.766C33.2947 7.52333 33.822 7.402 34.41 7.402C34.998 7.402 35.5207 7.51867 35.978 7.752C36.4353 7.98533 36.7947 8.312 37.056 8.732C37.3267 9.14267 37.462 9.614 37.462 10.146C37.462 10.678 37.3173 11.154 37.028 11.574C36.748 11.994 36.3747 12.3067 35.908 12.512L35.866 12.148C36.5287 12.3627 37.0467 12.7267 37.42 13.24C37.7933 13.744 37.98 14.3273 37.98 14.99C37.98 15.5873 37.826 16.1287 37.518 16.614C37.2193 17.09 36.7993 17.468 36.258 17.748C35.726 18.028 35.11 18.168 34.41 18.168ZM34.41 16.978C34.8487 16.978 35.2313 16.894 35.558 16.726C35.8847 16.558 36.1367 16.3247 36.314 16.026C36.5007 15.718 36.594 15.368 36.594 14.976C36.594 14.5747 36.5007 14.2247 36.314 13.926C36.1367 13.618 35.8847 13.3847 35.558 13.226C35.2313 13.058 34.8487 12.974 34.41 12.974C33.9713 12.974 33.584 13.058 33.248 13.226C32.9213 13.3847 32.6693 13.618 32.492 13.926C32.3147 14.2247 32.226 14.5747 32.226 14.976C32.226 15.368 32.3147 15.718 32.492 16.026C32.6693 16.3247 32.9213 16.558 33.248 16.726C33.584 16.894 33.9713 16.978 34.41 16.978ZM34.41 11.784C34.7273 11.784 35.0073 11.714 35.25 11.574C35.502 11.434 35.7027 11.2473 35.852 11.014C36.0013 10.7713 36.076 10.4913 36.076 10.174C36.076 9.85667 36.0013 9.58133 35.852 9.348C35.7027 9.11467 35.502 8.93267 35.25 8.802C35.0073 8.662 34.7273 8.592 34.41 8.592C34.0833 8.592 33.794 8.662 33.542 8.802C33.29 8.93267 33.0893 9.11467 32.94 9.348C32.7907 9.58133 32.716 9.85667 32.716 10.174C32.716 10.4913 32.7907 10.7713 32.94 11.014C33.0893 11.2473 33.29 11.434 33.542 11.574C33.794 11.714 34.0833 11.784 34.41 11.784ZM43.6067 18.168C42.776 18.168 42.048 17.944 41.4227 17.496C40.8067 17.0387 40.326 16.4087 39.9807 15.606C39.6354 14.794 39.4627 13.8513 39.4627 12.778C39.4627 11.7047 39.6354 10.7667 39.9807 9.964C40.326 9.152 40.8067 8.522 41.4227 8.074C42.0387 7.626 42.762 7.402 43.5927 7.402C44.4234 7.402 45.1467 7.626 45.7627 8.074C46.3787 8.522 46.8594 9.152 47.2047 9.964C47.5594 10.7667 47.7367 11.7047 47.7367 12.778C47.7367 13.8513 47.564 14.794 47.2187 15.606C46.8734 16.418 46.388 17.048 45.7627 17.496C45.1467 17.944 44.428 18.168 43.6067 18.168ZM43.6067 16.894C44.1667 16.894 44.652 16.726 45.0627 16.39C45.4734 16.0447 45.7907 15.564 46.0147 14.948C46.248 14.332 46.3647 13.6087 46.3647 12.778C46.3647 11.9473 46.248 11.224 46.0147 10.608C45.7907 9.992 45.4687 9.516 45.0487 9.18C44.638 8.844 44.1527 8.676 43.5927 8.676C43.0327 8.676 42.5474 8.844 42.1367 9.18C41.726 9.516 41.404 9.992 41.1707 10.608C40.9467 11.224 40.8347 11.9473 40.8347 12.778C40.8347 13.5993 40.9467 14.318 41.1707 14.934C41.404 15.55 41.726 16.0307 42.1367 16.376C42.5567 16.7213 43.0467 16.894 43.6067 16.894ZM49.5375 18V7.57H50.9095V16.74H55.4875V18H49.5375Z" fill="#90A3BF"/>
<path d="M86 2C80.48 2 76 6.48 76 12C76 17.52 80.48 22 86 22C91.52 22 96 17.52 96 12C96 6.48 91.53 2 86 2Z" fill="#90A3BF"/>
<rect x="78" y="4" width="16" height="16" rx="8" fill="white"/>
<path d="M86 6C82.688 6 80 8.688 80 12C80 15.312 82.688 18 86 18C89.312 18 92 15.312 92 12C92 8.688 89.318 6 86 6Z" fill="#90A3BF"/>
<rect x="82" y="8" width="8" height="8" rx="4" fill="white"/>
<rect x="85" y="17" width="2" height="4" fill="#90A3BF"/>
<rect x="91" y="11" width="4" height="2" fill="#90A3BF"/>
<rect x="77" y="11" width="4" height="2" fill="#90A3BF"/>
<path d="M103.162 18V7.57H104.422L108.328 13.128H107.684L111.562 7.57H112.822V18H111.436V9.306L111.926 9.46L108.048 14.92H107.936L104.1 9.46L104.534 9.306V18H103.162ZM116.917 18.168C116.422 18.168 115.983 18.0793 115.601 17.902C115.227 17.7153 114.933 17.4633 114.719 17.146C114.504 16.8193 114.397 16.446 114.397 16.026C114.397 15.6247 114.481 15.2653 114.649 14.948C114.826 14.6213 115.097 14.346 115.461 14.122C115.834 13.898 116.301 13.7393 116.861 13.646L119.661 13.184V14.276L117.155 14.696C116.669 14.78 116.315 14.934 116.091 15.158C115.876 15.382 115.769 15.6573 115.769 15.984C115.769 16.292 115.89 16.5487 116.133 16.754C116.385 16.9593 116.697 17.062 117.071 17.062C117.547 17.062 117.957 16.964 118.303 16.768C118.657 16.5627 118.933 16.2873 119.129 15.942C119.334 15.5967 119.437 15.214 119.437 14.794V12.876C119.437 12.4653 119.283 12.134 118.975 11.882C118.676 11.6207 118.279 11.49 117.785 11.49C117.355 11.49 116.973 11.602 116.637 11.826C116.31 12.0407 116.067 12.33 115.909 12.694L114.775 12.106C114.915 11.7607 115.139 11.4527 115.447 11.182C115.755 10.902 116.114 10.6827 116.525 10.524C116.935 10.3653 117.365 10.286 117.813 10.286C118.391 10.286 118.9 10.398 119.339 10.622C119.777 10.8367 120.118 11.14 120.361 11.532C120.613 11.9147 120.739 12.3627 120.739 12.876V18H119.465V16.572L119.703 16.656C119.544 16.9547 119.329 17.216 119.059 17.44C118.788 17.664 118.471 17.8413 118.107 17.972C117.743 18.1027 117.346 18.168 116.917 18.168ZM122.477 18V10.454H123.751V11.924L123.541 11.798C123.728 11.322 124.027 10.9533 124.437 10.692C124.857 10.4213 125.347 10.286 125.907 10.286C126.449 10.286 126.929 10.4073 127.349 10.65C127.779 10.8927 128.115 11.2287 128.357 11.658C128.609 12.0873 128.735 12.5727 128.735 13.114V18H127.419V13.534C127.419 13.114 127.345 12.7593 127.195 12.47C127.046 12.1807 126.831 11.9567 126.551 11.798C126.281 11.63 125.968 11.546 125.613 11.546C125.259 11.546 124.941 11.63 124.661 11.798C124.391 11.9567 124.176 12.1853 124.017 12.484C123.859 12.7733 123.779 13.1233 123.779 13.534V18H122.477ZM132.992 18.168C132.451 18.168 131.961 18.042 131.522 17.79C131.093 17.538 130.757 17.188 130.514 16.74C130.281 16.2827 130.164 15.76 130.164 15.172V10.454H131.466V15.032C131.466 15.4053 131.541 15.732 131.69 16.012C131.849 16.292 132.064 16.5113 132.334 16.67C132.614 16.8287 132.932 16.908 133.286 16.908C133.641 16.908 133.954 16.8287 134.224 16.67C134.504 16.5113 134.719 16.2827 134.868 15.984C135.027 15.6853 135.106 15.3307 135.106 14.92V10.454H136.422V18H135.148V16.53L135.358 16.656C135.181 17.132 134.878 17.5053 134.448 17.776C134.028 18.0373 133.543 18.168 132.992 18.168ZM140.371 18.168C139.877 18.168 139.438 18.0793 139.055 17.902C138.682 17.7153 138.388 17.4633 138.173 17.146C137.959 16.8193 137.851 16.446 137.851 16.026C137.851 15.6247 137.935 15.2653 138.103 14.948C138.281 14.6213 138.551 14.346 138.915 14.122C139.289 13.898 139.755 13.7393 140.315 13.646L143.115 13.184V14.276L140.609 14.696C140.124 14.78 139.769 14.934 139.545 15.158C139.331 15.382 139.223 15.6573 139.223 15.984C139.223 16.292 139.345 16.5487 139.587 16.754C139.839 16.9593 140.152 17.062 140.525 17.062C141.001 17.062 141.412 16.964 141.757 16.768C142.112 16.5627 142.387 16.2873 142.583 15.942C142.789 15.5967 142.891 15.214 142.891 14.794V12.876C142.891 12.4653 142.737 12.134 142.429 11.882C142.131 11.6207 141.734 11.49 141.239 11.49C140.81 11.49 140.427 11.602 140.091 11.826C139.765 12.0407 139.522 12.33 139.363 12.694L138.229 12.106C138.369 11.7607 138.593 11.4527 138.901 11.182C139.209 10.902 139.569 10.6827 139.979 10.524C140.39 10.3653 140.819 10.286 141.267 10.286C141.846 10.286 142.355 10.398 142.793 10.622C143.232 10.8367 143.573 11.14 143.815 11.532C144.067 11.9147 144.193 12.3627 144.193 12.876V18H142.919V16.572L143.157 16.656C142.999 16.9547 142.784 17.216 142.513 17.44C142.243 17.664 141.925 17.8413 141.561 17.972C141.197 18.1027 140.801 18.168 140.371 18.168ZM145.932 18V7.402H147.234V18H145.932Z" fill="#90A3BF"/>
<path d="M175 2C172.38 2 170.25 4.13 170.25 6.75C170.25 9.32 172.26 11.4 174.88 11.49C174.96 11.48 175.04 11.48 175.1 11.49C175.12 11.49 175.13 11.49 175.15 11.49C175.16 11.49 175.16 11.49 175.17 11.49C177.73 11.4 179.74 9.32 179.75 6.75C179.75 4.13 177.62 2 175 2Z" fill="#90A3BF"/>
<path d="M180.08 14.1499C177.29 12.2899 172.74 12.2899 169.93 14.1499C168.66 14.9999 167.96 16.1499 167.96 17.3799C167.96 18.6099 168.66 19.7499 169.92 20.5899C171.32 21.5299 173.16 21.9999 175 21.9999C176.84 21.9999 178.68 21.5299 180.08 20.5899C181.34 19.7399 182.04 18.5999 182.04 17.3599C182.03 16.1299 181.34 14.9899 180.08 14.1499Z" fill="#90A3BF"/>
<path d="M185.99 7.3401C186.15 9.2801 184.77 10.9801 182.86 11.2101C182.85 11.2101 182.85 11.2101 182.84 11.2101H182.81C182.75 11.2101 182.69 11.2101 182.64 11.2301C181.67 11.2801 180.78 10.9701 180.11 10.4001C181.14 9.4801 181.73 8.1001 181.61 6.6001C181.54 5.7901 181.26 5.0501 180.84 4.4201C181.22 4.2301 181.66 4.1101 182.11 4.0701C184.07 3.9001 185.82 5.3601 185.99 7.3401Z" fill="#90A3BF"/>
<path d="M187.99 16.5904C187.91 17.5604 187.29 18.4004 186.25 18.9704C185.25 19.5204 183.99 19.7804 182.74 19.7504C183.46 19.1004 183.88 18.2904 183.96 17.4304C184.06 16.1904 183.47 15.0004 182.29 14.0504C181.62 13.5204 180.84 13.1004 179.99 12.7904C182.2 12.1504 184.98 12.5804 186.69 13.9604C187.61 14.7004 188.08 15.6304 187.99 16.5904Z" fill="#90A3BF"/>
<path d="M200.214 18.168C199.542 18.168 198.945 18.0187 198.422 17.72C197.909 17.4213 197.503 17.0153 197.204 16.502C196.905 15.9793 196.756 15.3867 196.756 14.724C196.756 14.36 196.798 14.0007 196.882 13.646C196.966 13.2913 197.101 12.932 197.288 12.568C197.475 12.204 197.713 11.826 198.002 11.434L200.942 7.57H202.594L198.996 12.246L198.744 12.218C198.884 12.0313 199.038 11.8867 199.206 11.784C199.383 11.6813 199.57 11.6067 199.766 11.56C199.971 11.5133 200.186 11.49 200.41 11.49C201.026 11.49 201.577 11.6347 202.062 11.924C202.557 12.204 202.944 12.5913 203.224 13.086C203.513 13.5807 203.658 14.15 203.658 14.794C203.658 15.438 203.509 16.0167 203.21 16.53C202.911 17.034 202.501 17.4353 201.978 17.734C201.465 18.0233 200.877 18.168 200.214 18.168ZM200.214 16.936C200.606 16.936 200.956 16.8473 201.264 16.67C201.572 16.4833 201.815 16.2267 201.992 15.9C202.179 15.5733 202.272 15.2093 202.272 14.808C202.272 14.388 202.183 14.024 202.006 13.716C201.829 13.3987 201.586 13.1467 201.278 12.96C200.97 12.7733 200.615 12.68 200.214 12.68C199.822 12.68 199.467 12.7733 199.15 12.96C198.833 13.1467 198.585 13.3987 198.408 13.716C198.231 14.024 198.142 14.388 198.142 14.808C198.142 15.2093 198.231 15.5733 198.408 15.9C198.595 16.2267 198.842 16.4833 199.15 16.67C199.467 16.8473 199.822 16.936 200.214 16.936ZM207.963 18V7.57H211.645C212.335 7.57 212.942 7.70067 213.465 7.962C213.987 8.22333 214.393 8.59667 214.683 9.082C214.981 9.56733 215.131 10.1367 215.131 10.79C215.131 11.4433 214.981 12.0127 214.683 12.498C214.393 12.974 213.987 13.3473 213.465 13.618C212.951 13.8793 212.345 14.01 211.645 14.01H209.335V18H207.963ZM209.335 12.75H211.687C212.107 12.75 212.471 12.6707 212.779 12.512C213.087 12.3533 213.325 12.1247 213.493 11.826C213.661 11.5273 213.745 11.182 213.745 10.79C213.745 10.3887 213.661 10.0433 213.493 9.754C213.325 9.45533 213.087 9.22667 212.779 9.068C212.471 8.90933 212.107 8.83 211.687 8.83H209.335V12.75ZM220.031 18.168C219.303 18.168 218.654 17.9953 218.085 17.65C217.515 17.3047 217.067 16.8333 216.741 16.236C216.414 15.6293 216.251 14.9527 216.251 14.206C216.251 13.45 216.409 12.778 216.727 12.19C217.053 11.602 217.492 11.14 218.043 10.804C218.603 10.4587 219.228 10.286 219.919 10.286C220.479 10.286 220.973 10.3887 221.403 10.594C221.841 10.79 222.21 11.0607 222.509 11.406C222.817 11.742 223.05 12.1293 223.209 12.568C223.377 12.9973 223.461 13.4453 223.461 13.912C223.461 14.0147 223.451 14.1313 223.433 14.262C223.423 14.3833 223.409 14.5 223.391 14.612H217.203V13.492H222.635L222.019 13.996C222.103 13.5107 222.056 13.0767 221.879 12.694C221.701 12.3113 221.44 12.008 221.095 11.784C220.749 11.56 220.357 11.448 219.919 11.448C219.48 11.448 219.079 11.56 218.715 11.784C218.351 12.008 218.066 12.33 217.861 12.75C217.665 13.1607 217.585 13.6507 217.623 14.22C217.585 14.7707 217.669 15.256 217.875 15.676C218.089 16.0867 218.388 16.4087 218.771 16.642C219.163 16.866 219.587 16.978 220.045 16.978C220.549 16.978 220.973 16.8613 221.319 16.628C221.664 16.3947 221.944 16.096 222.159 15.732L223.251 16.292C223.101 16.6373 222.868 16.9547 222.551 17.244C222.243 17.524 221.874 17.748 221.445 17.916C221.025 18.084 220.553 18.168 220.031 18.168ZM228.742 18.168C228.014 18.168 227.356 18 226.768 17.664C226.18 17.3187 225.714 16.8473 225.368 16.25C225.023 15.6527 224.85 14.976 224.85 14.22C224.85 13.464 225.018 12.792 225.354 12.204C225.7 11.616 226.166 11.1493 226.754 10.804C227.342 10.4587 228.005 10.286 228.742 10.286C229.47 10.286 230.128 10.4587 230.716 10.804C231.304 11.14 231.766 11.602 232.102 12.19C232.448 12.778 232.62 13.4547 232.62 14.22C232.62 14.9853 232.443 15.6667 232.088 16.264C231.734 16.852 231.262 17.3187 230.674 17.664C230.096 18 229.452 18.168 228.742 18.168ZM228.742 16.908C229.209 16.908 229.629 16.7913 230.002 16.558C230.385 16.3247 230.684 16.0027 230.898 15.592C231.122 15.1813 231.234 14.724 231.234 14.22C231.234 13.7067 231.122 13.254 230.898 12.862C230.684 12.4607 230.385 12.1433 230.002 11.91C229.629 11.6673 229.209 11.546 228.742 11.546C228.266 11.546 227.837 11.6673 227.454 11.91C227.081 12.1433 226.782 12.4607 226.558 12.862C226.334 13.254 226.222 13.7067 226.222 14.22C226.222 14.724 226.334 15.1813 226.558 15.592C226.782 16.0027 227.081 16.3247 227.454 16.558C227.837 16.7913 228.266 16.908 228.742 16.908ZM234.319 20.8V10.454H235.593V12.078L235.425 11.756C235.705 11.308 236.087 10.9533 236.573 10.692C237.058 10.4213 237.613 10.286 238.239 10.286C238.948 10.286 239.583 10.4587 240.143 10.804C240.712 11.1493 241.16 11.6207 241.487 12.218C241.813 12.806 241.977 13.478 241.977 14.234C241.977 14.9713 241.813 15.6387 241.487 16.236C241.16 16.8333 240.712 17.3047 240.143 17.65C239.583 17.9953 238.943 18.168 238.225 18.168C237.618 18.168 237.063 18.0327 236.559 17.762C236.064 17.4913 235.681 17.1087 235.411 16.614L235.621 16.39V20.8H234.319ZM238.127 16.908C238.603 16.908 239.027 16.7913 239.401 16.558C239.774 16.3247 240.063 16.0073 240.269 15.606C240.483 15.1953 240.591 14.738 240.591 14.234C240.591 13.7113 240.483 13.254 240.269 12.862C240.063 12.4607 239.774 12.1433 239.401 11.91C239.027 11.6673 238.603 11.546 238.127 11.546C237.651 11.546 237.221 11.6627 236.839 11.896C236.465 12.1293 236.167 12.4513 235.943 12.862C235.728 13.2633 235.621 13.7207 235.621 14.234C235.621 14.738 235.728 15.1953 235.943 15.606C236.167 16.0073 236.465 16.3247 236.839 16.558C237.221 16.7913 237.651 16.908 238.127 16.908ZM243.684 18V7.402H244.986V18H243.684ZM250.478 18.168C249.75 18.168 249.101 17.9953 248.532 17.65C247.963 17.3047 247.515 16.8333 247.188 16.236C246.861 15.6293 246.698 14.9527 246.698 14.206C246.698 13.45 246.857 12.778 247.174 12.19C247.501 11.602 247.939 11.14 248.49 10.804C249.05 10.4587 249.675 10.286 250.366 10.286C250.926 10.286 251.421 10.3887 251.85 10.594C252.289 10.79 252.657 11.0607 252.956 11.406C253.264 11.742 253.497 12.1293 253.656 12.568C253.824 12.9973 253.908 13.4453 253.908 13.912C253.908 14.0147 253.899 14.1313 253.88 14.262C253.871 14.3833 253.857 14.5 253.838 14.612H247.65V13.492H253.082L252.466 13.996C252.55 13.5107 252.503 13.0767 252.326 12.694C252.149 12.3113 251.887 12.008 251.542 11.784C251.197 11.56 250.805 11.448 250.366 11.448C249.927 11.448 249.526 11.56 249.162 11.784C248.798 12.008 248.513 12.33 248.308 12.75C248.112 13.1607 248.033 13.6507 248.07 14.22C248.033 14.7707 248.117 15.256 248.322 15.676C248.537 16.0867 248.835 16.4087 249.218 16.642C249.61 16.866 250.035 16.978 250.492 16.978C250.996 16.978 251.421 16.8613 251.766 16.628C252.111 16.3947 252.391 16.096 252.606 15.732L253.698 16.292C253.549 16.6373 253.315 16.9547 252.998 17.244C252.69 17.524 252.321 17.748 251.892 17.916C251.472 18.084 251.001 18.168 250.478 18.168Z" fill="#90A3BF"/>
</svg>
